  0
SECTION
  2
HEADER
  9
$ACADVER
  1
AC1032
  9
$ACADMAINTVER
 90
       29
  9
$DWGCODEPAGE
  3
ANSI_1252
  9
$LASTSAVEDBY
  1
petros
  9
$REQUIREDVERSIONS
160
                 0
  9
$INSBASE
 10
0.0
 20
0.0
 30
0.0
  9
$EXTMIN
 10
0.6511700000000003
 20
4.789642999999998
 30
0.0
  9
$EXTMAX
 10
6.046849490821268
 20
7.781322
 30
0.0
  9
$LIMMIN
 10
-12.695893
 20
-8.793292999999998
  9
$LIMMAX
 10
17.347693
 20
21.250293
  9
$ORTHOMODE
 70
     0
  9
$REGENMODE
 70
     1
  9
$FILLMODE
 70
     1
  9
$QTEXTMODE
 70
     0
  9
$MIRRTEXT
 70
     1
  9
$LTSCALE
 40
1.0
  9
$ATTMODE
 70
     1
  9
$TEXTSIZE
 40
0.2
  9
$TRACEWID
 40
0.05
  9
$TEXTSTYLE
  7
Standard
  9
$CLAYER
  8
0
  9
$CELTYPE
  6
ByLayer
  9
$CECOLOR
 62
     7
  9
$CELTSCALE
 40
1.0
  9
$DISPSILH
 70
     0
  9
$DIMSCALE
 40
1.0
  9
$DIMASZ
 40
0.25
  9
$DIMEXO
 40
0.125
  9
$DIMDLI
 40
0.0
  9
$DIMRND
 40
0.0
  9
$DIMDLE
 40
0.0
  9
$DIMEXE
 40
0.125
  9
$DIMTP
 40
0.0
  9
$DIMTM
 40
0.0
  9
$DIMTXT
 40
0.25
  9
$DIMCEN
 40
0.0
  9
$DIMTSZ
 40
0.0
  9
$DIMTOL
 70
     0
  9
$DIMLIM
 70
     0
  9
$DIMTIH
 70
     0
  9
$DIMTOH
 70
     0
  9
$DIMSE1
 70
     0
  9
$DIMSE2
 70
     0
  9
$DIMTAD
 70
     1
  9
$DIMZIN
 70
     2
  9
$DIMBLK
  1
TerminatorOpen
  9
$DIMASO
 70
     1
  9
$DIMSHO
 70
     1
  9
$DIMPOST
  1

  9
$DIMAPOST
  1

  9
$DIMALT
 70
     0
  9
$DIMALTD
 70
     4
  9
$DIMALTF
 40
1.0
  9
$DIMLFAC
 40
1.0
  9
$DIMTOFL
 70
     0
  9
$DIMTVP
 40
0.125
  9
$DIMTIX
 70
     0
  9
$DIMSOXD
 70
     0
  9
$DIMSAH
 70
     0
  9
$DIMBLK1
  1

  9
$DIMBLK2
  1

  9
$DIMSTYLE
  2
Standard
  9
$DIMCLRD
 70
     0
  9
$DIMCLRE
 70
     0
  9
$DIMCLRT
 70
     0
  9
$DIMTFAC
 40
1.0
  9
$DIMGAP
 40
0.125
  9
$DIMJUST
 70
     0
  9
$DIMSD1
 70
     0
  9
$DIMSD2
 70
     0
  9
$DIMTOLJ
 70
     1
  9
$DIMTZIN
 70
     2
  9
$DIMALTZ
 70
    12
  9
$DIMALTTZ
 70
    12
  9
$DIMUPT
 70
     0
  9
$DIMDEC
 70
     4
  9
$DIMTDEC
 70
     4
  9
$DIMALTU
 70
     2
  9
$DIMALTTD
 70
     4
  9
$DIMTXSTY
  7
Standard
  9
$DIMAUNIT
 70
     0
  9
$DIMADEC
 70
     4
  9
$DIMALTRND
 40
0.0
  9
$DIMAZIN
 70
     3
  9
$DIMDSEP
 70
     0
  9
$DIMATFIT
 70
     3
  9
$DIMFRAC
 70
     0
  9
$DIMLDRBLK
  1

  9
$DIMLUNIT
 70
     2
  9
$DIMLWD
 70
    -2
  9
$DIMLWE
 70
    -2
  9
$DIMTMOVE
 70
     0
  9
$DIMFXL
 40
1.0
  9
$DIMFXLON
 70
     0
  9
$DIMJOGANG
 40
0.7853981633974483
  9
$DIMTFILL
 70
     0
  9
$DIMTFILLCLR
 70
     0
  9
$DIMARCSYM
 70
     0
  9
$DIMLTYPE
  6

  9
$DIMLTEX1
  6

  9
$DIMLTEX2
  6

  9
$DIMTXTDIRECTION
 70
     0
  9
$LUNITS
 70
     2
  9
$LUPREC
 70
     4
  9
$SKETCHINC
 40
0.1
  9
$FILLETRAD
 40
0.5
  9
$AUNITS
 70
     0
  9
$AUPREC
 70
     4
  9
$MENU
  1
.
  9
$ELEVATION
 40
0.0
  9
$PELEVATION
 40
0.0
  9
$THICKNESS
 40
0.0
  9
$LIMCHECK
 70
     0
  9
$CHAMFERA
 40
0.5
  9
$CHAMFERB
 40
0.5
  9
$CHAMFERC
 40
1.0
  9
$CHAMFERD
 40
0.0
  9
$SKPOLY
 70
     0
  9
$TDCREATE
 40
2458060.730231482
  9
$TDUCREATE
 40
2458060.730231482
  9
$TDUPDATE
 40
2458399.524583333
  9
$TDUUPDATE
 40
2458399.482916667
  9
$TDINDWG
 40
0.0196529514
  9
$TDUSRTIMER
 40
0.0196527778
  9
$USRTIMER
 70
     1
  9
$ANGBASE
 50
0.0
  9
$ANGDIR
 70
     0
  9
$PDMODE
 70
     0
  9
$PDSIZE
 40
0.0
  9
$PLINEWID
 40
0.0
  9
$SPLFRAME
 70
     0
  9
$SPLINETYPE
 70
     6
  9
$SPLINESEGS
 70
     8
  9
$HANDSEED
  5
1019
  9
$SURFTAB1
 70
     6
  9
$SURFTAB2
 70
     6
  9
$SURFTYPE
 70
     6
  9
$SURFU
 70
     6
  9
$SURFV
 70
     6
  9
$UCSBASE
  2

  9
$UCSNAME
  2

  9
$UCSORG
 10
0.0
 20
0.0
 30
0.0
  9
$UCSXDIR
 10
1.0
 20
0.0
 30
0.0
  9
$UCSYDIR
 10
0.0
 20
1.0
 30
0.0
  9
$UCSORTHOREF
  2

  9
$UCSORTHOVIEW
 70
     0
  9
$UCSORGTOP
 10
0.0
 20
0.0
 30
0.0
  9
$UCSORGBOTTOM
 10
0.0
 20
0.0
 30
0.0
  9
$UCSORGLEFT
 10
0.0
 20
0.0
 30
0.0
  9
$UCSORGRIGHT
 10
0.0
 20
0.0
 30
0.0
  9
$UCSORGFRONT
 10
0.0
 20
0.0
 30
0.0
  9
$UCSORGBACK
 10
0.0
 20
0.0
 30
0.0
  9
$PUCSBASE
  2

  9
$PUCSNAME
  2

  9
$PUCSORG
 10
0.0
 20
0.0
 30
0.0
  9
$PUCSXDIR
 10
1.0
 20
0.0
 30
0.0
  9
$PUCSYDIR
 10
0.0
 20
1.0
 30
0.0
  9
$PUCSORTHOREF
  2

  9
$PUCSORTHOVIEW
 70
     0
  9
$PUCSORGTOP
 10
0.0
 20
0.0
 30
0.0
  9
$PUCSORGBOTTOM
 10
0.0
 20
0.0
 30
0.0
  9
$PUCSORGLEFT
 10
0.0
 20
0.0
 30
0.0
  9
$PUCSORGRIGHT
 10
0.0
 20
0.0
 30
0.0
  9
$PUCSORGFRONT
 10
0.0
 20
0.0
 30
0.0
  9
$PUCSORGBACK
 10
0.0
 20
0.0
 30
0.0
  9
$USERI1
 70
     0
  9
$USERI2
 70
     0
  9
$USERI3
 70
     0
  9
$USERI4
 70
     0
  9
$USERI5
 70
     0
  9
$USERR1
 40
0.0
  9
$USERR2
 40
0.0
  9
$USERR3
 40
0.0
  9
$USERR4
 40
0.0
  9
$USERR5
 40
0.0
  9
$WORLDVIEW
 70
     1
  9
$SHADEDGE
 70
     3
  9
$SHADEDIF
 70
    70
  9
$TILEMODE
 70
     1
  9
$MAXACTVP
 70
    64
  9
$PINSBASE
 10
0.0
 20
0.0
 30
0.0
  9
$PLIMCHECK
 70
     0
  9
$PEXTMIN
 10
1.000000000000000E+20
 20
1.000000000000000E+20
 30
1.000000000000000E+20
  9
$PEXTMAX
 10
-1.000000000000000E+20
 20
-1.000000000000000E+20
 30
-1.000000000000000E+20
  9
$PLIMMIN
 10
-0.1666668268639272
 20
-0.1666666766789955
  9
$PLIMMAX
 10
11.52777724378691
 20
8.097222545954187
  9
$UNITMODE
 70
     0
  9
$VISRETAIN
 70
     1
  9
$PLINEGEN
 70
     0
  9
$PSLTSCALE
 70
     1
  9
$TREEDEPTH
 70
  3020
  9
$CMLSTYLE
  2
STANDARD
  9
$CMLJUST
 70
     0
  9
$CMLSCALE
 40
1.0
  9
$PROXYGRAPHICS
 70
     1
  9
$MEASUREMENT
 70
     0
  9
$CELWEIGHT
370
    -3
  9
$ENDCAPS
280
     0
  9
$JOINSTYLE
280
     0
  9
$LWDISPLAY
290
     1
  9
$INSUNITS
 70
     6
  9
$HYPERLINKBASE
  1

  9
$STYLESHEET
  1

  9
$XEDIT
290
     1
  9
$CEPSNTYPE
380
     0
  9
$PSTYLEMODE
290
     1
  9
$FINGERPRINTGUID
  2
{FDEAD576-A652-11D2-9A35-0060089B3A3F}
  9
$VERSIONGUID
  2
{AA80310B-71C0-564B-9645-227E32B12A12}
  9
$EXTNAMES
290
     1
  9
$PSVPSCALE
 40
0.0
  9
$OLESTARTUP
290
     0
  9
$SORTENTS
280
   127
  9
$INDEXCTL
280
     0
  9
$HIDETEXT
280
     0
  9
$XCLIPFRAME
280
     2
  9
$HALOGAP
280
     0
  9
$OBSCOLOR
 70
   257
  9
$OBSLTYPE
280
     0
  9
$INTERSECTIONDISPLAY
280
     0
  9
$INTERSECTIONCOLOR
 70
   257
  9
$DIMASSOC
280
     1
  9
$PROJECTNAME
  1

  9
$CAMERADISPLAY
290
     0
  9
$LENSLENGTH
 40
50.0
  9
$CAMERAHEIGHT
 40
0.0
  9
$STEPSPERSEC
 40
2.0
  9
$STEPSIZE
 40
6.0
  9
$3DDWFPREC
 40
2.0
  9
$PSOLWIDTH
 40
0.25
  9
$PSOLHEIGHT
 40
4.0
  9
$LOFTANG1
 40
1.570796326794896
  9
$LOFTANG2
 40
1.570796326794896
  9
$LOFTMAG1
 40
0.0
  9
$LOFTMAG2
 40
0.0
  9
$LOFTPARAM
 70
     7
  9
$LOFTNORMALS
280
     1
  9
$LATITUDE
 40
37.795
  9
$LONGITUDE
 40
-122.394
  9
$NORTHDIRECTION
 40
0.0
  9
$TIMEZONE
 70
 -8000
  9
$LIGHTGLYPHDISPLAY
280
     1
  9
$TILEMODELIGHTSYNCH
280
     1
  9
$CMATERIAL
347
56D
  9
$SOLIDHIST
280
     0
  9
$SHOWHIST
280
     1
  9
$DWFFRAME
280
     2
  9
$DGNFRAME
280
     0
  9
$REALWORLDSCALE
290
     1
  9
$INTERFERECOLOR
 62
     1
  9
$INTERFEREOBJVS
345
58F
  9
$INTERFEREVPVS
346
58C
  9
$CSHADOW
280
     0
  9
$SHADOWPLANELOCATION
 40
0.0
  0
ENDSEC
  0
SECTION
  2
CLASSES
  0
CLASS
  1
ACDBDICTIONARYWDFLT
  2
AcDbDictionaryWithDefault
  3
ObjectDBX Classes
 90
        0
 91
        1
280
     0
281
     0
  0
CLASS
  1
IMAGE
  2
AcDbRasterImage
  3
ISM
 90
     2175
 91
        0
280
     0
281
     1
  0
CLASS
  1
DICTIONARYVAR
  2
AcDbDictionaryVar
  3
ObjectDBX Classes
 90
        0
 91
        9
280
     0
281
     0
  0
CLASS
  1
RASTERVARIABLES
  2
AcDbRasterVariables
  3
ISM
 90
        0
 91
        0
280
     0
281
     0
  0
CLASS
  1
IMAGEDEF
  2
AcDbRasterImageDef
  3
ISM
 90
        0
 91
        0
280
     0
281
     0
  0
CLASS
  1
IMAGEDEF_REACTOR
  2
AcDbRasterImageDefReactor
  3
ISM
 90
        1
 91
        0
280
     0
281
     0
  0
CLASS
  1
IDBUFFER
  2
AcDbIdBuffer
  3
ObjectDBX Classes
 90
        0
 91
        0
280
     0
281
     0
  0
CLASS
  1
SPATIAL_FILTER
  2
AcDbSpatialFilter
  3
ObjectDBX Classes
 90
        0
 91
        0
280
     0
281
     0
  0
CLASS
  1
SORTENTSTABLE
  2
AcDbSortentsTable
  3
ObjectDBX Classes
 90
        0
 91
        3
280
     0
281
     0
  0
CLASS
  1
LAYER_INDEX
  2
AcDbLayerIndex
  3
ObjectDBX Classes
 90
        0
 91
        0
280
     0
281
     0
  0
CLASS
  1
SPATIAL_INDEX
  2
AcDbSpatialIndex
  3
ObjectDBX Classes
 90
        0
 91
        0
280
     0
281
     0
  0
CLASS
  1
OBJECT_PTR
  2
CAseDLPNTableRecord
  3
"ASE-LPNTableRecord"
 90
        1
 91
        0
280
     0
281
     0
  0
CLASS
  1
PLOTSETTINGS
  2
AcDbPlotSettings
  3
ObjectDBX Classes
 90
        0
 91
        0
280
     0
281
     0
  0
CLASS
  1
WIPEOUT
  2
AcDbWipeout
  3
WipeOut|Product Desc: Object Enabler for WipeOut entity | Company: Autodesk, Inc. | WEB Address: www.autodesk.com
 90
     2175
 91
        0
280
     0
281
     1
  0
CLASS
  1
WIPEOUTVARIABLES
  2
AcDbWipeoutVariables
  3
"WipeOut|Product Desc:     WipeOut Dbx Application|Company:          Autodesk, Inc.|WEB Address:      www.autodesk.com"
 90
        0
 91
        0
280
     0
281
     0
  0
CLASS
  1
RTEXT
  2
RText
  3
RText|AutoCAD Express Tool|expresstools@autodesk.com
 90
     3071
 91
        0
280
     0
281
     1
  0
CLASS
  1
ARCALIGNEDTEXT
  2
AcDbArcAlignedText
  3
ATEXT|AutoCAD Express Tool|expresstools@autodesk.com
 90
        0
 91
        0
280
     0
281
     1
  0
CLASS
  1
MATERIAL
  2
AcDbMaterial
  3
ObjectDBX Classes
 90
     1153
 91
        3
280
     0
281
     0
  0
CLASS
  1
VISUALSTYLE
  2
AcDbVisualStyle
  3
ObjectDBX Classes
 90
     4095
 91
       24
280
     0
281
     0
  0
CLASS
  1
TABLESTYLE
  2
AcDbTableStyle
  3
ObjectDBX Classes
 90
     4095
 91
        1
280
     0
281
     0
  0
CLASS
  1
SCALE
  2
AcDbScale
  3
ObjectDBX Classes
 90
     1153
 91
       17
280
     0
281
     0
  0
CLASS
  1
MLEADERSTYLE
  2
AcDbMLeaderStyle
  3
ACDB_MLEADERSTYLE_CLASS
 90
     4095
 91
        1
280
     0
281
     0
  0
CLASS
  1
ACDBSECTIONVIEWSTYLE
  2
AcDbSectionViewStyle
  3
ObjectDBX Classes
 90
     1025
 91
        1
280
     0
281
     0
  0
CLASS
  1
ACDBDETAILVIEWSTYLE
  2
AcDbDetailViewStyle
  3
ObjectDBX Classes
 90
     1025
 91
        1
280
     0
281
     0
  0
CLASS
  1
CELLSTYLEMAP
  2
AcDbCellStyleMap
  3
ObjectDBX Classes
 90
     1152
 91
        2
280
     0
281
     0
  0
ENDSEC
  0
SECTION
  2
TABLES
  0
TABLE
  2
VPORT
  5
520
330
0
100
AcDbSymbolTable
 70
     1
1001
ACAD
1000
DbSaveVer
1071
       30
  0
VPORT
  5
4B
330
520
100
AcDbSymbolTableRecord
100
AcDbViewportTableRecord
  2
*ACTIVE
 70
     0
 10
0.0
 20
0.0
 11
1.0
 21
1.0
 12
3.199619221998939
 22
6.212345605117763
 13
0.0
 23
0.0
 14
0.1
 24
0.1
 15
0.1
 25
0.1
 16
0.0
 26
0.0
 36
1.0
 17
0.0
 27
0.0
 37
0.0
 40
5.156903134742627
 41
1.269377382465057
 42
50.0
 43
0.0
 44
0.0
 50
0.0
 51
0.0
 71
     0
 72
   100
 73
     1
 74
     2
 75
     0
 76
     1
 77
     0
 78
     1
281
     0
 65
     1
110
0.0
120
0.0
130
0.0
111
1.0
121
0.0
131
0.0
112
0.0
122
1.0
132
0.0
 79
     0
146
0.0
348
58B
 60
     3
 61
     5
292
     1
282
     1
141
0.0
142
0.0
 63
   250
421
  3355443
1001
ACAD_NAV_VCDISPLAY
1070
     3
  0
ENDTAB
  0
TABLE
  2
LTYPE
  5
51D
330
0
100
AcDbSymbolTable
 70
     2
  0
LTYPE
  5
52C
330
51D
100
AcDbSymbolTableRecord
100
AcDbLinetypeTableRecord
  2
ByBlock
 70
     0
  3

 72
    65
 73
     0
 40
0.0
  0
LTYPE
  5
52D
330
51D
100
AcDbSymbolTableRecord
100
AcDbLinetypeTableRecord
  2
ByLayer
 70
     0
  3

 72
    65
 73
     0
 40
0.0
  0
LTYPE
  5
52E
330
51D
100
AcDbSymbolTableRecord
100
AcDbLinetypeTableRecord
  2
Continuous
 70
     0
  3
Solid line
 72
    65
 73
     0
 40
0.0
  0
ENDTAB
  0
TABLE
  2
LAYER
  5
51A
102
{ACAD_XDICTIONARY
360
5C3
102
}
330
0
100
AcDbSymbolTable
 70
    10
  0
LAYER
  5
6
102
{ACAD_XDICTIONARY
360
5D5
102
}
330
51A
100
AcDbSymbolTableRecord
100
AcDbLayerTableRecord
  2
0
 70
     0
 62
     2
  6
Continuous
370
     0
390
527
347
57D
348
0
  0
LAYER
  5
293
102
{ACAD_XDICTIONARY
360
5D7
102
}
330
51A
100
AcDbSymbolTableRecord
100
AcDbLayerTableRecord
  2
Image
 70
     0
 62
     7
  6
Continuous
370
     0
390
527
347
57D
348
0
  0
LAYER
  5
5F9
330
51A
100
AcDbSymbolTableRecord
100
AcDbLayerTableRecord
  2
@_poly-acc-gallery1
 70
     0
 62
     3
  6
Continuous
370
     0
390
527
347
57D
348
0
1001
AcAecLayerStandard
1000

1000

1001
AcCmTransparency
1071
        0
  0
LAYER
  5
5FC
330
51A
100
AcDbSymbolTableRecord
100
AcDbLayerTableRecord
  2
@_poly-acc-gallery2
 70
     0
 62
     4
  6
Continuous
370
     0
390
527
347
57D
348
0
1001
AcAecLayerStandard
1000

1000

1001
AcCmTransparency
1071
        0
  0
LAYER
  5
9FA
330
51A
100
AcDbSymbolTableRecord
100
AcDbLayerTableRecord
  2
@_line-gallery
 70
     0
 62
     2
  6
Continuous
370
     0
390
527
347
57D
348
0
1001
AcAecLayerStandard
1000

1000

1001
AcCmTransparency
1071
        0
  0
LAYER
  5
E06
330
51A
100
AcDbSymbolTableRecord
100
AcDbLayerTableRecord
  2
@_text-acc-gallery1
 70
     0
 62
     3
  6
Continuous
370
     0
390
527
347
57D
348
0
1001
AcAecLayerStandard
1000

1000

1001
AcCmTransparency
1071
        0
  0
LAYER
  5
E07
330
51A
100
AcDbSymbolTableRecord
100
AcDbLayerTableRecord
  2
@_text-acc-gallery2
 70
     0
 62
     4
  6
Continuous
370
     0
390
527
347
57D
348
0
1001
AcAecLayerStandard
1000

1000

1001
AcCmTransparency
1071
        0
  0
LAYER
  5
E08
330
51A
100
AcDbSymbolTableRecord
100
AcDbLayerTableRecord
  2
@_text-info
 70
     0
 62
     6
  6
Continuous
370
     0
390
527
347
57D
348
0
1001
AcAecLayerStandard
1000

1000

1001
AcCmTransparency
1071
        0
  0
LAYER
  5
E09
330
51A
100
AcDbSymbolTableRecord
100
AcDbLayerTableRecord
  2
@_point-infopoints
 70
     0
 62
     5
  6
Continuous
370
     0
390
527
347
57D
348
0
1001
AcAecLayerStandard
1000

1000

1001
AcCmTransparency
1071
        0
  0
ENDTAB
  0
TABLE
  2
STYLE
  5
51B
330
0
100
AcDbSymbolTable
 70
     1
  0
STYLE
  5
529
330
51B
100
AcDbSymbolTableRecord
100
AcDbTextStyleTableRecord
  2
Standard
 70
     0
 40
0.0
 41
1.0
 50
0.0
 71
     0
 42
0.2
  3
txt
  4

  0
ENDTAB
  0
TABLE
  2
VIEW
  5
51E
330
0
100
AcDbSymbolTable
 70
     1
  0
ENDTAB
  0
TABLE
  2
UCS
  5
51F
330
0
100
AcDbSymbolTable
 70
     0
  0
ENDTAB
  0
TABLE
  2
APPID
  5
521
330
0
100
AcDbSymbolTable
 70
     6
  0
APPID
  5
52A
330
521
100
AcDbSymbolTableRecord
100
AcDbRegAppTableRecord
  2
ACAD
 70
     0
  0
APPID
  5
5CA
330
521
100
AcDbSymbolTableRecord
100
AcDbRegAppTableRecord
  2
ACAD_NAV_VCDISPLAY
 70
     0
  0
APPID
  5
5D0
330
521
100
AcDbSymbolTableRecord
100
AcDbRegAppTableRecord
  2
ACAD_PSEXT
 70
     0
  0
APPID
  5
5FA
330
521
100
AcDbSymbolTableRecord
100
AcDbRegAppTableRecord
  2
AcAecLayerStandard
 70
     0
  0
APPID
  5
5FB
330
521
100
AcDbSymbolTableRecord
100
AcDbRegAppTableRecord
  2
AcCmTransparency
 70
     0
  0
APPID
  5
DF7
330
521
100
AcDbSymbolTableRecord
100
AcDbRegAppTableRecord
  2
ACAD_EXEMPT_FROM_CAD_STANDARDS
 70
     0
  0
ENDTAB
  0
TABLE
  2
DIMSTYLE
  5
522
330
0
100
AcDbSymbolTable
 70
     1
100
AcDbDimStyleTable
 71
     0
  0
DIMSTYLE
105
2
330
522
100
AcDbSymbolTableRecord
100
AcDbDimStyleTableRecord
  2
Standard
 70
     0
 41
0.25
 42
0.125
 43
0.0
 44
0.125
 73
     0
 74
     0
 77
     1
 78
     2
 79
     3
140
0.25
141
0.0
143
1.0
145
0.125
147
0.125
171
     4
179
     4
274
     4
278
     0
284
     2
285
    12
286
    12
340
529
342
562
  0
ENDTAB
  0
TABLE
  2
BLOCK_RECORD
  5
519
330
0
100
AcDbSymbolTable
 70
     3
  0
BLOCK_RECORD
  5
518
102
{ACAD_XDICTIONARY
360
9F7
102
}
330
519
100
AcDbSymbolTableRecord
100
AcDbBlockTableRecord
  2
*MODEL_SPACE
340
4A
 70
     0
280
     1
281
     0
  0
BLOCK_RECORD
  5
5BC
330
519
100
AcDbSymbolTableRecord
100
AcDbBlockTableRecord
  2
*Paper_Space
340
5BD
 70
     0
280
     1
281
     0
  0
BLOCK_RECORD
  5
562
330
519
100
AcDbSymbolTableRecord
100
AcDbBlockTableRecord
  2
TerminatorOpen
340
0
 70
     0
280
     1
281
     0
  0
BLOCK_RECORD
  5
568
330
519
100
AcDbSymbolTableRecord
100
AcDbBlockTableRecord
  2
*PAPER_SPACE1
340
569
 70
     0
280
     1
281
     0
  0
BLOCK_RECORD
  5
5FD
102
{ACAD_XDICTIONARY
360
100E
102
}
330
519
100
AcDbSymbolTableRecord
100
AcDbBlockTableRecord
  2
@_floor1
340
0
102
{BLKREFS
331
602
102
}
 70
     6
280
     1
281
     0
  0
ENDTAB
  0
ENDSEC
  0
SECTION
  2
BLOCKS
  0
BLOCK
  5
538
330
518
100
AcDbEntity
  8
0
100
AcDbBlockBegin
  2
*MODEL_SPACE
 70
     0
 10
0.0
 20
0.0
 30
0.0
  3
*MODEL_SPACE
  1

  0
ENDBLK
  5
539
330
518
100
AcDbEntity
  8
0
100
AcDbBlockEnd
  0
BLOCK
  5
5BE
330
5BC
100
AcDbEntity
 67
     1
  8
0
 62
     7
370
    -3
100
AcDbBlockBegin
  2
*Paper_Space
 70
     0
 10
0.0
 20
0.0
 30
0.0
  3
*Paper_Space
  1

  0
ENDBLK
  5
5BF
330
5BC
100
AcDbEntity
 67
     1
  8
0
 62
     7
370
    -3
100
AcDbBlockEnd
  0
BLOCK
  5
563
330
562
100
AcDbEntity
  8
0
  6
Continuous
 62
     0
370
    -2
100
AcDbBlockBegin
  2
TerminatorOpen
 70
     0
 10
0.0
 20
0.0
 30
0.0
  3
TerminatorOpen
  1

  0
LINE
  5
564
330
562
100
AcDbEntity
  8
0
  6
Continuous
 62
     0
370
    -2
100
AcDbLine
 10
0.0
 20
0.0
 30
0.0
 11
-1.0
 21
0.0
 31
0.0
  0
LINE
  5
565
330
562
100
AcDbEntity
  8
0
  6
Continuous
 62
     0
370
    -2
100
AcDbLine
 10
0.0
 20
0.0
 30
0.0
 11
-1.0
 21
0.25
 31
0.0
  0
LINE
  5
566
330
562
100
AcDbEntity
  8
0
  6
Continuous
 62
     0
370
    -2
100
AcDbLine
 10
0.0
 20
0.0
 30
0.0
 11
-1.0
 21
-0.25
 31
0.0
  0
ENDBLK
  5
567
330
562
100
AcDbEntity
  8
0
  6
Continuous
 62
     0
370
    -2
100
AcDbBlockEnd
  0
BLOCK
  5
534
330
568
100
AcDbEntity
 67
     1
  8
0
100
AcDbBlockBegin
  2
*PAPER_SPACE1
 70
     0
 10
0.0
 20
0.0
 30
0.0
  3
*PAPER_SPACE1
  1

  0
ENDBLK
  5
535
330
568
100
AcDbEntity
 67
     1
  8
0
100
AcDbBlockEnd
  0
BLOCK
  5
5FE
330
5FD
100
AcDbEntity
  8
0
 62
     7
370
    -3
100
AcDbBlockBegin
  2
@_floor1
 70
     0
 10
0.0
 20
0.0
 30
0.0
  3
@_floor1
  1

  0
LWPOLYLINE
  5
600
330
5FD
100
AcDbEntity
  8
@_poly-acc-gallery2
 62
     7
370
    -3
100
AcDbPolyline
 90
        4
 70
     1
 43
0.0
 10
2.67147
 20
6.865889999999997
 10
3.449501
 20
6.865889999999997
 10
3.449501
 20
6.499698999999997
 10
2.67147
 20
6.499698999999997
  0
LWPOLYLINE
  5
601
330
5FD
100
AcDbEntity
  8
@_poly-acc-gallery1
 62
     7
370
    -3
100
AcDbPolyline
 90
        4
 70
     1
 43
0.0
 10
0.8973459999999999
 20
5.096047
 10
1.453427
 20
5.096047
 10
1.453427
 20
5.496596
 10
0.8973459999999999
 20
5.496596
  0
LINE
  5
60F
330
5FD
100
AcDbEntity
  8
@_line-gallery
  6
Continuous
370
    -3
100
AcDbLine
 10
0.8973459999999999
 20
5.496596
 30
0.0
 11
0.8973459999999999
 21
5.096047
 31
0.0
  0
LINE
  5
610
330
5FD
100
AcDbEntity
  8
@_line-gallery
  6
Continuous
370
    -3
100
AcDbLine
 10
0.8973459999999999
 20
5.096047
 30
0.0
 11
1.393770999999999
 21
5.096047
 31
0.0
  0
LINE
  5
611
330
5FD
100
AcDbEntity
  8
@_line-gallery
  6
Continuous
370
    -3
100
AcDbLine
 10
1.453427
 20
5.079002
 30
0.0
 11
1.453427
 21
5.177674999999998
 31
0.0
  0
LINE
  5
612
330
5FD
100
AcDbEntity
  8
@_line-gallery
  6
Continuous
370
    -3
100
AcDbLine
 10
1.453427
 20
5.496596
 30
0.0
 11
1.214617
 21
5.496596
 31
0.0
  0
LINE
  5
613
330
5FD
100
AcDbEntity
  8
@_line-gallery
  6
Continuous
370
    -3
100
AcDbLine
 10
1.393770999999999
 20
5.096047
 30
0.0
 11
1.393770999999999
 21
4.919208999999998
 31
0.0
  0
LINE
  5
614
330
5FD
100
AcDbEntity
  8
@_line-gallery
  6
Continuous
370
    -3
100
AcDbLine
 10
1.393770999999999
 20
4.919208999999998
 30
0.0
 11
1.568479
 21
4.919208999999998
 31
0.0
  0
LINE
  5
615
330
5FD
100
AcDbEntity
  8
@_line-gallery
  6
Continuous
370
    -3
100
AcDbLine
 10
1.568479
 20
4.919208999999998
 30
0.0
 11
1.568479
 21
5.177674999999998
 31
0.0
  0
LINE
  5
616
330
5FD
100
AcDbEntity
  8
@_line-gallery
  6
Continuous
370
    -3
100
AcDbLine
 10
1.568479
 20
5.264362999999998
 30
0.0
 11
1.472603
 21
5.264362999999998
 31
0.0
  0
LINE
  5
617
330
5FD
100
AcDbEntity
  8
@_line-gallery
  6
Continuous
370
    -3
100
AcDbLine
 10
1.472603
 20
5.264362999999998
 30
0.0
 11
1.472603
 21
5.235732999999997
 31
0.0
  0
LINE
  5
618
330
5FD
100
AcDbEntity
  8
@_line-gallery
  6
Continuous
370
    -3
100
AcDbLine
 10
1.472603
 20
5.102437999999998
 30
0.0
 11
1.527998
 21
5.102437999999998
 31
0.0
  0
LINE
  5
619
330
5FD
100
AcDbEntity
  8
@_line-gallery
  6
Continuous
370
    -3
100
AcDbLine
 10
1.527998
 20
5.102437999999998
 30
0.0
 11
1.527998
 21
5.079002
 31
0.0
  0
LINE
  5
61A
330
5FD
100
AcDbEntity
  8
@_line-gallery
  6
Continuous
370
    -3
100
AcDbLine
 10
1.527998
 20
5.079002
 30
0.0
 11
1.453427
 21
5.079002
 31
0.0
  0
LINE
  5
61B
330
5FD
100
AcDbEntity
  8
@_line-gallery
  6
Continuous
370
    -3
100
AcDbLine
 10
1.472603
 20
5.235732999999997
 30
0.0
 11
1.453427
 21
5.235732999999997
 31
0.0
  0
LINE
  5
61C
330
5FD
100
AcDbEntity
  8
@_line-gallery
  6
Continuous
370
    -3
100
AcDbLine
 10
1.472603
 20
5.177674999999998
 30
0.0
 11
1.453427
 21
5.177674999999998
 31
0.0
  0
LINE
  5
61D
330
5FD
100
AcDbEntity
  8
@_line-gallery
  6
Continuous
370
    -3
100
AcDbLine
 10
1.453427
 20
5.235732999999997
 30
0.0
 11
1.453427
 21
5.496596
 31
0.0
  0
LINE
  5
61E
330
5FD
100
AcDbEntity
  8
@_line-gallery
  6
Continuous
370
    -3
100
AcDbLine
 10
1.472603
 20
5.177674999999998
 30
0.0
 11
1.472603
 21
5.102437999999998
 31
0.0
  0
LWPOLYLINE
  5
61F
330
5FD
100
AcDbEntity
  8
@_line-gallery
  6
Continuous
370
    -3
100
AcDbPolyline
 90
        4
 70
     1
 43
0.0
 10
2.210849
 20
4.973271999999997
 10
2.210849
 20
4.973271999999997
 10
2.210849
 20
4.973271999999997
 10
2.210849
 20
4.973271999999997
  0
LINE
  5
620
330
5FD
100
AcDbEntity
  8
@_line-gallery
  6
Continuous
370
    -3
100
AcDbLine
 10
1.568479
 20
5.235732999999997
 30
0.0
 11
1.587654
 21
5.235732999999997
 31
0.0
  0
LINE
  5
621
330
5FD
100
AcDbEntity
  8
@_line-gallery
  6
Continuous
370
    -3
100
AcDbLine
 10
1.568479
 20
5.177674999999998
 30
0.0
 11
1.587654
 21
5.177674999999998
 31
0.0
  0
LINE
  5
622
330
5FD
100
AcDbEntity
  8
@_line-gallery
  6
Continuous
370
    -3
100
AcDbLine
 10
1.914697999999999
 20
5.235732999999997
 30
0.0
 11
1.947722
 21
5.235732999999997
 31
0.0
  0
LINE
  5
623
330
5FD
100
AcDbEntity
  8
@_line-gallery
  6
Continuous
370
    -3
100
AcDbLine
 10
1.568479
 20
5.235732999999997
 30
0.0
 11
1.568479
 21
5.264362999999998
 31
0.0
  0
LINE
  5
624
330
5FD
100
AcDbEntity
  8
@_line-gallery
  6
Continuous
370
    -3
100
AcDbLine
 10
1.587118
 20
5.235732999999997
 30
0.0
 11
1.587903
 21
5.235732999999997
 31
0.0
  0
LWPOLYLINE
  5
625
330
5FD
100
AcDbEntity
  8
@_line-gallery
  6
Continuous
370
    -3
100
AcDbPolyline
 90
        4
 70
     0
 43
0.0
 10
1.587654
 20
5.235732999999997
 10
1.587654
 20
5.44413
 10
1.914697999999999
 20
5.44413
 10
1.914697999999999
 20
5.235732999999997
  0
LINE
  5
626
330
5FD
100
AcDbEntity
  8
@_line-gallery
  6
Continuous
370
    -3
100
AcDbLine
 10
1.914697999999999
 20
5.177674999999998
 30
0.0
 11
1.947722
 21
5.177674999999998
 31
0.0
  0
LINE
  5
627
330
5FD
100
AcDbEntity
  8
@_line-gallery
  6
Continuous
370
    -3
100
AcDbLine
 10
2.210849
 20
5.235732999999997
 30
0.0
 11
2.248133999999998
 21
5.235732999999997
 31
0.0
  0
LINE
  5
628
330
5FD
100
AcDbEntity
  8
@_line-gallery
  6
Continuous
370
    -3
100
AcDbLine
 10
2.210849
 20
5.177674999999998
 30
0.0
 11
2.248133999999998
 21
5.177674999999998
 31
0.0
  0
LWPOLYLINE
  5
629
330
5FD
100
AcDbEntity
  8
@_line-gallery
  6
Continuous
370
    -3
100
AcDbPolyline
 90
        4
 70
     0
 43
0.0
 10
2.210849
 20
5.177674999999998
 10
2.210849
 20
4.973271999999997
 10
1.947722
 20
4.973271999999997
 10
1.947722
 20
5.177674999999998
  0
LWPOLYLINE
  5
62A
330
5FD
100
AcDbEntity
  8
@_line-gallery
  6
Continuous
370
    -3
100
AcDbPolyline
 90
        3
 70
     0
 43
0.0
 10
1.947722
 20
5.235732999999997
 10
1.947722
 20
5.456914
 10
2.050577999999998
 20
5.456914
  0
LWPOLYLINE
  5
62B
330
5FD
100
AcDbEntity
  8
@_line-gallery
  6
Continuous
370
    -3
100
AcDbPolyline
 90
        4
 70
     0
 43
0.0
 10
1.914697999999999
 20
5.177674999999998
 10
1.914697999999999
 20
4.973271999999997
 10
1.587654
 20
4.973271999999997
 10
1.587654
 20
5.177674999999998
  0
LWPOLYLINE
  5
62C
330
5FD
100
AcDbEntity
  8
@_line-gallery
  6
Continuous
370
    -3
100
AcDbPolyline
 90
        4
 70
     0
 43
0.0
 10
2.248133999999998
 20
5.235732999999997
 10
2.248133999999998
 20
5.44413
 10
2.552807
 20
5.44413
 10
2.552807
 20
5.340262999999998
  0
LINE
  5
62D
330
5FD
100
AcDbEntity
  8
@_line-gallery
  6
Continuous
370
    -3
100
AcDbLine
 10
3.541391999999998
 20
5.44413
 30
0.0
 11
3.869697
 21
5.44413
 31
0.0
  0
LINE
  5
62E
330
5FD
100
AcDbEntity
  8
@_line-gallery
  6
Continuous
370
    -3
100
AcDbLine
 10
2.581479
 20
5.133570999999998
 30
0.0
 11
2.581479
 21
4.909673999999998
 31
0.0
  0
LINE
  5
62F
330
5FD
100
AcDbEntity
  8
@_line-gallery
  6
Continuous
370
    -3
100
AcDbLine
 10
2.581479
 20
4.909673999999998
 30
0.0
 11
2.907386999999998
 21
4.909673999999998
 31
0.0
  0
LINE
  5
630
330
5FD
100
AcDbEntity
  8
@_line-gallery
  6
Continuous
370
    -3
100
AcDbLine
 10
2.699643999999998
 20
5.155383
 30
0.0
 11
2.699643999999998
 21
5.273177999999997
 31
0.0
  0
LINE
  5
631
330
5FD
100
AcDbEntity
  8
@_line-gallery
  6
Continuous
370
    -3
100
AcDbLine
 10
3.404884999999998
 20
5.44413
 30
0.0
 11
3.404884999999998
 21
5.340262999999998
 31
0.0
  0
LINE
  5
632
330
5FD
100
AcDbEntity
  8
@_line-gallery
  6
Continuous
370
    -3
100
AcDbLine
 10
2.927222
 20
4.909673999999998
 30
0.0
 11
2.927222
 21
5.133570999999998
 31
0.0
  0
LINE
  5
633
330
5FD
100
AcDbEntity
  8
@_line-gallery
  6
Continuous
370
    -3
100
AcDbLine
 10
3.177306999999998
 20
4.909673999999998
 30
0.0
 11
3.177306999999998
 21
5.133570999999998
 31
0.0
  0
LINE
  5
634
330
5FD
100
AcDbEntity
  8
@_line-gallery
  6
Continuous
370
    -3
100
AcDbLine
 10
2.859698999999998
 20
5.654929
 30
0.0
 11
2.927222
 21
5.654929
 31
0.0
  0
LINE
  5
635
330
5FD
100
AcDbEntity
  8
@_line-gallery
  6
Continuous
370
    -3
100
AcDbLine
 10
3.541391999999998
 20
5.44413
 30
0.0
 11
3.541391999999998
 21
5.340262999999998
 31
0.0
  0
LINE
  5
636
330
5FD
100
AcDbEntity
  8
@_line-gallery
  6
Continuous
370
    -3
100
AcDbLine
 10
3.541391999999998
 20
4.971473999999997
 30
0.0
 11
3.869697
 21
4.971473999999997
 31
0.0
  0
LINE
  5
637
330
5FD
100
AcDbEntity
  8
@_line-gallery
  6
Continuous
370
    -3
100
AcDbLine
 10
4.543783
 20
4.971473999999997
 30
0.0
 11
4.543783
 21
5.174494999999998
 31
0.0
  0
LINE
  5
638
330
5FD
100
AcDbEntity
  8
@_line-gallery
  6
Continuous
370
    -3
100
AcDbLine
 10
4.214229
 20
5.44413
 30
0.0
 11
4.214229
 21
5.246368
 31
0.0
  0
LINE
  5
639
330
5FD
100
AcDbEntity
  8
@_line-gallery
  6
Continuous
370
    -3
100
AcDbLine
 10
4.186766999999997
 20
4.971473999999997
 30
0.0
 11
4.186766999999997
 21
5.174494999999998
 31
0.0
  0
LINE
  5
63A
330
5FD
100
AcDbEntity
  8
@_line-gallery
  6
Continuous
370
    -3
100
AcDbLine
 10
3.885924999999998
 20
5.454234999999997
 30
0.0
 11
3.885924999999998
 21
5.246368
 31
0.0
  0
LINE
  5
63B
330
5FD
100
AcDbEntity
  8
@_line-gallery
  6
Continuous
370
    -3
100
AcDbLine
 10
3.869697
 20
4.971473999999997
 30
0.0
 11
3.869697
 21
5.174494999999998
 31
0.0
  0
LINE
  5
63C
330
5FD
100
AcDbEntity
  8
@_line-gallery
  6
Continuous
370
    -3
100
AcDbLine
 10
3.521799999999998
 20
5.133570999999998
 30
0.0
 11
3.521799999999998
 21
5.107412999999998
 31
0.0
  0
LINE
  5
63D
330
5FD
100
AcDbEntity
  8
@_line-gallery
  6
Continuous
370
    -3
100
AcDbLine
 10
4.676102999999998
 20
5.092559999999997
 30
0.0
 11
4.613071999999998
 21
5.092559999999997
 31
0.0
  0
LINE
  5
63E
330
5FD
100
AcDbEntity
  8
@_line-gallery
  6
Continuous
370
    -3
100
AcDbLine
 10
4.613071999999998
 20
5.092559999999997
 30
0.0
 11
4.613071999999998
 21
5.116278
 31
0.0
  0
LINE
  5
63F
330
5FD
100
AcDbEntity
  8
@_line-gallery
  6
Continuous
370
    -3
100
AcDbLine
 10
3.024554
 20
6.899961
 30
0.0
 11
3.024554
 21
6.865889999999997
 31
0.0
  0
LINE
  5
640
330
5FD
100
AcDbEntity
  8
@_line-gallery
  6
Continuous
370
    -3
100
AcDbLine
 10
3.090943
 20
6.899961
 30
0.0
 11
3.090943
 21
6.865889999999997
 31
0.0
  0
LINE
  5
641
330
5FD
100
AcDbEntity
  8
@_line-gallery
  6
Continuous
370
    -3
100
AcDbLine
 10
1.42334
 20
6.716422
 30
0.0
 11
1.506941
 21
6.716422
 31
0.0
  0
LINE
  5
642
330
5FD
100
AcDbEntity
  8
@_line-gallery
  6
Continuous
370
    -3
100
AcDbLine
 10
1.432172
 20
6.645997999999997
 30
0.0
 11
1.506941
 21
6.645997999999997
 31
0.0
  0
LINE
  5
643
330
5FD
100
AcDbEntity
  8
@_line-gallery
  6
Continuous
370
    -3
100
AcDbLine
 10
0.6511700000000003
 20
7.52656
 30
0.0
 11
0.6511700000000003
 21
7.303872
 31
0.0
  0
LINE
  5
644
330
5FD
100
AcDbEntity
  8
@_line-gallery
  6
Continuous
370
    -3
100
AcDbLine
 10
0.6511700000000003
 20
7.035305999999997
 30
0.0
 11
1.139782999999997
 21
7.035305999999997
 31
0.0
  0
LINE
  5
645
330
5FD
100
AcDbEntity
  8
@_line-gallery
  6
Continuous
370
    -3
100
AcDbLine
 10
2.180502999999998
 20
7.035305999999997
 30
0.0
 11
2.180502999999998
 21
7.259110999999997
 31
0.0
  0
LINE
  5
646
330
5FD
100
AcDbEntity
  8
@_line-gallery
  6
Continuous
370
    -3
100
AcDbLine
 10
2.180502999999998
 20
7.259110999999997
 30
0.0
 11
1.978208
 21
7.259110999999997
 31
0.0
  0
LINE
  5
647
330
5FD
100
AcDbEntity
  8
@_line-gallery
  6
Continuous
370
    -3
100
AcDbLine
 10
0.6511700000000003
 20
7.303872
 30
0.0
 11
0.729544
 21
7.303872
 31
0.0
  0
LINE
  5
648
330
5FD
100
AcDbEntity
  8
@_line-gallery
  6
Continuous
370
    -3
100
AcDbLine
 10
1.934619999999999
 20
7.035305999999997
 30
0.0
 11
1.934619999999999
 21
7.118653999999997
 31
0.0
  0
LINE
  5
649
330
5FD
100
AcDbEntity
  8
@_line-gallery
  6
Continuous
370
    -3
100
AcDbLine
 10
1.978208
 20
7.259110999999997
 30
0.0
 11
1.978208
 21
7.169933
 31
0.0
  0
LINE
  5
64A
330
5FD
100
AcDbEntity
  8
@_line-gallery
  6
Continuous
370
    -3
100
AcDbLine
 10
1.447461999999999
 20
7.01353
 30
0.0
 11
1.685913
 21
7.01353
 31
0.0
  0
LINE
  5
64B
330
5FD
100
AcDbEntity
  8
@_line-gallery
  6
Continuous
370
    -3
100
AcDbLine
 10
2.178199
 20
7.01353
 30
0.0
 11
2.178199
 21
6.869946
 31
0.0
  0
LINE
  5
64C
330
5FD
100
AcDbEntity
  8
@_line-gallery
  6
Continuous
370
    -3
100
AcDbLine
 10
2.178199
 20
6.869946
 30
0.0
 11
2.108791999999998
 21
6.869946
 31
0.0
  0
LINE
  5
64D
330
5FD
100
AcDbEntity
  8
@_line-gallery
  6
Continuous
370
    -3
100
AcDbLine
 10
1.447461999999999
 20
6.869946
 30
0.0
 11
1.447461999999999
 21
6.921225999999997
 31
0.0
  0
LINE
  5
64E
330
5FD
100
AcDbEntity
  8
@_line-gallery
  6
Continuous
370
    -3
100
AcDbLine
 10
1.978208
 20
6.967378
 30
0.0
 11
1.950004
 21
6.967378
 31
0.0
  0
LINE
  5
64F
330
5FD
100
AcDbEntity
  8
@_line-gallery
  6
Continuous
370
    -3
100
AcDbLine
 10
1.978208
 20
6.921225999999997
 30
0.0
 11
1.950004
 21
6.921225999999997
 31
0.0
  0
LINE
  5
650
330
5FD
100
AcDbEntity
  8
@_line-gallery
  6
Continuous
370
    -3
100
AcDbLine
 10
1.685913
 20
6.869946
 30
0.0
 11
1.685913
 21
6.921225999999997
 31
0.0
  0
LINE
  5
651
330
5FD
100
AcDbEntity
  8
@_line-gallery
  6
Continuous
370
    -3
100
AcDbLine
 10
1.708988999999999
 20
6.869946
 30
0.0
 11
1.708988999999999
 21
6.921225999999997
 31
0.0
  0
LINE
  5
652
330
5FD
100
AcDbEntity
  8
@_line-gallery
  6
Continuous
370
    -3
100
AcDbLine
 10
1.950004
 20
6.869946
 30
0.0
 11
1.950004
 21
6.921225999999997
 31
0.0
  0
LINE
  5
653
330
5FD
100
AcDbEntity
  8
@_line-gallery
  6
Continuous
370
    -3
100
AcDbLine
 10
1.978208
 20
6.869946
 30
0.0
 11
1.978208
 21
6.921225999999997
 31
0.0
  0
LINE
  5
654
330
5FD
100
AcDbEntity
  8
@_line-gallery
  6
Continuous
370
    -3
100
AcDbLine
 10
1.175679
 20
7.035305999999997
 30
0.0
 11
1.175679
 21
7.118653999999997
 31
0.0
  0
LINE
  5
655
330
5FD
100
AcDbEntity
  8
@_line-gallery
  6
Continuous
370
    -3
100
AcDbLine
 10
1.415836999999999
 20
7.035305999999997
 30
0.0
 11
1.415836999999999
 21
7.118653999999997
 31
0.0
  0
LINE
  5
656
330
5FD
100
AcDbEntity
  8
@_line-gallery
  6
Continuous
370
    -3
100
AcDbLine
 10
1.450026
 20
7.035305999999997
 30
0.0
 11
1.450026
 21
7.118653999999997
 31
0.0
  0
LINE
  5
657
330
5FD
100
AcDbEntity
  8
@_line-gallery
  6
Continuous
370
    -3
100
AcDbLine
 10
0.729544
 20
7.572438
 30
0.0
 11
0.729544
 21
7.52656
 31
0.0
  0
LINE
  5
658
330
5FD
100
AcDbEntity
  8
@_line-gallery
  6
Continuous
370
    -3
100
AcDbLine
 10
0.788516
 20
7.259110999999997
 30
0.0
 11
0.788516
 21
7.303872
 31
0.0
  0
LINE
  5
659
330
5FD
100
AcDbEntity
  8
@_line-gallery
  6
Continuous
370
    -3
100
AcDbLine
 10
1.450026
 20
7.705807
 30
0.0
 11
1.415836999999999
 21
7.705807
 31
0.0
  0
LINE
  5
65A
330
5FD
100
AcDbEntity
  8
@_line-gallery
  6
Continuous
370
    -3
100
AcDbLine
 10
1.139782999999997
 20
7.641708
 30
0.0
 11
1.175679
 21
7.641708
 31
0.0
  0
LINE
  5
65B
330
5FD
100
AcDbEntity
  8
@_line-gallery
  6
Continuous
370
    -3
100
AcDbLine
 10
1.139782999999997
 20
7.781322
 30
0.0
 11
1.139782999999997
 21
7.705807
 31
0.0
  0
LINE
  5
65C
330
5FD
100
AcDbEntity
  8
@_line-gallery
  6
Continuous
370
    -3
100
AcDbLine
 10
1.139782999999997
 20
7.169933
 30
0.0
 11
1.175679
 21
7.169933
 31
0.0
  0
LINE
  5
65D
330
5FD
100
AcDbEntity
  8
@_line-gallery
  6
Continuous
370
    -3
100
AcDbLine
 10
1.978208
 20
7.118653999999997
 30
0.0
 11
1.934619999999999
 21
7.118653999999997
 31
0.0
  0
LINE
  5
65E
330
5FD
100
AcDbEntity
  8
@_line-gallery
  6
Continuous
370
    -3
100
AcDbLine
 10
1.798727999999999
 20
7.572438
 30
0.0
 11
1.798727999999999
 21
7.52656
 31
0.0
  0
LINE
  5
65F
330
5FD
100
AcDbEntity
  8
@_line-gallery
  6
Continuous
370
    -3
100
AcDbLine
 10
1.852572
 20
7.259110999999997
 30
0.0
 11
1.852572
 21
7.303872
 31
0.0
  0
LINE
  5
660
330
5FD
100
AcDbEntity
  8
@_line-gallery
  6
Continuous
370
    -3
100
AcDbLine
 10
4.785242
 20
6.499698999999997
 30
0.0
 11
4.785242
 21
6.416262999999998
 31
0.0
  0
LINE
  5
661
330
5FD
100
AcDbEntity
  8
@_line-gallery
  6
Continuous
370
    -3
100
AcDbLine
 10
4.863308999999999
 20
5.49826
 30
0.0
 11
4.863308999999999
 21
5.526280999999999
 31
0.0
  0
LINE
  5
662
330
5FD
100
AcDbEntity
  8
@_line-gallery
  6
Continuous
370
    -3
100
AcDbLine
 10
4.627576
 20
5.939549999999997
 30
0.0
 11
4.609034999999997
 21
5.939549999999997
 31
0.0
  0
LINE
  5
663
330
5FD
100
AcDbEntity
  8
@_line-gallery
  6
Continuous
370
    -3
100
AcDbLine
 10
1.356290999999999
 20
6.002978999999997
 30
0.0
 11
1.470920999999997
 21
6.002978999999997
 31
0.0
  0
LINE
  5
664
330
5FD
100
AcDbEntity
  8
@_line-gallery
  6
Continuous
370
    -3
100
AcDbLine
 10
4.268049999999997
 20
5.902955999999997
 30
0.0
 11
4.231456999999998
 21
5.902955999999997
 31
0.0
  0
LINE
  5
665
330
5FD
100
AcDbEntity
  8
@_line-gallery
  6
Continuous
370
    -3
100
AcDbLine
 10
3.809408
 20
6.054211
 30
0.0
 11
3.836244
 21
6.054211
 31
0.0
  0
LINE
  5
666
330
5FD
100
AcDbEntity
  8
@_line-gallery
  6
Continuous
370
    -3
100
AcDbLine
 10
3.970420999999998
 20
6.200586
 30
0.0
 11
3.970420999999998
 21
6.17375
 31
0.0
  0
LINE
  5
667
330
5FD
100
AcDbEntity
  8
@_line-gallery
  6
Continuous
370
    -3
100
AcDbLine
 10
4.107037999999998
 20
6.200586
 30
0.0
 11
4.107037999999998
 21
6.17375
 31
0.0
  0
LINE
  5
668
330
5FD
100
AcDbEntity
  8
@_line-gallery
  6
Continuous
370
    -3
100
AcDbLine
 10
4.231456999999998
 20
6.114967
 30
0.0
 11
4.231456999999998
 21
6.054211
 31
0.0
  0
LINE
  5
669
330
5FD
100
AcDbEntity
  8
@_line-gallery
  6
Continuous
370
    -3
100
AcDbLine
 10
4.268049999999997
 20
6.114967
 30
0.0
 11
4.268049999999997
 21
6.054211
 31
0.0
  0
LINE
  5
66A
330
5FD
100
AcDbEntity
  8
@_line-gallery
  6
Continuous
370
    -3
100
AcDbLine
 10
3.890559999999998
 20
5.771219
 30
0.0
 11
3.970420999999998
 21
5.771219
 31
0.0
  0
LINE
  5
66B
330
5FD
100
AcDbEntity
  8
@_line-gallery
  6
Continuous
370
    -3
100
AcDbLine
 10
4.173843999999998
 20
5.739504
 30
0.0
 11
4.107037999999998
 21
5.739504
 31
0.0
  0
LINE
  5
66C
330
5FD
100
AcDbEntity
  8
@_line-gallery
  6
Continuous
370
    -3
100
AcDbLine
 10
3.836244
 20
5.841483
 30
0.0
 11
3.836244
 21
5.902955999999997
 31
0.0
  0
LINE
  5
66D
330
5FD
100
AcDbEntity
  8
@_line-gallery
  6
Continuous
370
    -3
100
AcDbLine
 10
3.809408
 20
5.841483
 30
0.0
 11
3.809408
 21
5.902955999999997
 31
0.0
  0
LINE
  5
66E
330
5FD
100
AcDbEntity
  8
@_line-gallery
  6
Continuous
370
    -3
100
AcDbLine
 10
3.890559999999998
 20
6.200586
 30
0.0
 11
3.970420999999998
 21
6.200586
 31
0.0
  0
LINE
  5
66F
330
5FD
100
AcDbEntity
  8
@_line-gallery
  6
Continuous
370
    -3
100
AcDbLine
 10
4.17795
 20
6.17375
 30
0.0
 11
4.107037999999998
 21
6.17375
 31
0.0
  0
LINE
  5
670
330
5FD
100
AcDbEntity
  8
@_line-gallery
  6
Continuous
370
    -3
100
AcDbLine
 10
3.478844999999998
 20
6.114967
 30
0.0
 11
3.478844999999998
 21
6.002978999999997
 31
0.0
  0
LINE
  5
671
330
5FD
100
AcDbEntity
  8
@_line-gallery
  6
Continuous
370
    -3
100
AcDbLine
 10
3.449501
 20
6.114967
 30
0.0
 11
3.449501
 21
6.002978999999997
 31
0.0
  0
LINE
  5
672
330
5FD
100
AcDbEntity
  8
@_line-gallery
  6
Continuous
370
    -3
100
AcDbLine
 10
2.859698999999998
 20
6.283068
 30
0.0
 11
3.024554
 21
6.283068
 31
0.0
  0
LINE
  5
673
330
5FD
100
AcDbEntity
  8
@_line-gallery
  6
Continuous
370
    -3
100
AcDbLine
 10
3.242329
 20
6.308450999999998
 30
0.0
 11
3.090943
 21
6.308450999999998
 31
0.0
  0
LINE
  5
674
330
5FD
100
AcDbEntity
  8
@_line-gallery
  6
Continuous
370
    -3
100
AcDbLine
 10
2.631797999999998
 20
6.114967
 30
0.0
 11
2.631797999999998
 21
6.002978999999997
 31
0.0
  0
LINE
  5
675
330
5FD
100
AcDbEntity
  8
@_line-gallery
  6
Continuous
370
    -3
100
AcDbLine
 10
2.720638999999998
 20
5.939549999999997
 30
0.0
 11
2.720638999999998
 21
5.807481
 31
0.0
  0
LINE
  5
676
330
5FD
100
AcDbEntity
  8
@_line-gallery
  6
Continuous
370
    -3
100
AcDbLine
 10
2.789536999999998
 20
5.133570999999998
 30
0.0
 11
2.789536999999998
 21
5.155383
 31
0.0
  0
LINE
  5
677
330
5FD
100
AcDbEntity
  8
@_line-gallery
  6
Continuous
370
    -3
100
AcDbLine
 10
2.859698999999998
 20
5.675683999999997
 30
0.0
 11
2.927222
 21
5.675683999999997
 31
0.0
  0
LINE
  5
678
330
5FD
100
AcDbEntity
  8
@_line-gallery
  6
Continuous
370
    -3
100
AcDbLine
 10
2.552807
 20
5.340262999999998
 30
0.0
 11
2.699643999999998
 21
5.340262999999998
 31
0.0
  0
LINE
  5
679
330
5FD
100
AcDbEntity
  8
@_line-gallery
  6
Continuous
370
    -3
100
AcDbLine
 10
3.541391999999998
 20
5.273177999999997
 30
0.0
 11
3.404884999999998
 21
5.273177999999997
 31
0.0
  0
LINE
  5
67A
330
5FD
100
AcDbEntity
  8
@_line-gallery
  6
Continuous
370
    -3
100
AcDbLine
 10
2.581479
 20
5.133570999999998
 30
0.0
 11
2.720638999999998
 21
5.133570999999998
 31
0.0
  0
LINE
  5
67B
330
5FD
100
AcDbEntity
  8
@_line-gallery
  6
Continuous
370
    -3
100
AcDbLine
 10
2.907386999999998
 20
5.133570999999998
 30
0.0
 11
2.907386999999998
 21
4.909673999999998
 31
0.0
  0
LINE
  5
67C
330
5FD
100
AcDbEntity
  8
@_line-gallery
  6
Continuous
370
    -3
100
AcDbLine
 10
3.195667999999998
 20
5.133570999999998
 30
0.0
 11
3.195667999999998
 21
4.909673999999998
 31
0.0
  0
LINE
  5
67D
330
5FD
100
AcDbEntity
  8
@_line-gallery
  6
Continuous
370
    -3
100
AcDbLine
 10
2.977863999999998
 20
5.155383
 30
0.0
 11
2.977863999999998
 21
5.133570999999998
 31
0.0
  0
LINE
  5
67E
330
5FD
100
AcDbEntity
  8
@_line-gallery
  6
Continuous
370
    -3
100
AcDbLine
 10
3.126770999999998
 20
4.883771
 30
0.0
 11
3.126770999999998
 21
4.909673999999998
 31
0.0
  0
LINE
  5
67F
330
5FD
100
AcDbEntity
  8
@_line-gallery
  6
Continuous
370
    -3
100
AcDbLine
 10
2.210849
 20
5.807481
 30
0.0
 11
2.108791999999998
 21
5.807481
 31
0.0
  0
LINE
  5
680
330
5FD
100
AcDbEntity
  8
@_line-gallery
  6
Continuous
370
    -3
100
AcDbLine
 10
2.210849
 20
5.472367
 30
0.0
 11
2.108791999999998
 21
5.472367
 31
0.0
  0
LINE
  5
681
330
5FD
100
AcDbEntity
  8
@_line-gallery
  6
Continuous
370
    -3
100
AcDbLine
 10
1.925183
 20
6.147992999999997
 30
0.0
 11
2.050577999999998
 21
6.147992999999997
 31
0.0
  0
LINE
  5
682
330
5FD
100
AcDbEntity
  8
@_line-gallery
  6
Continuous
370
    -3
100
AcDbLine
 10
2.737864
 20
6.332927999999999
 30
0.0
 11
2.737864
 21
6.147992999999997
 31
0.0
  0
LINE
  5
683
330
5FD
100
AcDbEntity
  8
@_line-gallery
  6
Continuous
370
    -3
100
AcDbLine
 10
2.313600999999998
 20
6.49248
 30
0.0
 11
2.313600999999998
 21
6.147992999999997
 31
0.0
  0
LINE
  5
684
330
5FD
100
AcDbEntity
  8
@_line-gallery
  6
Continuous
370
    -3
100
AcDbLine
 10
2.313600999999998
 20
6.49248
 30
0.0
 11
2.636331
 21
6.49248
 31
0.0
  0
LINE
  5
685
330
5FD
100
AcDbEntity
  8
@_line-gallery
  6
Continuous
370
    -3
100
AcDbLine
 10
2.636331
 20
6.49248
 30
0.0
 11
2.636331
 21
6.438087
 31
0.0
  0
LINE
  5
686
330
5FD
100
AcDbEntity
  8
@_line-gallery
  6
Continuous
370
    -3
100
AcDbLine
 10
2.636331
 20
6.438087
 30
0.0
 11
2.859698999999998
 21
6.438087
 31
0.0
  0
LINE
  5
687
330
5FD
100
AcDbEntity
  8
@_line-gallery
  6
Continuous
370
    -3
100
AcDbLine
 10
2.737864
 20
6.332927999999999
 30
0.0
 11
2.859698999999998
 21
6.332927999999999
 31
0.0
  0
LINE
  5
688
330
5FD
100
AcDbEntity
  8
@_line-gallery
  6
Continuous
370
    -3
100
AcDbLine
 10
3.434088999999998
 20
6.465205999999997
 30
0.0
 11
3.434088999999998
 21
6.336554
 31
0.0
  0
LINE
  5
689
330
5FD
100
AcDbEntity
  8
@_line-gallery
  6
Continuous
370
    -3
100
AcDbLine
 10
3.434088999999998
 20
6.336554
 30
0.0
 11
3.242329
 21
6.336554
 31
0.0
  0
LINE
  5
68A
330
5FD
100
AcDbEntity
  8
@_line-gallery
  6
Continuous
370
    -3
100
AcDbLine
 10
3.242329
 20
6.409078
 30
0.0
 11
3.303547
 21
6.409078
 31
0.0
  0
LINE
  5
68B
330
5FD
100
AcDbEntity
  8
@_line-gallery
  6
Continuous
370
    -3
100
AcDbLine
 10
4.637979
 20
6.820528999999997
 30
0.0
 11
4.637979
 21
6.716422
 31
0.0
  0
LINE
  5
68C
330
5FD
100
AcDbEntity
  8
@_line-gallery
  6
Continuous
370
    -3
100
AcDbLine
 10
4.610913
 20
6.865889999999997
 30
0.0
 11
4.610913
 21
6.716422
 31
0.0
  0
LINE
  5
68D
330
5FD
100
AcDbEntity
  8
@_line-gallery
  6
Continuous
370
    -3
100
AcDbLine
 10
0.8774840000000001
 20
6.683991999999999
 30
0.0
 11
0.954269
 21
6.683991999999999
 31
0.0
  0
LINE
  5
68E
330
5FD
100
AcDbEntity
  8
@_line-gallery
  6
Continuous
370
    -3
100
AcDbLine
 10
1.071845999999997
 20
6.663596
 30
0.0
 11
1.003459
 21
6.663596
 31
0.0
  0
LINE
  5
68F
330
5FD
100
AcDbEntity
  8
@_line-gallery
  6
Continuous
370
    -3
100
AcDbLine
 10
0.954269
 20
6.683991999999999
 30
0.0
 11
0.954269
 21
6.663596
 31
0.0
  0
LINE
  5
690
330
5FD
100
AcDbEntity
  8
@_line-gallery
  6
Continuous
370
    -3
100
AcDbLine
 10
1.003459
 20
6.683991999999999
 30
0.0
 11
1.003459
 21
6.663596
 31
0.0
  0
LINE
  5
691
330
5FD
100
AcDbEntity
  8
@_line-gallery
  6
Continuous
370
    -3
100
AcDbLine
 10
1.146230999999998
 20
6.529222999999999
 30
0.0
 11
1.146230999999998
 21
6.41633
 31
0.0
  0
LINE
  5
692
330
5FD
100
AcDbEntity
  8
@_line-gallery
  6
Continuous
370
    -3
100
AcDbLine
 10
1.214617
 20
5.496596
 30
0.0
 11
1.214617
 21
5.524291
 31
0.0
  0
LINE
  5
693
330
5FD
100
AcDbEntity
  8
@_line-gallery
  6
Continuous
370
    -3
100
AcDbLine
 10
1.350190999999999
 20
6.564016
 30
0.0
 11
1.432172
 21
6.645997999999997
 31
0.0
  0
LINE
  5
694
330
5FD
100
AcDbEntity
  8
@_line-gallery
  6
Continuous
370
    -3
100
AcDbLine
 10
1.266328
 20
6.819685999999999
 30
0.0
 11
1.222574999999997
 21
6.775933
 31
0.0
  0
LINE
  5
695
330
5FD
100
AcDbEntity
  8
@_line-gallery
  6
Continuous
370
    -3
100
AcDbLine
 10
1.229014999999997
 20
6.802769
 30
0.0
 11
1.212377
 21
6.786131
 31
0.0
  0
LINE
  5
696
330
5FD
100
AcDbEntity
  8
@_line-gallery
  6
Continuous
370
    -3
100
AcDbLine
 10
1.165754999999998
 20
6.630874999999997
 30
0.0
 11
1.187014999999999
 21
6.609614999999998
 31
0.0
  0
LINE
  5
697
330
5FD
100
AcDbEntity
  8
@_line-gallery
  6
Continuous
370
    -3
100
AcDbLine
 10
1.159428
 20
6.615605999999997
 30
0.0
 11
1.176217
 21
6.598816999999997
 31
0.0
  0
LINE
  5
698
330
5FD
100
AcDbEntity
  8
@_line-gallery
  6
Continuous
370
    -3
100
AcDbLine
 10
1.335906999999999
 20
6.803855
 30
0.0
 11
1.42334
 21
6.716422
 31
0.0
  0
LINE
  5
699
330
5FD
100
AcDbEntity
  8
@_line-gallery
  6
Continuous
370
    -3
100
AcDbLine
 10
1.106638999999999
 20
6.821964999999997
 30
0.0
 11
1.106638999999999
 21
6.807567999999997
 31
0.0
  0
LINE
  5
69A
330
5FD
100
AcDbEntity
  8
@_line-gallery
  6
Continuous
370
    -3
100
AcDbLine
 10
1.106638999999999
 20
6.733183
 30
0.0
 11
1.159428
 21
6.733183
 31
0.0
  0
LINE
  5
69B
330
5FD
100
AcDbEntity
  8
@_line-gallery
  6
Continuous
370
    -3
100
AcDbLine
 10
1.106638999999999
 20
6.821964999999997
 30
0.0
 11
1.229014999999997
 21
6.821964999999997
 31
0.0
  0
LINE
  5
69C
330
5FD
100
AcDbEntity
  8
@_line-gallery
  6
Continuous
370
    -3
100
AcDbLine
 10
1.229014999999997
 20
6.821964999999997
 30
0.0
 11
1.229014999999997
 21
6.802769
 31
0.0
  0
LINE
  5
69D
330
5FD
100
AcDbEntity
  8
@_line-gallery
  6
Continuous
370
    -3
100
AcDbLine
 10
1.071845999999997
 20
6.761977
 30
0.0
 11
1.106638999999999
 21
6.761977
 31
0.0
  0
LINE
  5
69E
330
5FD
100
AcDbEntity
  8
@_line-gallery
  6
Continuous
370
    -3
100
AcDbLine
 10
1.106638999999999
 20
6.807567999999997
 30
0.0
 11
1.071845999999997
 21
6.807567999999997
 31
0.0
  0
LINE
  5
69F
330
5FD
100
AcDbEntity
  8
@_line-gallery
  6
Continuous
370
    -3
100
AcDbLine
 10
1.071845999999997
 20
6.579613
 30
0.0
 11
1.113837
 21
6.579613
 31
0.0
  0
LINE
  5
6A0
330
5FD
100
AcDbEntity
  8
@_line-gallery
  6
Continuous
370
    -3
100
AcDbLine
 10
1.071845999999997
 20
6.529222999999999
 30
0.0
 11
1.146230999999998
 21
6.529222999999999
 31
0.0
  0
LINE
  5
6A1
330
5FD
100
AcDbEntity
  8
@_line-gallery
  6
Continuous
370
    -3
100
AcDbLine
 10
1.113837
 20
6.615605999999997
 30
0.0
 11
1.113837
 21
6.579613
 31
0.0
  0
LINE
  5
6A2
330
5FD
100
AcDbEntity
  8
@_line-gallery
  6
Continuous
370
    -3
100
AcDbLine
 10
1.113837
 20
6.615605999999997
 30
0.0
 11
1.159428
 21
6.615605999999997
 31
0.0
  0
LINE
  5
6A3
330
5FD
100
AcDbEntity
  8
@_line-gallery
  6
Continuous
370
    -3
100
AcDbLine
 10
1.350190999999999
 20
6.564016
 30
0.0
 11
1.232613999999998
 21
6.564016
 31
0.0
  0
LINE
  5
6A4
330
5FD
100
AcDbEntity
  8
@_line-gallery
  6
Continuous
370
    -3
100
AcDbLine
 10
4.958679
 20
6.865889999999997
 30
0.0
 11
5.012307999999999
 21
6.812261
 31
0.0
  0
LINE
  5
6A5
330
5FD
100
AcDbEntity
  8
@_line-gallery
  6
Continuous
370
    -3
100
AcDbLine
 10
4.637979
 20
6.537698999999999
 30
0.0
 11
4.675978999999998
 21
6.499698999999997
 31
0.0
  0
LINE
  5
6A6
330
5FD
100
AcDbEntity
  8
@_line-gallery
  6
Continuous
370
    -3
100
AcDbLine
 10
4.68334
 20
6.865889999999997
 30
0.0
 11
4.637979
 21
6.820528999999997
 31
0.0
  0
LINE
  5
6A7
330
5FD
100
AcDbEntity
  8
@_line-gallery
  6
Continuous
370
    -3
100
AcDbLine
 10
5.012307999999999
 20
6.547321
 30
0.0
 11
4.964686
 21
6.499698999999997
 31
0.0
  0
LINE
  5
6A8
330
5FD
100
AcDbEntity
  8
@_line-gallery
  6
Continuous
370
    -3
100
AcDbLine
 10
4.231456999999998
 20
6.054211
 30
0.0
 11
4.268049999999997
 21
6.054211
 31
0.0
  0
LINE
  5
6A9
330
5FD
100
AcDbEntity
  8
@_line-gallery
  6
Continuous
370
    -3
100
AcDbLine
 10
4.231456999999998
 20
5.902955999999997
 30
0.0
 11
4.231456999999998
 21
5.841483
 31
0.0
  0
LINE
  5
6AA
330
5FD
100
AcDbEntity
  8
@_line-gallery
  6
Continuous
370
    -3
100
AcDbLine
 10
4.268049999999997
 20
5.902955999999997
 30
0.0
 11
4.268049999999997
 21
5.841483
 31
0.0
  0
LINE
  5
6AB
330
5FD
100
AcDbEntity
  8
@_line-gallery
  6
Continuous
370
    -3
100
AcDbLine
 10
3.809408
 20
6.054211
 30
0.0
 11
3.809408
 21
6.114967
 31
0.0
  0
LINE
  5
6AC
330
5FD
100
AcDbEntity
  8
@_line-gallery
  6
Continuous
370
    -3
100
AcDbLine
 10
3.836244
 20
5.902955999999997
 30
0.0
 11
3.809408
 21
5.902955999999997
 31
0.0
  0
LWPOLYLINE
  5
6AD
330
5FD
100
AcDbEntity
  8
@_line-gallery
  6
Continuous
370
    -3
100
AcDbPolyline
 90
        3
 70
     0
 43
0.0
 10
4.268049999999997
 20
6.114967
 10
4.609034999999997
 20
6.114967
 10
4.609034999999997
 20
6.002978999999997
  0
LINE
  5
6AE
330
5FD
100
AcDbEntity
  8
@_line-gallery
  6
Continuous
370
    -3
100
AcDbLine
 10
3.836244
 20
6.054211
 30
0.0
 11
3.836244
 21
6.114967
 31
0.0
  0
LWPOLYLINE
  5
6AF
330
5FD
100
AcDbEntity
  8
@_line-gallery
  6
Continuous
370
    -3
100
AcDbPolyline
 90
        2
 70
     0
 43
0.0
 10
3.809408
 20
5.841483
 10
3.478844999999998
 20
5.841483
  0
LWPOLYLINE
  5
6B0
330
5FD
100
AcDbEntity
  8
@_line-gallery
  6
Continuous
370
    -3
100
AcDbPolyline
 90
        2
 70
     0
 43
0.0
 10
3.890559999999998
 20
6.200586
 10
3.890559999999998
 20
6.465205999999997
  0
LINE
  5
6B1
330
5FD
100
AcDbEntity
  8
@_line-gallery
  6
Continuous
370
    -3
100
AcDbLine
 10
3.970420999999998
 20
6.17375
 30
0.0
 11
3.890559999999998
 21
6.17375
 31
0.0
  0
LINE
  5
6B2
330
5FD
100
AcDbEntity
  8
@_line-gallery
  6
Continuous
370
    -3
100
AcDbLine
 10
4.107037999999998
 20
6.200586
 30
0.0
 11
4.17795
 21
6.200586
 31
0.0
  0
LINE
  5
6B3
330
5FD
100
AcDbEntity
  8
@_line-gallery
  6
Continuous
370
    -3
100
AcDbLine
 10
4.17795
 20
6.17375
 30
0.0
 11
4.231456999999998
 21
6.114967
 31
0.0
  0
LINE
  5
6B4
330
5FD
100
AcDbEntity
  8
@_line-gallery
  6
Continuous
370
    -3
100
AcDbLine
 10
3.890559999999998
 20
6.17375
 30
0.0
 11
3.836244
 21
6.114967
 31
0.0
  0
LWPOLYLINE
  5
6B5
330
5FD
100
AcDbEntity
  8
@_line-gallery
  6
Continuous
370
    -3
100
AcDbPolyline
 90
        2
 70
     0
 43
0.0
 10
4.173843999999998
 20
5.739504
 10
4.173843999999998
 20
5.472863999999997
  0
LINE
  5
6B6
330
5FD
100
AcDbEntity
  8
@_line-gallery
  6
Continuous
370
    -3
100
AcDbLine
 10
4.107037999999998
 20
5.771219
 30
0.0
 11
4.17795
 21
5.771219
 31
0.0
  0
LINE
  5
6B7
330
5FD
100
AcDbEntity
  8
@_line-gallery
  6
Continuous
370
    -3
100
AcDbLine
 10
3.970420999999998
 20
5.739504
 30
0.0
 11
3.886454
 21
5.739504
 31
0.0
  0
LINE
  5
6B8
330
5FD
100
AcDbEntity
  8
@_line-gallery
  6
Continuous
370
    -3
100
AcDbLine
 10
3.970420999999998
 20
5.771219
 30
0.0
 11
3.970420999999998
 21
5.739504
 31
0.0
  0
LINE
  5
6B9
330
5FD
100
AcDbEntity
  8
@_line-gallery
  6
Continuous
370
    -3
100
AcDbLine
 10
4.107037999999998
 20
5.771219
 30
0.0
 11
4.107037999999998
 21
5.739504
 31
0.0
  0
LINE
  5
6BA
330
5FD
100
AcDbEntity
  8
@_line-gallery
  6
Continuous
370
    -3
100
AcDbLine
 10
3.836244
 20
5.841483
 30
0.0
 11
3.890559999999998
 21
5.771219
 31
0.0
  0
LINE
  5
6BB
330
5FD
100
AcDbEntity
  8
@_line-gallery
  6
Continuous
370
    -3
100
AcDbLine
 10
4.231456999999998
 20
5.841483
 30
0.0
 11
4.17795
 21
5.771219
 31
0.0
  0
LINE
  5
6BC
330
5FD
100
AcDbEntity
  8
@_line-gallery
  6
Continuous
370
    -3
100
AcDbLine
 10
3.985652999999998
 20
6.499698999999997
 30
0.0
 11
3.985652999999998
 21
6.465205999999997
 31
0.0
  0
LINE
  5
6BD
330
5FD
100
AcDbEntity
  8
@_line-gallery
  6
Continuous
370
    -3
100
AcDbLine
 10
3.264524
 20
6.114967
 30
0.0
 11
3.264524
 21
6.002978999999997
 31
0.0
  0
LINE
  5
6BE
330
5FD
100
AcDbEntity
  8
@_line-gallery
  6
Continuous
370
    -3
100
AcDbLine
 10
4.676102999999998
 20
5.246368
 30
0.0
 11
4.649888999999999
 21
5.246368
 31
0.0
  0
LINE
  5
6BF
330
5FD
100
AcDbEntity
  8
@_line-gallery
  6
Continuous
370
    -3
100
AcDbLine
 10
3.541391999999998
 20
5.107412999999998
 30
0.0
 11
3.521799999999998
 21
5.107412999999998
 31
0.0
  0
LINE
  5
6C0
330
5FD
100
AcDbEntity
  8
@_line-gallery
  6
Continuous
370
    -3
100
AcDbLine
 10
3.541391999999998
 20
5.054705999999998
 30
0.0
 11
3.521799999999998
 21
5.054705999999998
 31
0.0
  0
LINE
  5
6C1
330
5FD
100
AcDbEntity
  8
@_line-gallery
  6
Continuous
370
    -3
100
AcDbLine
 10
3.886454
 20
5.472863999999997
 30
0.0
 11
3.985652999999998
 21
5.472863999999997
 31
0.0
  0
LWPOLYLINE
  5
6C2
330
5FD
100
AcDbEntity
  8
@_line-gallery
  6
Continuous
370
    -3
100
AcDbPolyline
 90
        2
 70
     0
 43
0.0
 10
4.610913
 20
6.499698999999997
 10
4.081484999999998
 20
6.499698999999997
  0
LWPOLYLINE
  5
6C3
330
5FD
100
AcDbEntity
  8
@_line-gallery
  6
Continuous
370
    -3
100
AcDbPolyline
 90
        2
 70
     0
 43
0.0
 10
4.68334
 20
6.865889999999997
 10
4.958679
 20
6.865889999999997
  0
LWPOLYLINE
  5
6C4
330
5FD
100
AcDbEntity
  8
@_line-gallery
  6
Continuous
370
    -3
100
AcDbPolyline
 90
        2
 70
     0
 43
0.0
 10
5.012307999999999
 20
6.812261
 10
5.012307999999999
 20
6.547321
  0
LWPOLYLINE
  5
6C5
330
5FD
100
AcDbEntity
  8
@_line-gallery
  6
Continuous
370
    -3
100
AcDbPolyline
 90
        2
 70
     0
 43
0.0
 10
4.964686
 20
6.499698999999997
 10
4.863308999999999
 20
6.499698999999997
  0
LINE
  5
6C6
330
5FD
100
AcDbEntity
  8
@_line-gallery
  6
Continuous
370
    -3
100
AcDbLine
 10
4.610913
 20
6.645997999999997
 30
0.0
 11
4.637979
 21
6.645997999999997
 31
0.0
  0
LINE
  5
6C7
330
5FD
100
AcDbEntity
  8
@_line-gallery
  6
Continuous
370
    -3
100
AcDbLine
 10
4.610913
 20
6.716422
 30
0.0
 11
4.637979
 21
6.716422
 31
0.0
  0
LINE
  5
6C8
330
5FD
100
AcDbEntity
  8
@_line-gallery
  6
Continuous
370
    -3
100
AcDbLine
 10
4.637979
 20
6.645997999999997
 30
0.0
 11
4.637979
 21
6.537698999999999
 31
0.0
  0
LINE
  5
6C9
330
5FD
100
AcDbEntity
  8
@_line-gallery
  6
Continuous
370
    -3
100
AcDbLine
 10
4.610913
 20
6.645997999999997
 30
0.0
 11
4.610913
 21
6.499698999999997
 31
0.0
  0
LWPOLYLINE
  5
6CA
330
5FD
100
AcDbEntity
  8
@_line-gallery
  6
Continuous
370
    -3
100
AcDbPolyline
 90
        2
 70
     0
 43
0.0
 10
4.785242
 20
6.499698999999997
 10
4.675978999999998
 20
6.499698999999997
  0
LWPOLYLINE
  5
6CB
330
5FD
100
AcDbEntity
  8
@_line-gallery
  6
Continuous
370
    -3
100
AcDbPolyline
 90
        4
 70
     0
 43
0.0
 10
4.863308999999999
 20
6.416262999999998
 10
5.007673
 20
6.416262999999998
 10
5.007673
 20
5.526280999999999
 10
4.863308999999999
 20
5.526280999999999
  0
LINE
  5
6CC
330
5FD
100
AcDbEntity
  8
@_line-gallery
  6
Continuous
370
    -3
100
AcDbLine
 10
4.863308999999999
 20
6.416262999999998
 30
0.0
 11
4.863308999999999
 21
6.499698999999997
 31
0.0
  0
LINE
  5
6CD
330
5FD
100
AcDbEntity
  8
@_line-gallery
  6
Continuous
370
    -3
100
AcDbLine
 10
4.609034999999997
 20
6.002978999999997
 30
0.0
 11
4.627576
 21
6.002978999999997
 31
0.0
  0
LWPOLYLINE
  5
6CE
330
5FD
100
AcDbEntity
  8
@_line-gallery
  6
Continuous
370
    -3
100
AcDbPolyline
 90
        3
 70
     0
 43
0.0
 10
4.609034999999997
 20
5.939549999999997
 10
4.609034999999997
 20
5.841483
 10
4.268049999999997
 20
5.841483
  0
LWPOLYLINE
  5
6CF
330
5FD
100
AcDbEntity
  8
@_line-gallery
  6
Continuous
370
    -3
100
AcDbPolyline
 90
        3
 70
     0
 43
0.0
 10
4.627576
 20
6.002978999999997
 10
4.627576
 20
6.416262999999998
 10
4.785242
 20
6.416262999999998
  0
LINE
  5
6D0
330
5FD
100
AcDbEntity
  8
@_line-gallery
  6
Continuous
370
    -3
100
AcDbLine
 10
4.785242
 20
5.526280999999999
 30
0.0
 11
4.785242
 21
5.49826
 31
0.0
  0
LWPOLYLINE
  5
6D1
330
5FD
100
AcDbEntity
  8
@_line-gallery
  6
Continuous
370
    -3
100
AcDbPolyline
 90
        3
 70
     0
 43
0.0
 10
4.785242
 20
5.526280999999999
 10
4.627576
 20
5.526280999999999
 10
4.627576
 20
5.939549999999997
  0
LWPOLYLINE
  5
6D2
330
5FD
100
AcDbEntity
  8
@_line-gallery
  6
Continuous
370
    -3
100
AcDbPolyline
 90
        4
 70
     0
 43
0.0
 10
4.863308999999999
 20
5.49826
 10
5.200391999999999
 20
5.49826
 10
5.200391999999999
 20
5.092559999999997
 10
4.741014999999999
 20
5.092559999999997
  0
LWPOLYLINE
  5
6D3
330
5FD
100
AcDbEntity
  8
@_line-gallery
  6
Continuous
370
    -3
100
AcDbPolyline
 90
        2
 70
     0
 43
0.0
 10
4.649888999999999
 20
5.44413
 10
4.649888999999999
 20
5.246368
  0
LINE
  5
6D4
330
5FD
100
AcDbEntity
  8
@_line-gallery
  6
Continuous
370
    -3
100
AcDbLine
 10
4.563755
 20
5.44413
 30
0.0
 11
4.649888999999999
 21
5.44413
 31
0.0
  0
LINE
  5
6D5
330
5FD
100
AcDbEntity
  8
@_line-gallery
  6
Continuous
370
    -3
100
AcDbLine
 10
4.543783
 20
5.399455
 30
0.0
 11
4.543783
 21
5.44413
 31
0.0
  0
LINE
  5
6D6
330
5FD
100
AcDbEntity
  8
@_line-gallery
  6
Continuous
370
    -3
100
AcDbLine
 10
4.543783
 20
5.246368
 30
0.0
 11
4.543783
 21
5.399455
 31
0.0
  0
LWPOLYLINE
  5
6D7
330
5FD
100
AcDbEntity
  8
@_line-gallery
  6
Continuous
370
    -3
100
AcDbPolyline
 90
        2
 70
     0
 43
0.0
 10
4.563755
 20
5.246368
 10
4.563755
 20
5.44413
  0
LWPOLYLINE
  5
6D8
330
5FD
100
AcDbEntity
  8
@_line-gallery
  6
Continuous
370
    -3
100
AcDbPolyline
 90
        2
 70
     0
 43
0.0
 10
4.649888999999999
 20
5.174494999999998
 10
4.649888999999999
 20
5.116278
  0
LWPOLYLINE
  5
6D9
330
5FD
100
AcDbEntity
  8
@_line-gallery
  6
Continuous
370
    -3
100
AcDbPolyline
 90
        3
 70
     0
 43
0.0
 10
4.676102999999998
 20
5.246368
 10
4.676102999999998
 20
5.49826
 10
4.785242
 20
5.49826
  0
LINE
  5
6DA
330
5FD
100
AcDbEntity
  8
@_line-gallery
  6
Continuous
370
    -3
100
AcDbLine
 10
4.563755
 20
5.246368
 30
0.0
 11
4.543783
 21
5.246368
 31
0.0
  0
LINE
  5
6DB
330
5FD
100
AcDbEntity
  8
@_line-gallery
  6
Continuous
370
    -3
100
AcDbLine
 10
4.214229
 20
5.246368
 30
0.0
 11
4.186766999999997
 21
5.246368
 31
0.0
  0
LINE
  5
6DC
330
5FD
100
AcDbEntity
  8
@_line-gallery
  6
Continuous
370
    -3
100
AcDbLine
 10
4.563755
 20
5.174494999999998
 30
0.0
 11
4.543783
 21
5.174494999999998
 31
0.0
  0
LINE
  5
6DD
330
5FD
100
AcDbEntity
  8
@_line-gallery
  6
Continuous
370
    -3
100
AcDbLine
 10
4.676102999999998
 20
5.174494999999998
 30
0.0
 11
4.649888999999999
 21
5.174494999999998
 31
0.0
  0
LWPOLYLINE
  5
6DE
330
5FD
100
AcDbEntity
  8
@_line-gallery
  6
Continuous
370
    -3
100
AcDbPolyline
 90
        2
 70
     0
 43
0.0
 10
4.619930999999998
 20
5.116278
 10
4.640336
 20
5.116278
  0
LWPOLYLINE
  5
6DF
330
5FD
100
AcDbEntity
  8
@_line-gallery
  6
Continuous
370
    -3
100
AcDbPolyline
 90
        2
 70
     0
 43
0.0
 10
4.563755
 20
5.116278
 10
4.563755
 20
5.174494999999998
  0
LWPOLYLINE
  5
6E0
330
5FD
100
AcDbEntity
  8
@_line-gallery
  6
Continuous
370
    -3
100
AcDbPolyline
 90
        4
 70
     0
 43
0.0
 10
4.741014999999999
 20
5.092559999999997
 10
4.741014999999999
 20
4.936522
 10
4.563755
 20
4.936522
 10
4.563755
 20
5.116278
  0
LWPOLYLINE
  5
6E1
330
5FD
100
AcDbEntity
  8
@_line-gallery
  6
Continuous
370
    -3
100
AcDbPolyline
 90
        2
 70
     0
 43
0.0
 10
4.676102999999998
 20
5.092559999999997
 10
4.676102999999998
 20
5.174494999999998
  0
LWPOLYLINE
  5
6E2
330
5FD
100
AcDbEntity
  8
@_line-gallery
  6
Continuous
370
    -3
100
AcDbPolyline
 90
        2
 70
     0
 43
0.0
 10
4.649888999999999
 20
5.116278
 10
4.613071999999998
 20
5.116278
  0
LINE
  5
6E3
330
5FD
100
AcDbEntity
  8
@_line-gallery
  6
Continuous
370
    -3
100
AcDbLine
 10
4.214229
 20
5.44413
 30
0.0
 11
4.543783
 21
5.44413
 31
0.0
  0
LINE
  5
6E4
330
5FD
100
AcDbEntity
  8
@_line-gallery
  6
Continuous
370
    -3
100
AcDbLine
 10
4.081484999999998
 20
5.472863999999997
 30
0.0
 11
4.173843999999998
 21
5.472863999999997
 31
0.0
  0
LWPOLYLINE
  5
6E5
330
5FD
100
AcDbEntity
  8
@_line-gallery
  6
Continuous
370
    -3
100
AcDbPolyline
 90
        2
 70
     0
 43
0.0
 10
3.985652999999998
 20
5.454234999999997
 10
3.885924999999998
 20
5.454234999999997
  0
LINE
  5
6E6
330
5FD
100
AcDbEntity
  8
@_line-gallery
  6
Continuous
370
    -3
100
AcDbLine
 10
3.985652999999998
 20
5.472863999999997
 30
0.0
 11
3.985652999999998
 21
5.454234999999997
 31
0.0
  0
LINE
  5
6E7
330
5FD
100
AcDbEntity
  8
@_line-gallery
  6
Continuous
370
    -3
100
AcDbLine
 10
4.081484999999998
 20
5.454234999999997
 30
0.0
 11
4.081484999999998
 21
5.472863999999997
 31
0.0
  0
LWPOLYLINE
  5
6E8
330
5FD
100
AcDbEntity
  8
@_line-gallery
  6
Continuous
370
    -3
100
AcDbPolyline
 90
        2
 70
     0
 43
0.0
 10
4.186766999999997
 20
5.454234999999997
 10
4.081484999999998
 20
5.454234999999997
  0
LWPOLYLINE
  5
6E9
330
5FD
100
AcDbEntity
  8
@_line-gallery
  6
Continuous
370
    -3
100
AcDbPolyline
 90
        2
 70
     0
 43
0.0
 10
3.886454
 20
5.472863999999997
 10
3.886454
 20
5.739504
  0
LWPOLYLINE
  5
6EA
330
5FD
100
AcDbEntity
  8
@_line-gallery
  6
Continuous
370
    -3
100
AcDbPolyline
 90
        2
 70
     0
 43
0.0
 10
4.17795
 20
6.465205999999997
 10
4.17795
 20
6.200586
  0
LINE
  5
6EB
330
5FD
100
AcDbEntity
  8
@_line-gallery
  6
Continuous
370
    -3
100
AcDbLine
 10
4.081484999999998
 20
6.465205999999997
 30
0.0
 11
4.081484999999998
 21
6.499698999999997
 31
0.0
  0
LINE
  5
6EC
330
5FD
100
AcDbEntity
  8
@_line-gallery
  6
Continuous
370
    -3
100
AcDbLine
 10
4.081484999999998
 20
6.465205999999997
 30
0.0
 11
4.17795
 21
6.465205999999997
 31
0.0
  0
LWPOLYLINE
  5
6ED
330
5FD
100
AcDbEntity
  8
@_line-gallery
  6
Continuous
370
    -3
100
AcDbPolyline
 90
        2
 70
     0
 43
0.0
 10
3.985652999999998
 20
6.499698999999997
 10
3.478844999999998
 20
6.499698999999997
  0
LINE
  5
6EE
330
5FD
100
AcDbEntity
  8
@_line-gallery
  6
Continuous
370
    -3
100
AcDbLine
 10
3.890559999999998
 20
6.465205999999997
 30
0.0
 11
3.985652999999998
 21
6.465205999999997
 31
0.0
  0
LINE
  5
6EF
330
5FD
100
AcDbEntity
  8
@_line-gallery
  6
Continuous
370
    -3
100
AcDbLine
 10
3.885924999999998
 20
5.246368
 30
0.0
 11
3.869697
 21
5.246368
 31
0.0
  0
LINE
  5
6F0
330
5FD
100
AcDbEntity
  8
@_line-gallery
  6
Continuous
370
    -3
100
AcDbLine
 10
3.869697
 20
5.246368
 30
0.0
 11
3.869697
 21
5.44413
 31
0.0
  0
LINE
  5
6F1
330
5FD
100
AcDbEntity
  8
@_line-gallery
  6
Continuous
370
    -3
100
AcDbLine
 10
3.885924999999998
 20
5.174494999999998
 30
0.0
 11
3.885924999999998
 21
4.971473999999997
 31
0.0
  0
LINE
  5
6F2
330
5FD
100
AcDbEntity
  8
@_line-gallery
  6
Continuous
370
    -3
100
AcDbLine
 10
3.885924999999998
 20
5.174494999999998
 30
0.0
 11
3.869697
 21
5.174494999999998
 31
0.0
  0
LINE
  5
6F3
330
5FD
100
AcDbEntity
  8
@_line-gallery
  6
Continuous
370
    -3
100
AcDbLine
 10
4.214229
 20
5.174494999999998
 30
0.0
 11
4.186766999999997
 21
5.174494999999998
 31
0.0
  0
LINE
  5
6F4
330
5FD
100
AcDbEntity
  8
@_line-gallery
  6
Continuous
370
    -3
100
AcDbLine
 10
4.214229
 20
5.174494999999998
 30
0.0
 11
4.214229
 21
4.971473999999997
 31
0.0
  0
LINE
  5
6F5
330
5FD
100
AcDbEntity
  8
@_line-gallery
  6
Continuous
370
    -3
100
AcDbLine
 10
4.186766999999997
 20
5.246368
 30
0.0
 11
4.186766999999997
 21
5.454234999999997
 31
0.0
  0
LINE
  5
6F6
330
5FD
100
AcDbEntity
  8
@_line-gallery
  6
Continuous
370
    -3
100
AcDbLine
 10
4.214229
 20
4.971473999999997
 30
0.0
 11
4.543783
 21
4.971473999999997
 31
0.0
  0
LINE
  5
6F7
330
5FD
100
AcDbEntity
  8
@_line-gallery
  6
Continuous
370
    -3
100
AcDbLine
 10
3.885924999999998
 20
4.971473999999997
 30
0.0
 11
4.186766999999997
 21
4.971473999999997
 31
0.0
  0
LINE
  5
6F8
330
5FD
100
AcDbEntity
  8
@_line-gallery
  6
Continuous
370
    -3
100
AcDbLine
 10
3.541391999999998
 20
5.054705999999998
 30
0.0
 11
3.541391999999998
 21
4.971473999999997
 31
0.0
  0
LINE
  5
6F9
330
5FD
100
AcDbEntity
  8
@_line-gallery
  6
Continuous
370
    -3
100
AcDbLine
 10
3.521799999999998
 20
5.054705999999998
 30
0.0
 11
3.521799999999998
 21
4.909673999999998
 31
0.0
  0
LINE
  5
6FA
330
5FD
100
AcDbEntity
  8
@_line-gallery
  6
Continuous
370
    -3
100
AcDbLine
 10
3.541391999999998
 20
5.273177999999997
 30
0.0
 11
3.541391999999998
 21
5.107412999999998
 31
0.0
  0
LINE
  5
6FB
330
5FD
100
AcDbEntity
  8
@_line-gallery
  6
Continuous
370
    -3
100
AcDbLine
 10
3.404884999999998
 20
5.273177999999997
 30
0.0
 11
3.404884999999998
 21
5.155383
 31
0.0
  0
LINE
  5
6FC
330
5FD
100
AcDbEntity
  8
@_line-gallery
  6
Continuous
370
    -3
100
AcDbLine
 10
3.404884999999998
 20
5.340262999999998
 30
0.0
 11
3.541391999999998
 21
5.340262999999998
 31
0.0
  0
LINE
  5
6FD
330
5FD
100
AcDbEntity
  8
@_line-gallery
  6
Continuous
370
    -3
100
AcDbLine
 10
2.699643999999998
 20
5.273177999999997
 30
0.0
 11
2.552807
 21
5.273177999999997
 31
0.0
  0
LWPOLYLINE
  5
6FE
330
5FD
100
AcDbEntity
  8
@_line-gallery
  6
Continuous
370
    -3
100
AcDbPolyline
 90
        2
 70
     0
 43
0.0
 10
3.478844999999998
 20
6.114967
 10
3.809408
 20
6.114967
  0
LWPOLYLINE
  5
6FF
330
5FD
100
AcDbEntity
  8
@_line-gallery
  6
Continuous
370
    -3
100
AcDbPolyline
 90
        2
 70
     0
 43
0.0
 10
3.264524
 20
6.114967
 10
3.449501
 20
6.114967
  0
LINE
  5
700
330
5FD
100
AcDbEntity
  8
@_line-gallery
  6
Continuous
370
    -3
100
AcDbLine
 10
3.449501
 20
5.939549999999997
 30
0.0
 11
3.449501
 21
5.841483
 31
0.0
  0
LWPOLYLINE
  5
701
330
5FD
100
AcDbEntity
  8
@_line-gallery
  6
Continuous
370
    -3
100
AcDbPolyline
 90
        2
 70
     0
 43
0.0
 10
3.449501
 20
5.841483
 10
3.264524
 20
5.841483
  0
LINE
  5
702
330
5FD
100
AcDbEntity
  8
@_line-gallery
  6
Continuous
370
    -3
100
AcDbLine
 10
3.478844999999998
 20
5.939549999999997
 30
0.0
 11
3.478844999999998
 21
5.841483
 31
0.0
  0
LINE
  5
703
330
5FD
100
AcDbEntity
  8
@_line-gallery
  6
Continuous
370
    -3
100
AcDbLine
 10
3.264524
 20
5.939549999999997
 30
0.0
 11
3.242329
 21
5.939549999999997
 31
0.0
  0
LINE
  5
704
330
5FD
100
AcDbEntity
  8
@_line-gallery
  6
Continuous
370
    -3
100
AcDbLine
 10
3.449501
 20
6.002978999999997
 30
0.0
 11
3.478844999999998
 21
6.002978999999997
 31
0.0
  0
LINE
  5
705
330
5FD
100
AcDbEntity
  8
@_line-gallery
  6
Continuous
370
    -3
100
AcDbLine
 10
3.478844999999998
 20
5.939549999999997
 30
0.0
 11
3.449501
 21
5.939549999999997
 31
0.0
  0
LINE
  5
706
330
5FD
100
AcDbEntity
  8
@_line-gallery
  6
Continuous
370
    -3
100
AcDbLine
 10
3.264524
 20
5.939549999999997
 30
0.0
 11
3.264524
 21
5.841483
 31
0.0
  0
LWPOLYLINE
  5
707
330
5FD
100
AcDbEntity
  8
@_line-gallery
  6
Continuous
370
    -3
100
AcDbPolyline
 90
        2
 70
     0
 43
0.0
 10
3.242329
 20
5.939549999999997
 10
3.242329
 20
5.675683999999997
  0
LINE
  5
708
330
5FD
100
AcDbEntity
  8
@_line-gallery
  6
Continuous
370
    -3
100
AcDbLine
 10
2.859698999999998
 20
5.939549999999997
 30
0.0
 11
2.789536999999998
 21
5.939549999999997
 31
0.0
  0
LINE
  5
709
330
5FD
100
AcDbEntity
  8
@_line-gallery
  6
Continuous
370
    -3
100
AcDbLine
 10
3.242329
 20
6.002978999999997
 30
0.0
 11
3.264524
 21
6.002978999999997
 31
0.0
  0
LINE
  5
70A
330
5FD
100
AcDbEntity
  8
@_line-gallery
  6
Continuous
370
    -3
100
AcDbLine
 10
3.449501
 20
6.499698999999997
 30
0.0
 11
3.449501
 21
6.645997999999997
 31
0.0
  0
LINE
  5
70B
330
5FD
100
AcDbEntity
  8
@_line-gallery
  6
Continuous
370
    -3
100
AcDbLine
 10
3.478844999999998
 20
6.499698999999997
 30
0.0
 11
3.478844999999998
 21
6.645997999999997
 31
0.0
  0
LINE
  5
70C
330
5FD
100
AcDbEntity
  8
@_line-gallery
  6
Continuous
370
    -3
100
AcDbLine
 10
3.449501
 20
6.716422
 30
0.0
 11
3.449501
 21
6.865889999999997
 31
0.0
  0
LINE
  5
70D
330
5FD
100
AcDbEntity
  8
@_line-gallery
  6
Continuous
370
    -3
100
AcDbLine
 10
3.478844999999998
 20
6.716422
 30
0.0
 11
3.478844999999998
 21
6.865889999999997
 31
0.0
  0
LINE
  5
70E
330
5FD
100
AcDbEntity
  8
@_line-gallery
  6
Continuous
370
    -3
100
AcDbLine
 10
3.449501
 20
6.645997999999997
 30
0.0
 11
3.478844999999998
 21
6.645997999999997
 31
0.0
  0
LINE
  5
70F
330
5FD
100
AcDbEntity
  8
@_line-gallery
  6
Continuous
370
    -3
100
AcDbLine
 10
3.449501
 20
6.716422
 30
0.0
 11
3.478844999999998
 21
6.716422
 31
0.0
  0
LWPOLYLINE
  5
710
330
5FD
100
AcDbEntity
  8
@_line-gallery
  6
Continuous
370
    -3
100
AcDbPolyline
 90
        2
 70
     0
 43
0.0
 10
3.449501
 20
6.499698999999997
 10
3.090943
 20
6.499698999999997
  0
LWPOLYLINE
  5
711
330
5FD
100
AcDbEntity
  8
@_line-gallery
  6
Continuous
370
    -3
100
AcDbPolyline
 90
        2
 70
     0
 43
0.0
 10
3.478844999999998
 20
6.865889999999997
 10
4.610913
 20
6.865889999999997
  0
LWPOLYLINE
  5
712
330
5FD
100
AcDbEntity
  8
@_line-gallery
  6
Continuous
370
    -3
100
AcDbPolyline
 90
        6
 70
     0
 43
0.0
 10
3.024554
 20
6.899961
 10
2.809111999999998
 20
6.899961
 10
2.809111999999998
 20
7.169407999999998
 10
3.306194999999997
 20
7.169407999999998
 10
3.306194999999997
 20
6.899961
 10
3.090943
 20
6.899961
  0
LWPOLYLINE
  5
713
330
5FD
100
AcDbEntity
  8
@_line-gallery
  6
Continuous
370
    -3
100
AcDbPolyline
 90
        2
 70
     0
 43
0.0
 10
3.090943
 20
6.865889999999997
 10
3.449501
 20
6.865889999999997
  0
LWPOLYLINE
  5
714
330
5FD
100
AcDbEntity
  8
@_line-gallery
  6
Continuous
370
    -3
100
AcDbPolyline
 90
        3
 70
     0
 43
0.0
 10
3.024554
 20
6.499698999999997
 10
2.67147
 20
6.499698999999997
 10
2.67147
 20
6.645997999999997
  0
LWPOLYLINE
  5
715
330
5FD
100
AcDbEntity
  8
@_line-gallery
  6
Continuous
370
    -3
100
AcDbPolyline
 90
        2
 70
     0
 43
0.0
 10
3.090943
 20
6.465205999999997
 10
3.242329
 20
6.465205999999997
  0
LINE
  5
716
330
5FD
100
AcDbEntity
  8
@_line-gallery
  6
Continuous
370
    -3
100
AcDbLine
 10
3.024554
 20
6.308450999999998
 30
0.0
 11
3.024554
 21
6.283068
 31
0.0
  0
LINE
  5
717
330
5FD
100
AcDbEntity
  8
@_line-gallery
  6
Continuous
370
    -3
100
AcDbLine
 10
3.024554
 20
6.499698999999997
 30
0.0
 11
3.024554
 21
6.465205999999997
 31
0.0
  0
LINE
  5
718
330
5FD
100
AcDbEntity
  8
@_line-gallery
  6
Continuous
370
    -3
100
AcDbLine
 10
3.090943
 20
6.499698999999997
 30
0.0
 11
3.090943
 21
6.465205999999997
 31
0.0
  0
LINE
  5
719
330
5FD
100
AcDbEntity
  8
@_line-gallery
  6
Continuous
370
    -3
100
AcDbLine
 10
3.090943
 20
6.308450999999998
 30
0.0
 11
3.090943
 21
6.283068
 31
0.0
  0
LINE
  5
71A
330
5FD
100
AcDbEntity
  8
@_line-gallery
  6
Continuous
370
    -3
100
AcDbLine
 10
3.303547
 20
6.465205999999997
 30
0.0
 11
3.434088999999998
 21
6.465205999999997
 31
0.0
  0
LWPOLYLINE
  5
71B
330
5FD
100
AcDbEntity
  8
@_line-gallery
  6
Continuous
370
    -3
100
AcDbPolyline
 90
        2
 70
     0
 43
0.0
 10
3.242329
 20
6.465205999999997
 10
3.242329
 20
6.409078
  0
LWPOLYLINE
  5
71C
330
5FD
100
AcDbEntity
  8
@_line-gallery
  6
Continuous
370
    -3
100
AcDbPolyline
 90
        2
 70
     0
 43
0.0
 10
3.242329
 20
6.336554
 10
3.242329
 20
6.308450999999998
  0
LINE
  5
71D
330
5FD
100
AcDbEntity
  8
@_line-gallery
  6
Continuous
370
    -3
100
AcDbLine
 10
3.303547
 20
6.409078
 30
0.0
 11
3.303547
 21
6.465205999999997
 31
0.0
  0
LWPOLYLINE
  5
71E
330
5FD
100
AcDbEntity
  8
@_line-gallery
  6
Continuous
370
    -3
100
AcDbPolyline
 90
        3
 70
     0
 43
0.0
 10
2.67147
 20
6.716422
 10
2.67147
 20
6.865889999999997
 10
3.024554
 20
6.865889999999997
  0
LWPOLYLINE
  5
71F
330
5FD
100
AcDbEntity
  8
@_line-gallery
  6
Continuous
370
    -3
100
AcDbPolyline
 90
        3
 70
     0
 43
0.0
 10
2.642733
 20
6.645997999999997
 10
2.642733
 20
6.597127
 10
2.604256
 20
6.597127
  0
LINE
  5
720
330
5FD
100
AcDbEntity
  8
@_line-gallery
  6
Continuous
370
    -3
100
AcDbLine
 10
2.642733
 20
6.645997999999997
 30
0.0
 11
2.67147
 21
6.645997999999997
 31
0.0
  0
LINE
  5
721
330
5FD
100
AcDbEntity
  8
@_line-gallery
  6
Continuous
370
    -3
100
AcDbLine
 10
2.642733
 20
6.716422
 30
0.0
 11
2.67147
 21
6.716422
 31
0.0
  0
LWPOLYLINE
  5
722
330
5FD
100
AcDbEntity
  8
@_line-gallery
  6
Continuous
370
    -3
100
AcDbPolyline
 90
        3
 70
     0
 43
0.0
 10
2.859698999999998
 20
6.438087
 10
2.859698999999998
 20
6.465205999999997
 10
3.024554
 20
6.465205999999997
  0
LWPOLYLINE
  5
723
330
5FD
100
AcDbEntity
  8
@_line-gallery
  6
Continuous
370
    -3
100
AcDbPolyline
 90
        2
 70
     0
 43
0.0
 10
2.859698999999998
 20
6.308450999999998
 10
2.859698999999998
 20
6.332927999999999
  0
LINE
  5
724
330
5FD
100
AcDbEntity
  8
@_line-gallery
  6
Continuous
370
    -3
100
AcDbLine
 10
3.024554
 20
6.308450999999998
 30
0.0
 11
2.859698999999998
 21
6.308450999999998
 31
0.0
  0
LINE
  5
725
330
5FD
100
AcDbEntity
  8
@_line-gallery
  6
Continuous
370
    -3
100
AcDbLine
 10
3.090943
 20
6.283068
 30
0.0
 11
3.242329
 21
6.283068
 31
0.0
  0
LINE
  5
726
330
5FD
100
AcDbEntity
  8
@_line-gallery
  6
Continuous
370
    -3
100
AcDbLine
 10
2.631797999999998
 20
5.939549999999997
 30
0.0
 11
2.631797999999998
 21
5.841483
 31
0.0
  0
LINE
  5
727
330
5FD
100
AcDbEntity
  8
@_line-gallery
  6
Continuous
370
    -3
100
AcDbLine
 10
2.313600999999998
 20
6.147992999999997
 30
0.0
 11
2.737864
 21
6.147992999999997
 31
0.0
  0
LINE
  5
728
330
5FD
100
AcDbEntity
  8
@_line-gallery
  6
Continuous
370
    -3
100
AcDbLine
 10
2.237594
 20
6.114967
 30
0.0
 11
2.237594
 21
6.002978999999997
 31
0.0
  0
LWPOLYLINE
  5
729
330
5FD
100
AcDbEntity
  8
@_line-gallery
  6
Continuous
370
    -3
100
AcDbPolyline
 90
        2
 70
     0
 43
0.0
 10
2.237594
 20
6.114967
 10
2.631797999999998
 20
6.114967
  0
LWPOLYLINE
  5
72A
330
5FD
100
AcDbEntity
  8
@_line-gallery
  6
Continuous
370
    -3
100
AcDbPolyline
 90
        2
 70
     0
 43
0.0
 10
2.210849
 20
5.939549999999997
 10
2.210849
 20
5.899901999999999
  0
LINE
  5
72B
330
5FD
100
AcDbEntity
  8
@_line-gallery
  6
Continuous
370
    -3
100
AcDbLine
 10
2.237594
 20
5.939549999999997
 30
0.0
 11
2.237594
 21
5.841483
 31
0.0
  0
LINE
  5
72C
330
5FD
100
AcDbEntity
  8
@_line-gallery
  6
Continuous
370
    -3
100
AcDbLine
 10
2.631797999999998
 20
6.002978999999997
 30
0.0
 11
2.859698999999998
 21
6.002978999999997
 31
0.0
  0
LINE
  5
72D
330
5FD
100
AcDbEntity
  8
@_line-gallery
  6
Continuous
370
    -3
100
AcDbLine
 10
2.210849
 20
6.002978999999997
 30
0.0
 11
2.237594
 21
6.002978999999997
 31
0.0
  0
LINE
  5
72E
330
5FD
100
AcDbEntity
  8
@_line-gallery
  6
Continuous
370
    -3
100
AcDbLine
 10
1.925183
 20
5.939549999999997
 30
0.0
 11
1.905634999999999
 21
5.939549999999997
 31
0.0
  0
LINE
  5
72F
330
5FD
100
AcDbEntity
  8
@_line-gallery
  6
Continuous
370
    -3
100
AcDbLine
 10
2.237594
 20
5.939549999999997
 30
0.0
 11
2.210849
 21
5.939549999999997
 31
0.0
  0
LWPOLYLINE
  5
730
330
5FD
100
AcDbEntity
  8
@_line-gallery
  6
Continuous
370
    -3
100
AcDbPolyline
 90
        2
 70
     0
 43
0.0
 10
2.859698999999998
 20
6.002978999999997
 10
2.859698999999998
 20
6.283068
  0
LWPOLYLINE
  5
731
330
5FD
100
AcDbEntity
  8
@_line-gallery
  6
Continuous
370
    -3
100
AcDbPolyline
 90
        2
 70
     0
 43
0.0
 10
2.631797999999998
 20
5.841483
 10
2.237594
 20
5.841483
  0
LINE
  5
732
330
5FD
100
AcDbEntity
  8
@_line-gallery
  6
Continuous
370
    -3
100
AcDbLine
 10
2.720638999999998
 20
5.939549999999997
 30
0.0
 11
2.631797999999998
 21
5.939549999999997
 31
0.0
  0
LWPOLYLINE
  5
733
330
5FD
100
AcDbEntity
  8
@_line-gallery
  6
Continuous
370
    -3
100
AcDbPolyline
 90
        4
 70
     0
 43
0.0
 10
2.789536999999998
 20
5.807481
 10
2.829689
 20
5.807481
 10
2.829689
 20
5.472367
 10
2.789536999999998
 20
5.472367
  0
LINE
  5
734
330
5FD
100
AcDbEntity
  8
@_line-gallery
  6
Continuous
370
    -3
100
AcDbLine
 10
2.789536999999998
 20
5.807481
 30
0.0
 11
2.789536999999998
 21
5.939549999999997
 31
0.0
  0
LINE
  5
735
330
5FD
100
AcDbEntity
  8
@_line-gallery
  6
Continuous
370
    -3
100
AcDbLine
 10
2.720638999999998
 20
5.472367
 30
0.0
 11
2.720638999999998
 21
5.44413
 31
0.0
  0
LWPOLYLINE
  5
736
330
5FD
100
AcDbEntity
  8
@_line-gallery
  6
Continuous
370
    -3
100
AcDbPolyline
 90
        4
 70
     0
 43
0.0
 10
2.720638999999998
 20
5.472367
 10
2.367031
 20
5.472367
 10
2.367031
 20
5.807481
 10
2.720638999999998
 20
5.807481
  0
LINE
  5
737
330
5FD
100
AcDbEntity
  8
@_line-gallery
  6
Continuous
370
    -3
100
AcDbLine
 10
2.789536999999998
 20
5.44413
 30
0.0
 11
2.927222
 21
5.44413
 31
0.0
  0
LWPOLYLINE
  5
738
330
5FD
100
AcDbEntity
  8
@_line-gallery
  6
Continuous
370
    -3
100
AcDbPolyline
 90
        2
 70
     0
 43
0.0
 10
3.242329
 20
6.283068
 10
3.242329
 20
6.002978999999997
  0
LINE
  5
739
330
5FD
100
AcDbEntity
  8
@_line-gallery
  6
Continuous
370
    -3
100
AcDbLine
 10
2.050577999999998
 20
7.035305999999997
 30
0.0
 11
2.050577999999998
 21
7.01353
 31
0.0
  0
LINE
  5
73A
330
5FD
100
AcDbEntity
  8
@_line-gallery
  6
Continuous
370
    -3
100
AcDbLine
 10
2.108791999999998
 20
7.035305999999997
 30
0.0
 11
2.108791999999998
 21
7.01353
 31
0.0
  0
LINE
  5
73B
330
5FD
100
AcDbEntity
  8
@_line-gallery
  6
Continuous
370
    -3
100
AcDbLine
 10
1.925183
 20
6.027503
 30
0.0
 11
2.012647
 21
6.114967
 31
0.0
  0
LINE
  5
73C
330
5FD
100
AcDbEntity
  8
@_line-gallery
  6
Continuous
370
    -3
100
AcDbLine
 10
2.152429999999998
 20
5.841483
 30
0.0
 11
2.210849
 21
5.899901999999999
 31
0.0
  0
LINE
  5
73D
330
5FD
100
AcDbEntity
  8
@_line-gallery
  6
Continuous
370
    -3
100
AcDbLine
 10
1.925183
 20
5.918417999999999
 30
0.0
 11
2.002116999999999
 21
5.841483
 31
0.0
  0
LINE
  5
73E
330
5FD
100
AcDbEntity
  8
@_line-gallery
  6
Continuous
370
    -3
100
AcDbLine
 10
2.131067999999999
 20
6.114967
 30
0.0
 11
2.210849
 21
6.035187
 31
0.0
  0
LINE
  5
73F
330
5FD
100
AcDbEntity
  8
@_line-gallery
  6
Continuous
370
    -3
100
AcDbLine
 10
1.905634999999999
 20
6.114967
 30
0.0
 11
1.905634999999999
 21
6.002978999999997
 31
0.0
  0
LINE
  5
740
330
5FD
100
AcDbEntity
  8
@_line-gallery
  6
Continuous
370
    -3
100
AcDbLine
 10
1.165754999999998
 20
6.719113
 30
0.0
 11
1.165754999999998
 21
6.630874999999997
 31
0.0
  0
LWPOLYLINE
  5
741
330
5FD
100
AcDbEntity
  8
@_line-gallery
  6
Continuous
370
    -3
100
AcDbPolyline
 90
        2
 70
     0
 43
0.0
 10
1.957292999999999
 20
6.841110999999997
 10
2.050577999999998
 20
6.841110999999997
  0
LWPOLYLINE
  5
742
330
5FD
100
AcDbEntity
  8
@_line-gallery
  6
Continuous
370
    -3
100
AcDbPolyline
 90
        2
 70
     0
 43
0.0
 10
1.868974
 20
6.761185
 10
1.922299
 20
6.761185
  0
LWPOLYLINE
  5
743
330
5FD
100
AcDbEntity
  8
@_line-gallery
  6
Continuous
370
    -3
100
AcDbPolyline
 90
        2
 70
     0
 43
0.0
 10
1.83398
 20
6.521406999999999
 10
1.581927
 20
6.521406999999999
  0
LWPOLYLINE
  5
744
330
5FD
100
AcDbEntity
  8
@_line-gallery
  6
Continuous
370
    -3
100
AcDbPolyline
 90
        3
 70
     0
 43
0.0
 10
1.546932999999999
 20
6.597127
 10
1.506941
 20
6.597127
 10
1.506941
 20
6.645997999999997
  0
LWPOLYLINE
  5
745
330
5FD
100
AcDbEntity
  8
@_line-gallery
  6
Continuous
370
    -3
100
AcDbPolyline
 90
        2
 70
     0
 43
0.0
 10
1.922299
 20
6.597127
 10
1.868974
 20
6.597127
  0
LINE
  5
746
330
5FD
100
AcDbEntity
  8
@_line-gallery
  6
Continuous
370
    -3
100
AcDbLine
 10
1.83398
 20
6.841110999999997
 30
0.0
 11
1.868974
 21
6.761185
 31
0.0
  0
LINE
  5
747
330
5FD
100
AcDbEntity
  8
@_line-gallery
  6
Continuous
370
    -3
100
AcDbLine
 10
1.868974
 20
6.761185
 30
0.0
 11
1.922299
 21
6.761185
 31
0.0
  0
LINE
  5
748
330
5FD
100
AcDbEntity
  8
@_line-gallery
  6
Continuous
370
    -3
100
AcDbLine
 10
1.922299
 20
6.761185
 30
0.0
 11
1.957292999999999
 21
6.841110999999997
 31
0.0
  0
LINE
  5
749
330
5FD
100
AcDbEntity
  8
@_line-gallery
  6
Continuous
370
    -3
100
AcDbLine
 10
1.957292999999999
 20
6.521406999999999
 30
0.0
 11
1.922299
 21
6.597127
 31
0.0
  0
LINE
  5
74A
330
5FD
100
AcDbEntity
  8
@_line-gallery
  6
Continuous
370
    -3
100
AcDbLine
 10
1.868974
 20
6.597127
 30
0.0
 11
1.83398
 21
6.521406999999999
 31
0.0
  0
LWPOLYLINE
  5
74B
330
5FD
100
AcDbEntity
  8
@_line-gallery
  6
Continuous
370
    -3
100
AcDbPolyline
 90
        2
 70
     0
 43
0.0
 10
2.235615999999998
 20
6.761185
 10
2.28894
 20
6.761185
  0
LWPOLYLINE
  5
74C
330
5FD
100
AcDbEntity
  8
@_line-gallery
  6
Continuous
370
    -3
100
AcDbPolyline
 90
        2
 70
     0
 43
0.0
 10
2.28894
 20
6.597127
 10
2.235615999999998
 20
6.597127
  0
LINE
  5
74D
330
5FD
100
AcDbEntity
  8
@_line-gallery
  6
Continuous
370
    -3
100
AcDbLine
 10
2.200620999999999
 20
6.841110999999997
 30
0.0
 11
2.235615999999998
 21
6.761185
 31
0.0
  0
LINE
  5
74E
330
5FD
100
AcDbEntity
  8
@_line-gallery
  6
Continuous
370
    -3
100
AcDbLine
 10
2.235615999999998
 20
6.761185
 30
0.0
 11
2.28894
 21
6.761185
 31
0.0
  0
LINE
  5
74F
330
5FD
100
AcDbEntity
  8
@_line-gallery
  6
Continuous
370
    -3
100
AcDbLine
 10
2.28894
 20
6.761185
 30
0.0
 11
2.323934999999999
 21
6.841110999999997
 31
0.0
  0
LINE
  5
750
330
5FD
100
AcDbEntity
  8
@_line-gallery
  6
Continuous
370
    -3
100
AcDbLine
 10
2.323934999999999
 20
6.521406999999999
 30
0.0
 11
2.28894
 21
6.597127
 31
0.0
  0
LINE
  5
751
330
5FD
100
AcDbEntity
  8
@_line-gallery
  6
Continuous
370
    -3
100
AcDbLine
 10
2.235615999999998
 20
6.597127
 30
0.0
 11
2.200620999999999
 21
6.521406999999999
 31
0.0
  0
LINE
  5
752
330
5FD
100
AcDbEntity
  8
@_line-gallery
  6
Continuous
370
    -3
100
AcDbLine
 10
1.546932999999999
 20
6.761185
 30
0.0
 11
1.581927
 21
6.841110999999997
 31
0.0
  0
LINE
  5
753
330
5FD
100
AcDbEntity
  8
@_line-gallery
  6
Continuous
370
    -3
100
AcDbLine
 10
1.581927
 20
6.521406999999999
 30
0.0
 11
1.546932999999999
 21
6.597127
 31
0.0
  0
LINE
  5
754
330
5FD
100
AcDbEntity
  8
@_line-gallery
  6
Continuous
370
    -3
100
AcDbLine
 10
2.569261999999999
 20
6.841110999999997
 30
0.0
 11
2.604256
 21
6.761185
 31
0.0
  0
LINE
  5
755
330
5FD
100
AcDbEntity
  8
@_line-gallery
  6
Continuous
370
    -3
100
AcDbLine
 10
2.604256
 20
6.597127
 30
0.0
 11
2.569261999999999
 21
6.521406999999999
 31
0.0
  0
LWPOLYLINE
  5
756
330
5FD
100
AcDbEntity
  8
@_line-gallery
  6
Continuous
370
    -3
100
AcDbPolyline
 90
        2
 70
     0
 43
0.0
 10
2.569261999999999
 20
6.521406999999999
 10
2.323934999999999
 20
6.521406999999999
  0
LWPOLYLINE
  5
757
330
5FD
100
AcDbEntity
  8
@_line-gallery
  6
Continuous
370
    -3
100
AcDbPolyline
 90
        3
 70
     0
 43
0.0
 10
2.604256
 20
6.761185
 10
2.642733
 20
6.761185
 10
2.642733
 20
6.716422
  0
LWPOLYLINE
  5
758
330
5FD
100
AcDbEntity
  8
@_line-gallery
  6
Continuous
370
    -3
100
AcDbPolyline
 90
        2
 70
     0
 43
0.0
 10
1.581927
 20
6.841110999999997
 10
1.83398
 20
6.841110999999997
  0
LWPOLYLINE
  5
759
330
5FD
100
AcDbEntity
  8
@_line-gallery
  6
Continuous
370
    -3
100
AcDbPolyline
 90
        2
 70
     0
 43
0.0
 10
2.050577999999998
 20
6.521406999999999
 10
1.957292999999999
 20
6.521406999999999
  0
LWPOLYLINE
  5
75A
330
5FD
100
AcDbEntity
  8
@_line-gallery
  6
Continuous
370
    -3
100
AcDbPolyline
 90
        3
 70
     0
 43
0.0
 10
2.108791999999998
 20
6.485793
 10
2.210849
 20
6.485793
 10
2.210849
 20
6.147992999999997
  0
LINE
  5
75B
330
5FD
100
AcDbEntity
  8
@_line-gallery
  6
Continuous
370
    -3
100
AcDbLine
 10
2.050577999999998
 20
6.147992999999997
 30
0.0
 11
2.050577999999998
 21
6.114967
 31
0.0
  0
LINE
  5
75C
330
5FD
100
AcDbEntity
  8
@_line-gallery
  6
Continuous
370
    -3
100
AcDbLine
 10
2.108791999999998
 20
6.147992999999997
 30
0.0
 11
2.108791999999998
 21
6.114967
 31
0.0
  0
LWPOLYLINE
  5
75D
330
5FD
100
AcDbEntity
  8
@_line-gallery
  6
Continuous
370
    -3
100
AcDbPolyline
 90
        2
 70
     0
 43
0.0
 10
2.323934999999999
 20
6.841110999999997
 10
2.569261999999999
 20
6.841110999999997
  0
LWPOLYLINE
  5
75E
330
5FD
100
AcDbEntity
  8
@_line-gallery
  6
Continuous
370
    -3
100
AcDbPolyline
 90
        2
 70
     0
 43
0.0
 10
2.200620999999999
 20
6.521406999999999
 10
2.108791999999998
 20
6.521406999999999
  0
LWPOLYLINE
  5
75F
330
5FD
100
AcDbEntity
  8
@_line-gallery
  6
Continuous
370
    -3
100
AcDbPolyline
 90
        3
 70
     0
 43
0.0
 10
1.356290999999999
 20
5.939549999999997
 10
1.356290999999999
 20
5.524291
 10
1.214617
 20
5.524291
  0
LWPOLYLINE
  5
760
330
5FD
100
AcDbEntity
  8
@_line-gallery
  6
Continuous
370
    -3
100
AcDbPolyline
 90
        3
 70
     0
 43
0.0
 10
1.470920999999997
 20
6.002978999999997
 10
1.470920999999997
 20
6.114967
 10
1.905634999999999
 20
6.114967
  0
LINE
  5
761
330
5FD
100
AcDbEntity
  8
@_line-gallery
  6
Continuous
370
    -3
100
AcDbLine
 10
1.905634999999999
 20
6.002978999999997
 30
0.0
 11
1.925183
 21
6.002978999999997
 31
0.0
  0
LINE
  5
762
330
5FD
100
AcDbEntity
  8
@_line-gallery
  6
Continuous
370
    -3
100
AcDbLine
 10
1.470920999999997
 20
5.939549999999997
 30
0.0
 11
1.356290999999999
 21
5.939549999999997
 31
0.0
  0
LINE
  5
763
330
5FD
100
AcDbEntity
  8
@_line-gallery
  6
Continuous
370
    -3
100
AcDbLine
 10
1.905634999999999
 20
5.939549999999997
 30
0.0
 11
1.905634999999999
 21
5.841483
 31
0.0
  0
LINE
  5
764
330
5FD
100
AcDbEntity
  8
@_line-gallery
  6
Continuous
370
    -3
100
AcDbLine
 10
2.108791999999998
 20
6.147992999999997
 30
0.0
 11
2.210849
 21
6.147992999999997
 31
0.0
  0
LWPOLYLINE
  5
765
330
5FD
100
AcDbEntity
  8
@_line-gallery
  6
Continuous
370
    -3
100
AcDbPolyline
 90
        3
 70
     0
 43
0.0
 10
1.925183
 20
6.147992999999997
 10
1.925183
 20
6.485793
 10
2.050577999999998
 20
6.485793
  0
LWPOLYLINE
  5
766
330
5FD
100
AcDbEntity
  8
@_line-gallery
  6
Continuous
370
    -3
100
AcDbPolyline
 90
        2
 70
     0
 43
0.0
 10
1.925183
 20
5.918417999999999
 10
1.925183
 20
5.939549999999997
  0
LWPOLYLINE
  5
767
330
5FD
100
AcDbEntity
  8
@_line-gallery
  6
Continuous
370
    -3
100
AcDbPolyline
 90
        2
 70
     0
 43
0.0
 10
2.210849
 20
5.807481
 10
2.210849
 20
5.472367
  0
LWPOLYLINE
  5
768
330
5FD
100
AcDbEntity
  8
@_line-gallery
  6
Continuous
370
    -3
100
AcDbPolyline
 90
        2
 70
     0
 43
0.0
 10
2.210849
 20
6.035187
 10
2.210849
 20
6.002978999999997
  0
LWPOLYLINE
  5
769
330
5FD
100
AcDbEntity
  8
@_line-gallery
  6
Continuous
370
    -3
100
AcDbPolyline
 90
        2
 70
     0
 43
0.0
 10
2.108791999999998
 20
6.114967
 10
2.131067999999999
 20
6.114967
  0
LWPOLYLINE
  5
76A
330
5FD
100
AcDbEntity
  8
@_line-gallery
  6
Continuous
370
    -3
100
AcDbPolyline
 90
        2
 70
     0
 43
0.0
 10
2.012647
 20
6.114967
 10
2.050577999999998
 20
6.114967
  0
LWPOLYLINE
  5
76B
330
5FD
100
AcDbEntity
  8
@_line-gallery
  6
Continuous
370
    -3
100
AcDbPolyline
 90
        3
 70
     0
 43
0.0
 10
1.905634999999999
 20
5.841483
 10
1.470920999999997
 20
5.841483
 10
1.470920999999997
 20
5.939549999999997
  0
LWPOLYLINE
  5
76C
330
5FD
100
AcDbEntity
  8
@_line-gallery
  6
Continuous
370
    -3
100
AcDbPolyline
 90
        2
 70
     0
 43
0.0
 10
2.050577999999998
 20
5.841483
 10
2.002116999999999
 20
5.841483
  0
LWPOLYLINE
  5
76D
330
5FD
100
AcDbEntity
  8
@_line-gallery
  6
Continuous
370
    -3
100
AcDbPolyline
 90
        2
 70
     0
 43
0.0
 10
2.152429999999998
 20
5.841483
 10
2.108791999999998
 20
5.841483
  0
LWPOLYLINE
  5
76E
330
5FD
100
AcDbEntity
  8
@_line-gallery
  6
Continuous
370
    -3
100
AcDbPolyline
 90
        2
 70
     0
 43
0.0
 10
1.925183
 20
6.002978999999997
 10
1.925183
 20
6.027503
  0
LINE
  5
76F
330
5FD
100
AcDbEntity
  8
@_line-gallery
  6
Continuous
370
    -3
100
AcDbLine
 10
2.050577999999998
 20
5.807481
 30
0.0
 11
1.925183
 21
5.807481
 31
0.0
  0
LINE
  5
770
330
5FD
100
AcDbEntity
  8
@_line-gallery
  6
Continuous
370
    -3
100
AcDbLine
 10
2.050577999999998
 20
5.841483
 30
0.0
 11
2.050577999999998
 21
5.807481
 31
0.0
  0
LINE
  5
771
330
5FD
100
AcDbEntity
  8
@_line-gallery
  6
Continuous
370
    -3
100
AcDbLine
 10
2.108791999999998
 20
5.841483
 30
0.0
 11
2.108791999999998
 21
5.807481
 31
0.0
  0
LINE
  5
772
330
5FD
100
AcDbEntity
  8
@_line-gallery
  6
Continuous
370
    -3
100
AcDbLine
 10
2.050577999999998
 20
5.472367
 30
0.0
 11
2.050577999999998
 21
5.456914
 31
0.0
  0
LINE
  5
773
330
5FD
100
AcDbEntity
  8
@_line-gallery
  6
Continuous
370
    -3
100
AcDbLine
 10
2.108791999999998
 20
5.472367
 30
0.0
 11
2.108791999999998
 21
5.456914
 31
0.0
  0
LWPOLYLINE
  5
774
330
5FD
100
AcDbEntity
  8
@_line-gallery
  6
Continuous
370
    -3
100
AcDbPolyline
 90
        4
 70
     0
 43
0.0
 10
1.146230999999998
 20
5.524291
 10
0.9827949999999999
 20
5.524291
 10
0.9827949999999999
 20
6.41633
 10
1.146230999999998
 20
6.41633
  0
LINE
  5
775
330
5FD
100
AcDbEntity
  8
@_line-gallery
  6
Continuous
370
    -3
100
AcDbLine
 10
1.146230999999998
 20
5.496596
 30
0.0
 11
0.8973459999999999
 21
5.496596
 31
0.0
  0
LINE
  5
776
330
5FD
100
AcDbEntity
  8
@_line-gallery
  6
Continuous
370
    -3
100
AcDbLine
 10
1.214617
 20
6.41633
 30
0.0
 11
1.214617
 21
6.560417
 31
0.0
  0
LINE
  5
777
330
5FD
100
AcDbEntity
  8
@_line-gallery
  6
Continuous
370
    -3
100
AcDbLine
 10
1.146230999999998
 20
5.524291
 30
0.0
 11
1.146230999999998
 21
5.496596
 31
0.0
  0
LINE
  5
778
330
5FD
100
AcDbEntity
  8
@_line-gallery
  6
Continuous
370
    -3
100
AcDbLine
 10
2.050577999999998
 20
5.472367
 30
0.0
 11
1.925183
 21
5.472367
 31
0.0
  0
LWPOLYLINE
  5
779
330
5FD
100
AcDbEntity
  8
@_line-gallery
  6
Continuous
370
    -3
100
AcDbPolyline
 90
        2
 70
     0
 43
0.0
 10
1.925183
 20
5.472367
 10
1.925183
 20
5.807481
  0
LWPOLYLINE
  5
77A
330
5FD
100
AcDbEntity
  8
@_line-gallery
  6
Continuous
370
    -3
100
AcDbPolyline
 90
        2
 70
     0
 43
0.0
 10
2.210849
 20
5.456914
 10
2.108791999999998
 20
5.456914
  0
LWPOLYLINE
  5
77B
330
5FD
100
AcDbEntity
  8
@_line-gallery
  6
Continuous
370
    -3
100
AcDbPolyline
 90
        2
 70
     0
 43
0.0
 10
2.210849
 20
5.456914
 10
2.210849
 20
5.235732999999997
  0
LINE
  5
77C
330
5FD
100
AcDbEntity
  8
@_line-gallery
  6
Continuous
370
    -3
100
AcDbLine
 10
0.6511700000000003
 20
7.52656
 30
0.0
 11
0.729544
 21
7.52656
 31
0.0
  0
LINE
  5
77D
330
5FD
100
AcDbEntity
  8
@_line-gallery
  6
Continuous
370
    -3
100
AcDbLine
 10
1.266328
 20
7.035305999999997
 30
0.0
 11
1.266328
 21
7.00008
 31
0.0
  0
LINE
  5
77E
330
5FD
100
AcDbEntity
  8
@_line-gallery
  6
Continuous
370
    -3
100
AcDbLine
 10
1.335906999999999
 20
7.035305999999997
 30
0.0
 11
1.335906999999999
 21
7.00008
 31
0.0
  0
LWPOLYLINE
  5
77F
330
5FD
100
AcDbEntity
  8
@_line-gallery
  6
Continuous
370
    -3
100
AcDbPolyline
 90
        2
 70
     0
 43
0.0
 10
1.934619999999999
 20
7.572438
 10
1.852572
 20
7.572438
  0
LWPOLYLINE
  5
780
330
5FD
100
AcDbEntity
  8
@_line-gallery
  6
Continuous
370
    -3
100
AcDbPolyline
 90
        3
 70
     0
 43
0.0
 10
0.6511700000000003
 20
7.572438
 10
0.6511700000000003
 20
7.781322
 10
1.139782999999997
 20
7.781322
  0
LINE
  5
781
330
5FD
100
AcDbEntity
  8
@_line-gallery
  6
Continuous
370
    -3
100
AcDbLine
 10
0.6511700000000003
 20
7.259110999999997
 30
0.0
 11
0.6511700000000003
 21
7.035305999999997
 31
0.0
  0
LINE
  5
782
330
5FD
100
AcDbEntity
  8
@_line-gallery
  6
Continuous
370
    -3
100
AcDbLine
 10
1.934619999999999
 20
7.572438
 30
0.0
 11
1.934619999999999
 21
7.781322
 31
0.0
  0
LWPOLYLINE
  5
783
330
5FD
100
AcDbEntity
  8
@_line-gallery
  6
Continuous
370
    -3
100
AcDbPolyline
 90
        2
 70
     0
 43
0.0
 10
1.175679
 20
7.781322
 10
1.415836999999999
 20
7.781322
  0
LWPOLYLINE
  5
784
330
5FD
100
AcDbEntity
  8
@_line-gallery
  6
Continuous
370
    -3
100
AcDbPolyline
 90
        2
 70
     0
 43
0.0
 10
1.450026
 20
7.781322
 10
1.934619999999999
 20
7.781322
  0
LINE
  5
785
330
5FD
100
AcDbEntity
  8
@_line-gallery
  6
Continuous
370
    -3
100
AcDbLine
 10
1.139782999999997
 20
7.641708
 30
0.0
 11
1.139782999999997
 21
7.572438
 31
0.0
  0
LINE
  5
786
330
5FD
100
AcDbEntity
  8
@_line-gallery
  6
Continuous
370
    -3
100
AcDbLine
 10
1.175679
 20
7.705807
 30
0.0
 11
1.175679
 21
7.781322
 31
0.0
  0
LINE
  5
787
330
5FD
100
AcDbEntity
  8
@_line-gallery
  6
Continuous
370
    -3
100
AcDbLine
 10
1.415836999999999
 20
7.705807
 30
0.0
 11
1.415836999999999
 21
7.781322
 31
0.0
  0
LINE
  5
788
330
5FD
100
AcDbEntity
  8
@_line-gallery
  6
Continuous
370
    -3
100
AcDbLine
 10
1.450026
 20
7.705807
 30
0.0
 11
1.450026
 21
7.781322
 31
0.0
  0
LINE
  5
789
330
5FD
100
AcDbEntity
  8
@_line-gallery
  6
Continuous
370
    -3
100
AcDbLine
 10
1.415836999999999
 20
7.641708
 30
0.0
 11
1.450026
 21
7.641708
 31
0.0
  0
LINE
  5
78A
330
5FD
100
AcDbEntity
  8
@_line-gallery
  6
Continuous
370
    -3
100
AcDbLine
 10
1.175679
 20
7.705807
 30
0.0
 11
1.139782999999997
 21
7.705807
 31
0.0
  0
LWPOLYLINE
  5
78B
330
5FD
100
AcDbEntity
  8
@_line-gallery
  6
Continuous
370
    -3
100
AcDbPolyline
 90
        2
 70
     0
 43
0.0
 10
1.139782999999997
 20
7.572438
 10
0.788516
 20
7.572438
  0
LINE
  5
78C
330
5FD
100
AcDbEntity
  8
@_line-gallery
  6
Continuous
370
    -3
100
AcDbLine
 10
1.139782999999997
 20
7.52656
 30
0.0
 11
1.139782999999997
 21
7.303872
 31
0.0
  0
LINE
  5
78D
330
5FD
100
AcDbEntity
  8
@_line-gallery
  6
Continuous
370
    -3
100
AcDbLine
 10
1.450026
 20
7.572438
 30
0.0
 11
1.450026
 21
7.641708
 31
0.0
  0
LINE
  5
78E
330
5FD
100
AcDbEntity
  8
@_line-gallery
  6
Continuous
370
    -3
100
AcDbLine
 10
1.450026
 20
7.52656
 30
0.0
 11
1.798727999999999
 21
7.52656
 31
0.0
  0
LWPOLYLINE
  5
78F
330
5FD
100
AcDbEntity
  8
@_line-gallery
  6
Continuous
370
    -3
100
AcDbPolyline
 90
        2
 70
     0
 43
0.0
 10
1.798727999999999
 20
7.572438
 10
1.450026
 20
7.572438
  0
LINE
  5
790
330
5FD
100
AcDbEntity
  8
@_line-gallery
  6
Continuous
370
    -3
100
AcDbLine
 10
1.852572
 20
7.52656
 30
0.0
 11
1.934619999999999
 21
7.52656
 31
0.0
  0
LINE
  5
791
330
5FD
100
AcDbEntity
  8
@_line-gallery
  6
Continuous
370
    -3
100
AcDbLine
 10
1.798727999999999
 20
7.303872
 30
0.0
 11
1.798727999999999
 21
7.259110999999997
 31
0.0
  0
LINE
  5
792
330
5FD
100
AcDbEntity
  8
@_line-gallery
  6
Continuous
370
    -3
100
AcDbLine
 10
1.852572
 20
7.52656
 30
0.0
 11
1.852572
 21
7.572438
 31
0.0
  0
LINE
  5
793
330
5FD
100
AcDbEntity
  8
@_line-gallery
  6
Continuous
370
    -3
100
AcDbLine
 10
1.450026
 20
7.303872
 30
0.0
 11
1.450026
 21
7.52656
 31
0.0
  0
LINE
  5
794
330
5FD
100
AcDbEntity
  8
@_line-gallery
  6
Continuous
370
    -3
100
AcDbLine
 10
1.415836999999999
 20
7.169933
 30
0.0
 11
1.415836999999999
 21
7.641708
 31
0.0
  0
LINE
  5
795
330
5FD
100
AcDbEntity
  8
@_line-gallery
  6
Continuous
370
    -3
100
AcDbLine
 10
1.450026
 20
7.303872
 30
0.0
 11
1.798727999999999
 21
7.303872
 31
0.0
  0
LINE
  5
796
330
5FD
100
AcDbEntity
  8
@_line-gallery
  6
Continuous
370
    -3
100
AcDbLine
 10
1.139782999999997
 20
7.259110999999997
 30
0.0
 11
0.788516
 21
7.259110999999997
 31
0.0
  0
LINE
  5
797
330
5FD
100
AcDbEntity
  8
@_line-gallery
  6
Continuous
370
    -3
100
AcDbLine
 10
1.175679
 20
7.169933
 30
0.0
 11
1.175679
 21
7.641708
 31
0.0
  0
LINE
  5
798
330
5FD
100
AcDbEntity
  8
@_line-gallery
  6
Continuous
370
    -3
100
AcDbLine
 10
1.139782999999997
 20
7.259110999999997
 30
0.0
 11
1.139782999999997
 21
7.169933
 31
0.0
  0
LINE
  5
799
330
5FD
100
AcDbEntity
  8
@_line-gallery
  6
Continuous
370
    -3
100
AcDbLine
 10
1.175679
 20
7.035305999999997
 30
0.0
 11
1.266328
 21
7.035305999999997
 31
0.0
  0
LWPOLYLINE
  5
79A
330
5FD
100
AcDbEntity
  8
@_line-gallery
  6
Continuous
370
    -3
100
AcDbPolyline
 90
        2
 70
     0
 43
0.0
 10
0.729544
 20
7.572438
 10
0.6511700000000003
 20
7.572438
  0
LINE
  5
79B
330
5FD
100
AcDbEntity
  8
@_line-gallery
  6
Continuous
370
    -3
100
AcDbLine
 10
0.788516
 20
7.52656
 30
0.0
 11
1.139782999999997
 21
7.52656
 31
0.0
  0
LINE
  5
79C
330
5FD
100
AcDbEntity
  8
@_line-gallery
  6
Continuous
370
    -3
100
AcDbLine
 10
0.788516
 20
7.303872
 30
0.0
 11
1.139782999999997
 21
7.303872
 31
0.0
  0
LINE
  5
79D
330
5FD
100
AcDbEntity
  8
@_line-gallery
  6
Continuous
370
    -3
100
AcDbLine
 10
0.729544
 20
7.259110999999997
 30
0.0
 11
0.6511700000000003
 21
7.259110999999997
 31
0.0
  0
LINE
  5
79E
330
5FD
100
AcDbEntity
  8
@_line-gallery
  6
Continuous
370
    -3
100
AcDbLine
 10
0.729544
 20
7.303872
 30
0.0
 11
0.729544
 21
7.259110999999997
 31
0.0
  0
LINE
  5
79F
330
5FD
100
AcDbEntity
  8
@_line-gallery
  6
Continuous
370
    -3
100
AcDbLine
 10
0.788516
 20
7.52656
 30
0.0
 11
0.788516
 21
7.572438
 31
0.0
  0
LINE
  5
7A0
330
5FD
100
AcDbEntity
  8
@_line-gallery
  6
Continuous
370
    -3
100
AcDbLine
 10
1.415836999999999
 20
7.169933
 30
0.0
 11
1.450026
 21
7.169933
 31
0.0
  0
LINE
  5
7A1
330
5FD
100
AcDbEntity
  8
@_line-gallery
  6
Continuous
370
    -3
100
AcDbLine
 10
1.175679
 20
7.118653999999997
 30
0.0
 11
1.139782999999997
 21
7.118653999999997
 31
0.0
  0
LINE
  5
7A2
330
5FD
100
AcDbEntity
  8
@_line-gallery
  6
Continuous
370
    -3
100
AcDbLine
 10
1.139782999999997
 20
7.118653999999997
 30
0.0
 11
1.139782999999997
 21
7.035305999999997
 31
0.0
  0
LINE
  5
7A3
330
5FD
100
AcDbEntity
  8
@_line-gallery
  6
Continuous
370
    -3
100
AcDbLine
 10
1.852572
 20
7.303872
 30
0.0
 11
1.934619999999999
 21
7.303872
 31
0.0
  0
LINE
  5
7A4
330
5FD
100
AcDbEntity
  8
@_line-gallery
  6
Continuous
370
    -3
100
AcDbLine
 10
1.798727999999999
 20
7.259110999999997
 30
0.0
 11
1.450026
 21
7.259110999999997
 31
0.0
  0
LINE
  5
7A5
330
5FD
100
AcDbEntity
  8
@_line-gallery
  6
Continuous
370
    -3
100
AcDbLine
 10
1.934619999999999
 20
7.259110999999997
 30
0.0
 11
1.852572
 21
7.259110999999997
 31
0.0
  0
LINE
  5
7A6
330
5FD
100
AcDbEntity
  8
@_line-gallery
  6
Continuous
370
    -3
100
AcDbLine
 10
1.978208
 20
7.118653999999997
 30
0.0
 11
1.978208
 21
7.035305999999997
 31
0.0
  0
LINE
  5
7A7
330
5FD
100
AcDbEntity
  8
@_line-gallery
  6
Continuous
370
    -3
100
AcDbLine
 10
1.934619999999999
 20
7.169933
 30
0.0
 11
1.934619999999999
 21
7.259110999999997
 31
0.0
  0
LINE
  5
7A8
330
5FD
100
AcDbEntity
  8
@_line-gallery
  6
Continuous
370
    -3
100
AcDbLine
 10
1.934619999999999
 20
7.169933
 30
0.0
 11
1.978208
 21
7.169933
 31
0.0
  0
LINE
  5
7A9
330
5FD
100
AcDbEntity
  8
@_line-gallery
  6
Continuous
370
    -3
100
AcDbLine
 10
1.450026
 20
7.118653999999997
 30
0.0
 11
1.415836999999999
 21
7.118653999999997
 31
0.0
  0
LINE
  5
7AA
330
5FD
100
AcDbEntity
  8
@_line-gallery
  6
Continuous
370
    -3
100
AcDbLine
 10
1.450026
 20
7.169933
 30
0.0
 11
1.450026
 21
7.259110999999997
 31
0.0
  0
LINE
  5
7AB
330
5FD
100
AcDbEntity
  8
@_line-gallery
  6
Continuous
370
    -3
100
AcDbLine
 10
1.934619999999999
 20
7.303872
 30
0.0
 11
1.934619999999999
 21
7.52656
 31
0.0
  0
LINE
  5
7AC
330
5FD
100
AcDbEntity
  8
@_line-gallery
  6
Continuous
370
    -3
100
AcDbLine
 10
1.450026
 20
7.035305999999997
 30
0.0
 11
1.934619999999999
 21
7.035305999999997
 31
0.0
  0
LINE
  5
7AD
330
5FD
100
AcDbEntity
  8
@_line-gallery
  6
Continuous
370
    -3
100
AcDbLine
 10
1.978208
 20
7.035305999999997
 30
0.0
 11
2.050577999999998
 21
7.035305999999997
 31
0.0
  0
LINE
  5
7AE
330
5FD
100
AcDbEntity
  8
@_line-gallery
  6
Continuous
370
    -3
100
AcDbLine
 10
1.978208
 20
7.01353
 30
0.0
 11
2.050577999999998
 21
7.01353
 31
0.0
  0
LINE
  5
7AF
330
5FD
100
AcDbEntity
  8
@_line-gallery
  6
Continuous
370
    -3
100
AcDbLine
 10
1.708988999999999
 20
7.01353
 30
0.0
 11
1.950004
 21
7.01353
 31
0.0
  0
LINE
  5
7B0
330
5FD
100
AcDbEntity
  8
@_line-gallery
  6
Continuous
370
    -3
100
AcDbLine
 10
1.685913
 20
6.967378
 30
0.0
 11
1.685913
 21
7.01353
 31
0.0
  0
LINE
  5
7B1
330
5FD
100
AcDbEntity
  8
@_line-gallery
  6
Continuous
370
    -3
100
AcDbLine
 10
1.708988999999999
 20
6.967378
 30
0.0
 11
1.708988999999999
 21
7.01353
 31
0.0
  0
LINE
  5
7B2
330
5FD
100
AcDbEntity
  8
@_line-gallery
  6
Continuous
370
    -3
100
AcDbLine
 10
1.950004
 20
6.967378
 30
0.0
 11
1.950004
 21
7.01353
 31
0.0
  0
LINE
  5
7B3
330
5FD
100
AcDbEntity
  8
@_line-gallery
  6
Continuous
370
    -3
100
AcDbLine
 10
1.978208
 20
6.967378
 30
0.0
 11
1.978208
 21
7.01353
 31
0.0
  0
LINE
  5
7B4
330
5FD
100
AcDbEntity
  8
@_line-gallery
  6
Continuous
370
    -3
100
AcDbLine
 10
1.950004
 20
6.869946
 30
0.0
 11
1.708988999999999
 21
6.869946
 31
0.0
  0
LINE
  5
7B5
330
5FD
100
AcDbEntity
  8
@_line-gallery
  6
Continuous
370
    -3
100
AcDbLine
 10
1.685913
 20
6.869946
 30
0.0
 11
1.447461999999999
 21
6.869946
 31
0.0
  0
LINE
  5
7B6
330
5FD
100
AcDbEntity
  8
@_line-gallery
  6
Continuous
370
    -3
100
AcDbLine
 10
1.708988999999999
 20
6.921225999999997
 30
0.0
 11
1.685913
 21
6.921225999999997
 31
0.0
  0
LINE
  5
7B7
330
5FD
100
AcDbEntity
  8
@_line-gallery
  6
Continuous
370
    -3
100
AcDbLine
 10
1.708988999999999
 20
6.967378
 30
0.0
 11
1.685913
 21
6.967378
 31
0.0
  0
LINE
  5
7B8
330
5FD
100
AcDbEntity
  8
@_line-gallery
  6
Continuous
370
    -3
100
AcDbLine
 10
1.447461999999999
 20
6.967378
 30
0.0
 11
1.359099999999999
 21
6.967378
 31
0.0
  0
LINE
  5
7B9
330
5FD
100
AcDbEntity
  8
@_line-gallery
  6
Continuous
370
    -3
100
AcDbLine
 10
1.447461999999999
 20
6.921225999999997
 30
0.0
 11
1.359099999999999
 21
6.921225999999997
 31
0.0
  0
LINE
  5
7BA
330
5FD
100
AcDbEntity
  8
@_line-gallery
  6
Continuous
370
    -3
100
AcDbLine
 10
2.108791999999998
 20
7.035305999999997
 30
0.0
 11
2.180502999999998
 21
7.035305999999997
 31
0.0
  0
LINE
  5
7BB
330
5FD
100
AcDbEntity
  8
@_line-gallery
  6
Continuous
370
    -3
100
AcDbLine
 10
2.108791999999998
 20
7.01353
 30
0.0
 11
2.178199
 21
7.01353
 31
0.0
  0
LINE
  5
7BC
330
5FD
100
AcDbEntity
  8
@_line-gallery
  6
Continuous
370
    -3
100
AcDbLine
 10
2.050577999999998
 20
6.869946
 30
0.0
 11
2.050577999999998
 21
6.841110999999997
 31
0.0
  0
LINE
  5
7BD
330
5FD
100
AcDbEntity
  8
@_line-gallery
  6
Continuous
370
    -3
100
AcDbLine
 10
2.108791999999998
 20
6.869946
 30
0.0
 11
2.108791999999998
 21
6.841110999999997
 31
0.0
  0
LINE
  5
7BE
330
5FD
100
AcDbEntity
  8
@_line-gallery
  6
Continuous
370
    -3
100
AcDbLine
 10
2.050577999999998
 20
6.869946
 30
0.0
 11
1.978208
 21
6.869946
 31
0.0
  0
LWPOLYLINE
  5
7BF
330
5FD
100
AcDbEntity
  8
@_line-gallery
  6
Continuous
370
    -3
100
AcDbPolyline
 90
        2
 70
     0
 43
0.0
 10
2.108791999999998
 20
6.841110999999997
 10
2.200620999999999
 20
6.841110999999997
  0
LINE
  5
7C0
330
5FD
100
AcDbEntity
  8
@_line-gallery
  6
Continuous
370
    -3
100
AcDbLine
 10
2.050577999999998
 20
6.521406999999999
 30
0.0
 11
2.050577999999998
 21
6.485793
 31
0.0
  0
LINE
  5
7C1
330
5FD
100
AcDbEntity
  8
@_line-gallery
  6
Continuous
370
    -3
100
AcDbLine
 10
2.108791999999998
 20
6.521406999999999
 30
0.0
 11
2.108791999999998
 21
6.485793
 31
0.0
  0
LWPOLYLINE
  5
7C2
330
5FD
100
AcDbEntity
  8
@_line-gallery
  6
Continuous
370
    -3
100
AcDbPolyline
 90
        3
 70
     0
 43
0.0
 10
1.359099999999999
 20
6.921225999999997
 10
1.359099999999999
 20
6.884114999999997
 10
1.335906999999999
 20
6.884114999999997
  0
LINE
  5
7C3
330
5FD
100
AcDbEntity
  8
@_line-gallery
  6
Continuous
370
    -3
100
AcDbLine
 10
1.447461999999999
 20
6.967378
 30
0.0
 11
1.447461999999999
 21
7.01353
 31
0.0
  0
LWPOLYLINE
  5
7C4
330
5FD
100
AcDbEntity
  8
@_line-gallery
  6
Continuous
370
    -3
100
AcDbPolyline
 90
        3
 70
     0
 43
0.0
 10
1.335906999999999
 20
7.00008
 10
1.359099999999999
 20
7.00008
 10
1.359099999999999
 20
6.967378
  0
LINE
  5
7C5
330
5FD
100
AcDbEntity
  8
@_line-gallery
  6
Continuous
370
    -3
100
AcDbLine
 10
1.335906999999999
 20
7.035305999999997
 30
0.0
 11
1.415836999999999
 21
7.035305999999997
 31
0.0
  0
LWPOLYLINE
  5
7C6
330
5FD
100
AcDbEntity
  8
@_line-gallery
  6
Continuous
370
    -3
100
AcDbPolyline
 90
        4
 70
     0
 43
0.0
 10
1.266328
 20
6.884114999999997
 10
1.229219
 20
6.884114999999997
 10
1.229219
 20
7.00008
 10
1.266328
 20
7.00008
  0
LINE
  5
7C7
330
5FD
100
AcDbEntity
  8
@_line-gallery
  6
Continuous
370
    -3
100
AcDbLine
 10
1.266328
 20
6.884114999999997
 30
0.0
 11
1.266328
 21
6.819685999999999
 31
0.0
  0
LINE
  5
7C8
330
5FD
100
AcDbEntity
  8
@_line-gallery
  6
Continuous
370
    -3
100
AcDbLine
 10
1.335906999999999
 20
6.884114999999997
 30
0.0
 11
1.335906999999999
 21
6.803855
 31
0.0
  0
LINE
  5
7C9
330
5FD
100
AcDbEntity
  8
@_line-gallery
  6
Continuous
370
    -3
100
AcDbLine
 10
1.212377
 20
6.786131
 30
0.0
 11
1.222574999999997
 21
6.775933
 31
0.0
  0
LINE
  5
7CA
330
5FD
100
AcDbEntity
  8
@_line-gallery
  6
Continuous
370
    -3
100
AcDbLine
 10
1.176703
 20
6.750457
 30
0.0
 11
1.186900999999997
 21
6.740259
 31
0.0
  0
LINE
  5
7CB
330
5FD
100
AcDbEntity
  8
@_line-gallery
  6
Continuous
370
    -3
100
AcDbLine
 10
1.211170999999997
 20
6.563863999999997
 30
0.0
 11
1.221967999999999
 21
6.574660999999997
 31
0.0
  0
LINE
  5
7CC
330
5FD
100
AcDbEntity
  8
@_line-gallery
  6
Continuous
370
    -3
100
AcDbLine
 10
1.176217
 20
6.598816999999997
 30
0.0
 11
1.187014999999999
 21
6.609614999999998
 31
0.0
  0
LWPOLYLINE
  5
7CD
330
5FD
100
AcDbEntity
  8
@_line-gallery
  6
Continuous
370
    -3
100
AcDbPolyline
 90
        3
 70
     0
 43
0.0
 10
1.506941
 20
6.716422
 10
1.506941
 20
6.761185
 10
1.546932999999999
 20
6.761185
  0
LINE
  5
7CE
330
5FD
100
AcDbEntity
  8
@_line-gallery
  6
Continuous
370
    -3
100
AcDbLine
 10
1.211170999999997
 20
6.563863999999997
 30
0.0
 11
1.214617
 21
6.560417
 31
0.0
  0
LINE
  5
7CF
330
5FD
100
AcDbEntity
  8
@_line-gallery
  6
Continuous
370
    -3
100
AcDbLine
 10
1.221967999999999
 20
6.574660999999997
 30
0.0
 11
1.232613999999998
 21
6.564016
 31
0.0
  0
LINE
  5
7D0
330
5FD
100
AcDbEntity
  8
@_line-gallery
  6
Continuous
370
    -3
100
AcDbLine
 10
1.186900999999997
 20
6.740259
 30
0.0
 11
1.165754999999998
 21
6.719113
 31
0.0
  0
LINE
  5
7D1
330
5FD
100
AcDbEntity
  8
@_line-gallery
  6
Continuous
370
    -3
100
AcDbLine
 10
1.176703
 20
6.750457
 30
0.0
 11
1.159428
 21
6.733183
 31
0.0
  0
LINE
  5
7D2
330
5FD
100
AcDbEntity
  8
@_line-gallery
  6
Continuous
370
    -3
100
AcDbLine
 10
1.106638999999999
 20
6.761977
 30
0.0
 11
1.106638999999999
 21
6.733183
 31
0.0
  0
LWPOLYLINE
  5
7D3
330
5FD
100
AcDbEntity
  8
@_line-gallery
  6
Continuous
370
    -3
100
AcDbPolyline
 90
        2
 70
     0
 43
0.0
 10
1.071845999999997
 20
6.761977
 10
1.071845999999997
 20
6.683991999999999
  0
LINE
  5
7D4
330
5FD
100
AcDbEntity
  8
@_line-gallery
  6
Continuous
370
    -3
100
AcDbLine
 10
1.003459
 20
6.683991999999999
 30
0.0
 11
1.071845999999997
 21
6.683991999999999
 31
0.0
  0
LINE
  5
7D5
330
5FD
100
AcDbEntity
  8
@_line-gallery
  6
Continuous
370
    -3
100
AcDbLine
 10
0.954269
 20
6.663596
 30
0.0
 11
0.8774840000000001
 21
6.663596
 31
0.0
  0
LWPOLYLINE
  5
7D6
330
5FD
100
AcDbEntity
  8
@_line-gallery
  6
Continuous
370
    -3
100
AcDbPolyline
 90
        4
 70
     0
 43
0.0
 10
0.8774840000000001
 20
6.683991999999999
 10
0.8774840000000001
 20
6.831563
 10
1.071845999999997
 20
6.831563
 10
1.071845999999997
 20
6.807567999999997
  0
LWPOLYLINE
  5
7D7
330
5FD
100
AcDbEntity
  8
@_line-gallery
  6
Continuous
370
    -3
100
AcDbPolyline
 90
        2
 70
     0
 43
0.0
 10
1.071845999999997
 20
6.663596
 10
1.071845999999997
 20
6.579613
  0
LWPOLYLINE
  5
7D8
330
5FD
100
AcDbEntity
  8
@_line-gallery
  6
Continuous
370
    -3
100
AcDbPolyline
 90
        4
 70
     0
 43
0.0
 10
1.071845999999997
 20
6.529222999999999
 10
1.071845999999997
 20
6.432042
 10
0.8774840000000001
 20
6.432042
 10
0.8774840000000001
 20
6.663596
  0
LWPOLYLINE
  5
7D9
330
5FD
100
AcDbEntity
  8
@_line-gallery
  6
Continuous
370
    -3
100
AcDbPolyline
 90
        3
 70
     0
 43
0.0
 10
1.214617
 20
6.41633
 10
1.356290999999999
 20
6.41633
 10
1.356290999999999
 20
6.002978999999997
  0
LINE
  5
7DA
330
5FD
100
AcDbEntity
  8
@_line-gallery
  6
Continuous
370
    -3
100
AcDbLine
 10
2.699643999999998
 20
5.44413
 30
0.0
 11
2.720638999999998
 21
5.44413
 31
0.0
  0
LWPOLYLINE
  5
7DB
330
5FD
100
AcDbEntity
  8
@_line-gallery
  6
Continuous
370
    -3
100
AcDbPolyline
 90
        4
 70
     0
 43
0.0
 10
2.552807
 20
5.273177999999997
 10
2.552807
 20
4.973271999999997
 10
2.248133999999998
 20
4.973271999999997
 10
2.248133999999998
 20
5.177674999999998
  0
LINE
  5
7DC
330
5FD
100
AcDbEntity
  8
@_line-gallery
  6
Continuous
370
    -3
100
AcDbLine
 10
2.699643999999998
 20
5.340262999999998
 30
0.0
 11
2.699643999999998
 21
5.44413
 31
0.0
  0
LINE
  5
7DD
330
5FD
100
AcDbEntity
  8
@_line-gallery
  6
Continuous
370
    -3
100
AcDbLine
 10
2.720638999999998
 20
5.155383
 30
0.0
 11
2.720638999999998
 21
5.133570999999998
 31
0.0
  0
LINE
  5
7DE
330
5FD
100
AcDbEntity
  8
@_line-gallery
  6
Continuous
370
    -3
100
AcDbLine
 10
2.789536999999998
 20
5.44413
 30
0.0
 11
2.789536999999998
 21
5.472367
 31
0.0
  0
LINE
  5
7DF
330
5FD
100
AcDbEntity
  8
@_line-gallery
  6
Continuous
370
    -3
100
AcDbLine
 10
2.699643999999998
 20
5.155383
 30
0.0
 11
2.720638999999998
 21
5.155383
 31
0.0
  0
LINE
  5
7E0
330
5FD
100
AcDbEntity
  8
@_line-gallery
  6
Continuous
370
    -3
100
AcDbLine
 10
2.789536999999998
 20
5.133570999999998
 30
0.0
 11
2.907386999999998
 21
5.133570999999998
 31
0.0
  0
LINE
  5
7E1
330
5FD
100
AcDbEntity
  8
@_line-gallery
  6
Continuous
370
    -3
100
AcDbLine
 10
2.789536999999998
 20
5.155383
 30
0.0
 11
2.977863999999998
 21
5.155383
 31
0.0
  0
LWPOLYLINE
  5
7E2
330
5FD
100
AcDbEntity
  8
@_line-gallery
  6
Continuous
370
    -3
100
AcDbPolyline
 90
        2
 70
     0
 43
0.0
 10
2.859698999999998
 20
5.675683999999997
 10
2.859698999999998
 20
5.939549999999997
  0
LWPOLYLINE
  5
7E3
330
5FD
100
AcDbEntity
  8
@_line-gallery
  6
Continuous
370
    -3
100
AcDbPolyline
 90
        3
 70
     0
 43
0.0
 10
3.242329
 20
5.654929
 10
3.242329
 20
5.472367
 10
3.177306999999998
 20
5.472367
  0
LINE
  5
7E4
330
5FD
100
AcDbEntity
  8
@_line-gallery
  6
Continuous
370
    -3
100
AcDbLine
 10
2.927222
 20
5.654929
 30
0.0
 11
2.927222
 21
5.675683999999997
 31
0.0
  0
LINE
  5
7E5
330
5FD
100
AcDbEntity
  8
@_line-gallery
  6
Continuous
370
    -3
100
AcDbLine
 10
3.177306999999998
 20
5.654929
 30
0.0
 11
3.177306999999998
 21
5.675683999999997
 31
0.0
  0
LINE
  5
7E6
330
5FD
100
AcDbEntity
  8
@_line-gallery
  6
Continuous
370
    -3
100
AcDbLine
 10
3.177306999999998
 20
5.44413
 30
0.0
 11
3.177306999999998
 21
5.472367
 31
0.0
  0
LINE
  5
7E7
330
5FD
100
AcDbEntity
  8
@_line-gallery
  6
Continuous
370
    -3
100
AcDbLine
 10
2.927222
 20
5.44413
 30
0.0
 11
2.927222
 21
5.472367
 31
0.0
  0
LINE
  5
7E8
330
5FD
100
AcDbEntity
  8
@_line-gallery
  6
Continuous
370
    -3
100
AcDbLine
 10
3.177306999999998
 20
5.675683999999997
 30
0.0
 11
3.242329
 21
5.675683999999997
 31
0.0
  0
LINE
  5
7E9
330
5FD
100
AcDbEntity
  8
@_line-gallery
  6
Continuous
370
    -3
100
AcDbLine
 10
3.177306999999998
 20
5.654929
 30
0.0
 11
3.242329
 21
5.654929
 31
0.0
  0
LINE
  5
7EA
330
5FD
100
AcDbEntity
  8
@_line-gallery
  6
Continuous
370
    -3
100
AcDbLine
 10
3.177306999999998
 20
5.44413
 30
0.0
 11
3.404884999999998
 21
5.44413
 31
0.0
  0
LWPOLYLINE
  5
7EB
330
5FD
100
AcDbEntity
  8
@_line-gallery
  6
Continuous
370
    -3
100
AcDbPolyline
 90
        3
 70
     0
 43
0.0
 10
2.927222
 20
5.472367
 10
2.859698999999998
 20
5.472367
 10
2.859698999999998
 20
5.654929
  0
LINE
  5
7EC
330
5FD
100
AcDbEntity
  8
@_line-gallery
  6
Continuous
370
    -3
100
AcDbLine
 10
2.938502
 20
4.818522999999999
 30
0.0
 11
2.938502
 21
4.789642999999998
 31
0.0
  0
LINE
  5
7ED
330
5FD
100
AcDbEntity
  8
@_line-gallery
  6
Continuous
370
    -3
100
AcDbLine
 10
3.167405
 20
4.818522999999999
 30
0.0
 11
3.167405
 21
4.789642999999998
 31
0.0
  0
LINE
  5
7EE
330
5FD
100
AcDbEntity
  8
@_line-gallery
  6
Continuous
370
    -3
100
AcDbLine
 10
2.938502
 20
4.789642999999998
 30
0.0
 11
3.007271999999998
 21
4.789642999999998
 31
0.0
  0
LINE
  5
7EF
330
5FD
100
AcDbEntity
  8
@_line-gallery
  6
Continuous
370
    -3
100
AcDbLine
 10
2.927222
 20
4.909673999999998
 30
0.0
 11
2.977863999999998
 21
4.909673999999998
 31
0.0
  0
LINE
  5
7F0
330
5FD
100
AcDbEntity
  8
@_line-gallery
  6
Continuous
370
    -3
100
AcDbLine
 10
3.126770999999998
 20
4.909673999999998
 30
0.0
 11
3.177306999999998
 21
4.909673999999998
 31
0.0
  0
LINE
  5
7F1
330
5FD
100
AcDbEntity
  8
@_line-gallery
  6
Continuous
370
    -3
100
AcDbLine
 10
3.195667999999998
 20
4.909673999999998
 30
0.0
 11
3.521799999999998
 21
4.909673999999998
 31
0.0
  0
LINE
  5
7F2
330
5FD
100
AcDbEntity
  8
@_line-gallery
  6
Continuous
370
    -3
100
AcDbLine
 10
3.195667999999998
 20
5.133570999999998
 30
0.0
 11
3.521799999999998
 21
5.133570999999998
 31
0.0
  0
LINE
  5
7F3
330
5FD
100
AcDbEntity
  8
@_line-gallery
  6
Continuous
370
    -3
100
AcDbLine
 10
2.927222
 20
5.133570999999998
 30
0.0
 11
2.977863999999998
 21
5.133570999999998
 31
0.0
  0
LINE
  5
7F4
330
5FD
100
AcDbEntity
  8
@_line-gallery
  6
Continuous
370
    -3
100
AcDbLine
 10
3.126770999999998
 20
5.155383
 30
0.0
 11
3.404884999999998
 21
5.155383
 31
0.0
  0
LINE
  5
7F5
330
5FD
100
AcDbEntity
  8
@_line-gallery
  6
Continuous
370
    -3
100
AcDbLine
 10
3.126770999999998
 20
5.133570999999998
 30
0.0
 11
3.177306999999998
 21
5.133570999999998
 31
0.0
  0
LINE
  5
7F6
330
5FD
100
AcDbEntity
  8
@_line-gallery
  6
Continuous
370
    -3
100
AcDbLine
 10
2.977863999999998
 20
4.909673999999998
 30
0.0
 11
2.977863999999998
 21
4.883771
 31
0.0
  0
LINE
  5
7F7
330
5FD
100
AcDbEntity
  8
@_line-gallery
  6
Continuous
370
    -3
100
AcDbLine
 10
3.126770999999998
 20
5.133570999999998
 30
0.0
 11
3.126770999999998
 21
5.155383
 31
0.0
  0
LWPOLYLINE
  5
7F8
330
5FD
100
AcDbEntity
  8
@_line-gallery
  6
Continuous
370
    -3
100
AcDbPolyline
 90
        4
 70
     0
 43
0.0
 10
3.126770999999998
 20
4.883771
 10
3.318223
 20
4.883771
 10
3.318223
 20
4.818522999999999
 10
3.167405
 20
4.818522999999999
  0
LWPOLYLINE
  5
7F9
330
5FD
100
AcDbEntity
  8
@_line-gallery
  6
Continuous
370
    -3
100
AcDbPolyline
 90
        2
 70
     0
 43
0.0
 10
3.107829999999998
 20
4.818522999999999
 10
3.090943
 20
4.818522999999999
  0
LWPOLYLINE
  5
7FA
330
5FD
100
AcDbEntity
  8
@_line-gallery
  6
Continuous
370
    -3
100
AcDbPolyline
 90
        2
 70
     0
 43
0.0
 10
3.024554
 20
4.818522999999999
 10
3.007271999999998
 20
4.818522999999999
  0
LWPOLYLINE
  5
7FB
330
5FD
100
AcDbEntity
  8
@_line-gallery
  6
Continuous
370
    -3
100
AcDbPolyline
 90
        4
 70
     0
 43
0.0
 10
2.938502
 20
4.818522999999999
 10
2.774847999999998
 20
4.818522999999999
 10
2.774847999999998
 20
4.883771
 10
2.977863999999998
 20
4.883771
  0
LINE
  5
7FC
330
5FD
100
AcDbEntity
  8
@_line-gallery
  6
Continuous
370
    -3
100
AcDbLine
 10
3.024554
 20
4.789642999999998
 30
0.0
 11
3.090943
 21
4.789642999999998
 31
0.0
  0
LINE
  5
7FD
330
5FD
100
AcDbEntity
  8
@_line-gallery
  6
Continuous
370
    -3
100
AcDbLine
 10
3.107829999999998
 20
4.789642999999998
 30
0.0
 11
3.167405
 21
4.789642999999998
 31
0.0
  0
LINE
  5
7FE
330
5FD
100
AcDbEntity
  8
@_line-gallery
  6
Continuous
370
    -3
100
AcDbLine
 10
3.007271999999998
 20
4.818522999999999
 30
0.0
 11
3.007271999999998
 21
4.789642999999998
 31
0.0
  0
LINE
  5
7FF
330
5FD
100
AcDbEntity
  8
@_line-gallery
  6
Continuous
370
    -3
100
AcDbLine
 10
3.024554
 20
4.818522999999999
 30
0.0
 11
3.024554
 21
4.789642999999998
 31
0.0
  0
LINE
  5
800
330
5FD
100
AcDbEntity
  8
@_line-gallery
  6
Continuous
370
    -3
100
AcDbLine
 10
3.090943
 20
4.818522999999999
 30
0.0
 11
3.090943
 21
4.789642999999998
 31
0.0
  0
LINE
  5
801
330
5FD
100
AcDbEntity
  8
@_line-gallery
  6
Continuous
370
    -3
100
AcDbLine
 10
3.107829999999998
 20
4.818522999999999
 30
0.0
 11
3.107829999999998
 21
4.789642999999998
 31
0.0
  0
MTEXT
  5
E59
330
5FD
100
AcDbEntity
  8
@_text-acc-gallery2
 62
     7
370
    -3
100
AcDbMText
 10
3.124385033734416
 20
6.702102171391524
 30
0.0
 40
0.2
 41
2.117554957178686
 46
0.0
 71
     1
 72
     5
  1
room 1
 73
     1
 44
1.0
101
Embedded Object
 70
     1
 10
1.0
 20
0.0
 30
0.0
 11
3.124385033734416
 21
6.702102171391524
 31
0.0
 40
2.117554957178686
 41
0.0
 42
1.066666666666666
 43
0.2
 71
     2
 72
     1
 44
2.117554957178686
 45
1.0
 73
     0
 74
     0
 46
0.0
  0
MTEXT
  5
E5A
330
5FD
100
AcDbEntity
  8
@_text-acc-gallery1
 62
     7
370
    -3
100
AcDbMText
 10
1.057442533734415
 20
5.389071171391525
 30
0.0
 40
0.2
 41
2.117554957178686
 46
0.0
 71
     1
 72
     5
  1
room 2
 73
     1
 44
1.0
101
Embedded Object
 70
     1
 10
1.0
 20
0.0
 30
0.0
 11
1.057442533734415
 21
5.389071171391525
 31
0.0
 40
2.117554957178686
 41
0.0
 42
1.133333333333333
 43
0.2
 71
     2
 72
     1
 44
2.117554957178686
 45
1.0
 73
     0
 74
     0
 46
0.0
  0
MTEXT
  5
E5B
330
5FD
100
AcDbEntity
  8
@_text-info
370
    -3
100
AcDbMText
 10
4.913516157487938
 20
5.47115243921272
 30
0.0
 40
0.2
 41
2.117554957178686
 46
0.0
 71
     1
 72
     5
  1
room 3
 73
     1
 44
1.0
101
Embedded Object
 70
     1
 10
1.0
 20
0.0
 30
0.0
 11
4.913516157487938
 21
5.47115243921272
 31
0.0
 40
2.117554957178686
 41
0.0
 42
1.133333333333333
 43
0.2
 71
     2
 72
     1
 44
2.117554957178686
 45
1.0
 73
     0
 74
     0
 46
0.0
  0
POINT
  5
E5C
330
5FD
100
AcDbEntity
  8
@_point-infopoints
 62
     7
370
    -3
100
AcDbPoint
 10
1.326013150886236
 20
7.346343232014126
 30
0.0
  0
POINT
  5
E5D
330
5FD
100
AcDbEntity
  8
@_point-infopoints
 62
     7
370
    -3
100
AcDbPoint
 10
1.141046023336052
 20
5.911639739897177
 30
0.0
  0
POINT
  5
E5E
330
5FD
100
AcDbEntity
  8
@_point-infopoints
 62
     7
370
    -3
100
AcDbPoint
 10
4.043116803079456
 20
5.197476239744927
 30
0.0
  0
POINT
  5
E5F
330
5FD
100
AcDbEntity
  8
@_point-infopoints
 62
     7
370
    -3
100
AcDbPoint
 10
4.808498101016347
 20
6.644932639659431
 30
0.0
  0
POINT
  5
E60
330
5FD
100
AcDbEntity
  8
@_point-infopoints
 62
     7
370
    -3
100
AcDbPoint
 10
4.827632649707553
 20
6.007286643163007
 30
0.0
  0
POINT
  5
E61
330
5FD
100
AcDbEntity
  8
@_point-infopoints
 62
     7
370
    -3
100
AcDbPoint
 10
2.965204799862288
 20
5.930769120550346
 30
0.0
  0
POINT
  5
E62
330
5FD
100
AcDbEntity
  8
@_point-infopoints
 62
     7
370
    -3
100
AcDbPoint
 10
2.091394472886509
 20
6.746955996824036
 30
0.0
  0
POINT
  5
E63
330
5FD
100
AcDbEntity
  8
@_point-infopoints
 62
     7
370
    -3
100
AcDbPoint
 10
1.798727999999999
 20
7.378225520464846
 30
0.0
  0
POINT
  5
E64
330
5FD
100
AcDbEntity
  8
0
 62
     7
370
    -3
100
AcDbPoint
 10
2.116246913396103
 20
5.973478889970051
 30
0.0
  0
POINT
  5
E65
330
5FD
100
AcDbEntity
  8
0
 62
     7
370
    -3
100
AcDbPoint
 10
3.202892238489766
 20
7.020565823865313
 30
0.0
  0
ENDBLK
  5
60E
330
5FD
100
AcDbEntity
  8
0
 62
     7
370
    -3
100
AcDbBlockEnd
  0
ENDSEC
  0
SECTION
  2
ENTITIES
  0
INSERT
  5
602
330
518
100
AcDbEntity
  8
@_line-gallery
 62
     7
370
    -3
100
AcDbBlockReference
  2
@_floor1
 10
0.0
 20
0.0
 30
0.0
  0
VIEWPORT
  5
5CD
102
{ACAD_XDICTIONARY
360
5CE
102
}
330
5BC
100
AcDbEntity
 67
     1
  8
0
 62
     7
370
    -3
348
58B
100
AcDbViewport
 10
5.680555208461488
 20
3.965277934637595
 30
0.0
 40
12.37272182674859
 41
8.867483582758532
 68
     1
 69
     1
 12
5.680555208461488
 22
3.965277934637595
 13
0.0
 23
0.0
 14
10.0
 24
10.0
 15
10.0
 25
10.0
 16
0.0
 26
0.0
 36
1.0
 17
0.0
 27
0.0
 37
0.0
 42
50.0
 43
0.0
 44
0.0
 45
8.867483582758532
 50
0.0
 51
0.0
 72
   100
 90
   819232
  1

281
     0
 71
     1
 74
     0
110
0.0
120
0.0
130
0.0
111
1.0
121
0.0
131
0.0
112
0.0
122
1.0
132
0.0
 79
     0
146
0.0
170
     0
 61
     5
292
     1
282
     1
141
0.0
142
0.0
 63
   250
421
  3355443
  0
ENDSEC
  0
SECTION
  2
OBJECTS
  0
DICTIONARY
  5
524
330
0
100
AcDbDictionary
281
     1
  3
ACAD_CIP_PREVIOUS_PRODUCT_INFO
350
5BB
  3
ACAD_COLOR
350
59E
  3
ACAD_DETAILVIEWSTYLE
350
5B7
  3
ACAD_GROUP
350
525
  3
ACAD_LAYOUT
350
532
  3
ACAD_MATERIAL
350
56C
  3
ACAD_MLEADERSTYLE
350
5B3
  3
ACAD_MLINESTYLE
350
52F
  3
ACAD_PLOTSETTINGS
350
531
  3
ACAD_PLOTSTYLENAME
350
526
  3
ACAD_SCALELIST
350
5A1
  3
ACAD_SECTIONVIEWSTYLE
350
5B5
  3
ACAD_TABLESTYLE
350
59F
  3
ACAD_VISUALSTYLE
350
585
  3
ACDB_RECOMPOSE_DATA
350
1018
  3
AcDbVariableDictionary
350
5E0
  0
DICTIONARY
  5
5C3
330
51A
100
AcDbDictionary
280
     1
281
     1
  3
ACAD_LAYERSTATES
360
5C4
  0
DICTIONARY
  5
5D5
330
6
100
AcDbDictionary
280
     1
281
     1
  3
ADSK_XREC_LAYER_RECONCILED
360
5D6
  0
DICTIONARY
  5
5D7
330
293
100
AcDbDictionary
280
     1
281
     1
  3
ADSK_XREC_LAYER_RECONCILED
360
5D8
  0
DICTIONARY
  5
9F7
330
518
100
AcDbDictionary
280
     1
281
     1
  0
DICTIONARY
  5
100E
330
5FD
100
AcDbDictionary
280
     1
281
     1
  3
ACAD_SORTENTS
360
100F
  0
DICTIONARY
  5
5CE
330
5CD
100
AcDbDictionary
280
     1
281
     1
  3
ASDK_XREC_ANNOTATION_SCALE_INFO
360
5CF
  0
XRECORD
  5
5BB
102
{ACAD_REACTORS
330
524
102
}
330
524
100
AcDbXrecord
280
     1
300
ACDMAC
300
2018
300
ACDMAC_F_S
  0
DICTIONARY
  5
59E
102
{ACAD_REACTORS
330
524
102
}
330
524
100
AcDbDictionary
281
     1
  0
DICTIONARY
  5
5B7
102
{ACAD_REACTORS
330
524
102
}
330
524
100
AcDbDictionary
281
     1
  3
Imperial24
350
5B8
  0
DICTIONARY
  5
525
102
{ACAD_REACTORS
330
524
102
}
330
524
100
AcDbDictionary
281
     1
  0
DICTIONARY
  5
532
102
{ACAD_REACTORS
330
524
102
}
330
524
100
AcDbDictionary
281
     1
  3

350
569
  3
Default
350
4A
  3
Layout1
350
5BD
  0
DICTIONARY
  5
56C
102
{ACAD_REACTORS
330
524
102
}
330
524
100
AcDbDictionary
281
     1
  3
ByBlock
350
575
  3
ByLayer
350
56D
  3
Global
350
57D
  0
DICTIONARY
  5
5B3
102
{ACAD_REACTORS
330
524
102
}
330
524
100
AcDbDictionary
281
     1
  3
Standard
350
5B4
  0
DICTIONARY
  5
52F
102
{ACAD_REACTORS
330
524
102
}
330
524
100
AcDbDictionary
281
     1
  3
STANDARD
350
530
  0
DICTIONARY
  5
531
102
{ACAD_REACTORS
330
524
102
}
330
524
100
AcDbDictionary
281
     1
  0
ACDBDICTIONARYWDFLT
  5
526
102
{ACAD_REACTORS
330
524
102
}
330
524
100
AcDbDictionary
281
     1
  3
Normal
350
527
100
AcDbDictionaryWithDefault
340
527
  0
DICTIONARY
  5
5A1
102
{ACAD_REACTORS
330
524
102
}
330
524
100
AcDbDictionary
281
     1
  3
A0
350
5A2
  3
A1
350
5A3
  3
A2
350
5A4
  3
A3
350
5A5
  3
A4
350
5A6
  3
A5
350
5A7
  3
A6
350
5A8
  3
A7
350
5A9
  3
A8
350
5AA
  3
A9
350
5AB
  3
B0
350
5AC
  3
B1
350
5AD
  3
B2
350
5AE
  3
B3
350
5AF
  3
B4
350
5B0
  3
B5
350
5B1
  3
B6
350
5B2
  0
DICTIONARY
  5
5B5
102
{ACAD_REACTORS
330
524
102
}
330
524
100
AcDbDictionary
281
     1
  3
Imperial24
350
5B6
  0
DICTIONARY
  5
59F
102
{ACAD_REACTORS
330
524
102
}
330
524
100
AcDbDictionary
281
     1
  3
Standard
350
5A0
  0
DICTIONARY
  5
585
102
{ACAD_REACTORS
330
524
102
}
330
524
100
AcDbDictionary
281
     1
  3
2dWireframe
350
58B
  3
Basic
350
58A
  3
Brighten
350
591
  3
ColorChange
350
595
  3
Conceptual
350
58E
  3
Dim
350
590
  3
EdgeColorOff
350
59D
  3
Facepattern
350
594
  3
Flat
350
586
  3
FlatWithEdges
350
587
  3
Gouraud
350
588
  3
GouraudWithEdges
350
589
  3
Hidden
350
58D
  3
JitterOff
350
59B
  3
Linepattern
350
593
  3
OverhangOff
350
59C
  3
Realistic
350
58F
  3
Shaded
350
59A
  3
Shaded with edges
350
599
  3
Shades of Gray
350
596
  3
Sketchy
350
597
  3
Thicken
350
592
  3
Wireframe
350
58C
  3
X-Ray
350
598
  0
XRECORD
  5
1018
102
{ACAD_REACTORS
330
524
102
}
330
524
100
AcDbXrecord
280
     1
 90
        1
330
5A0
  0
DICTIONARY
  5
5E0
102
{ACAD_REACTORS
330
524
102
}
330
524
100
AcDbDictionary
281
     1
  3
CANNOSCALE
350
5E6
  3
CMLEADERSTYLE
350
5E2
  3
CTABLESTYLE
350
5E1
  3
CVIEWDETAILSTYLE
350
5E3
  3
CVIEWSECTIONSTYLE
350
5E4
  3
LAYEREVAL
350
5E8
  3
LAYERNOTIFY
350
5E9
  3
LIGHTINGUNITS
350
5E7
  3
MSLTSCALE
350
5E5
  0
DICTIONARY
  5
5C4
102
{ACAD_REACTORS
330
5C3
102
}
330
5C3
100
AcDbDictionary
281
     1
  0
XRECORD
  5
5D6
102
{ACAD_REACTORS
330
5D5
102
}
330
5D5
100
AcDbXrecord
280
     1
290
     1
  0
XRECORD
  5
5D8
102
{ACAD_REACTORS
330
5D7
102
}
330
5D7
100
AcDbXrecord
280
     1
290
     1
  0
SORTENTSTABLE
  5
100F
102
{ACAD_REACTORS
330
100E
102
}
330
100E
100
AcDbSortentsTable
330
5FD
  0
XRECORD
  5
5CF
102
{ACAD_REACTORS
330
5CE
102
}
330
5CE
100
AcDbXrecord
280
     1
 90
        1
340
5A2
  0
ACDBDETAILVIEWSTYLE
  5
5B8
102
{ACAD_REACTORS
330
5B7
102
}
330
5B7
100
AcDbModelDocViewStyle
 70
     0
  3
Imperial24
290
     0
300
Imperial24
 90
        0
100
AcDbDetailViewStyle
 70
     0
 71
     0
 90
        3
 71
     1
340
529
 62
   256
 40
0.24
340
0
 62
   256
 40
0.24
300

 40
0.36
280
     3
 71
     2
340
52E
 90
       25
 62
   256
 71
     3
340
529
 62
   256
 40
0.24
 90
        1
 40
0.75
 90
        1
300
%<\AcVar ViewType \f "%tc1">% %<\AcVar ViewDetailId>%\PSCALE %<\AcVar ViewScale \f "%sn">%
 71
     4
340
52E
 90
       25
 62
   256
340
52E
 90
       25
 62
   256
280
     0
  0
LAYOUT
  5
569
330
532
100
AcDbPlotSettings
  1

  2

  4

  6

 40
0.0
 41
0.0
 42
0.0
 43
0.0
 44
0.0
 45
0.0
 46
0.0
 47
0.0
 48
0.0
 49
0.0
140
0.0
141
0.0
142
1.0
143
1.0
 70
   688
 72
     0
 73
     0
 74
     5
  7

 75
    16
147
1.0
 76
     0
 77
     2
 78
   300
148
0.0
149
0.0
100
AcDbLayout
  1
Layout
 70
     1
 71
     1
 10
0.0
 20
0.0
 11
12.0
 21
9.0
 12
0.0
 22
0.0
 32
0.0
 14
1.000000000000000E+20
 24
1.000000000000000E+20
 34
1.000000000000000E+20
 15
-1.000000000000000E+20
 25
-1.000000000000000E+20
 35
-1.000000000000000E+20
146
0.0
 13
0.0
 23
0.0
 33
0.0
 16
1.0
 26
0.0
 36
0.0
 17
0.0
 27
1.0
 37
0.0
 76
     0
330
568
  0
LAYOUT
  5
4A
330
532
100
AcDbPlotSettings
  1

  2

  4

  6

 40
0.0
 41
0.0
 42
0.0
 43
0.0
 44
0.0
 45
0.0
 46
0.0
 47
0.0
 48
0.0
 49
0.0
140
0.0
141
0.0
142
1.0
143
1.0
 70
  1712
 72
     0
 73
     0
 74
     0
  7

 75
     0
147
1.0
 76
     0
 77
     2
 78
   300
148
0.0
149
0.0
100
AcDbLayout
  1
Default
 70
     1
 71
     0
 10
0.0
 20
0.0
 11
12.0
 21
9.0
 12
0.0
 22
0.0
 32
0.0
 14
0.0
 24
0.0
 34
0.0
 15
0.0
 25
0.0
 35
0.0
146
0.0
 13
0.0
 23
0.0
 33
0.0
 16
1.0
 26
0.0
 36
0.0
 17
0.0
 27
1.0
 37
0.0
 76
     0
330
518
331
4B
  0
LAYOUT
  5
5BD
102
{ACAD_REACTORS
330
532
102
}
330
532
100
AcDbPlotSettings
  1

  2
print-UCL
  4
iso-a4
  6

 40
4.233333587646483
 41
4.233306884765625
 42
4.23333740234375
 43
4.23333740234375
 44
209.9027862548828
 45
297.0388793945312
 46
0.0
 47
0.0
 48
0.0
 49
0.0
140
0.0
141
0.0
142
1.0
143
1.0
 70
   688
 72
     0
 73
     1
 74
     5
  7

 75
    16
147
1.0
 76
     0
 77
     2
 78
   300
148
0.0
149
0.0
100
AcDbLayout
  1
Layout1
 70
     1
 71
     2
 10
-0.1666668268639272
 20
-0.1666666766789955
 11
11.52777724378691
 21
8.097222545954187
 12
0.0
 22
0.0
 32
0.0
 14
1.000000000000000E+20
 24
1.000000000000000E+20
 34
1.000000000000000E+20
 15
-1.000000000000000E+20
 25
-1.000000000000000E+20
 35
-1.000000000000000E+20
146
0.0
 13
0.0
 23
0.0
 33
0.0
 16
1.0
 26
0.0
 36
0.0
 17
0.0
 27
1.0
 37
0.0
 76
     0
330
5BC
331
5CD
1001
ACAD_PSEXT
1000
print-UCL
1000
Xerox WorkCentre 7655, 3.81.1
1000
localhost
1000

1070
     0
  0
MATERIAL
  5
575
102
{ACAD_XDICTIONARY
360
576
102
}
102
{ACAD_REACTORS
330
56C
102
}
330
56C
100
AcDbMaterial
  1
ByBlock
 72
     0
 43
0.820209973753281
 43
0.0
 43
0.0
 43
0.0
 43
0.0
 43
0.820209973753281
 43
0.0
 43
0.0
 43
0.0
 43
0.0
 43
1.0
 43
0.0
 43
0.0
 43
0.0
 43
0.0
 43
1.0
 77
     0
 47
0.820209973753281
 47
0.0
 47
0.0
 47
0.0
 47
0.0
 47
0.820209973753281
 47
0.0
 47
0.0
 47
0.0
 47
0.0
 47
1.0
 47
0.0
 47
0.0
 47
0.0
 47
0.0
 47
1.0
171
     0
 49
0.820209973753281
 49
0.0
 49
0.0
 49
0.0
 49
0.0
 49
0.820209973753281
 49
0.0
 49
0.0
 49
0.0
 49
0.0
 49
1.0
 49
0.0
 49
0.0
 49
0.0
 49
0.0
 49
1.0
175
     0
142
0.820209973753281
142
0.0
142
0.0
142
0.0
142
0.0
142
0.820209973753281
142
0.0
142
0.0
142
0.0
142
0.0
142
1.0
142
0.0
142
0.0
142
0.0
142
0.0
142
1.0
179
     0
144
0.820209973753281
144
0.0
144
0.0
144
0.0
144
0.0
144
0.820209973753281
144
0.0
144
0.0
144
0.0
144
0.0
144
1.0
144
0.0
144
0.0
144
0.0
144
0.0
144
1.0
147
0.820209973753281
147
0.0
147
0.0
147
0.0
147
0.0
147
0.820209973753281
147
0.0
147
0.0
147
0.0
147
0.0
147
1.0
147
0.0
147
0.0
147
0.0
147
0.0
147
1.0
  0
MATERIAL
  5
56D
102
{ACAD_XDICTIONARY
360
56E
102
}
102
{ACAD_REACTORS
330
56C
102
}
330
56C
100
AcDbMaterial
  1
ByLayer
 72
     0
 43
0.820209973753281
 43
0.0
 43
0.0
 43
0.0
 43
0.0
 43
0.820209973753281
 43
0.0
 43
0.0
 43
0.0
 43
0.0
 43
1.0
 43
0.0
 43
0.0
 43
0.0
 43
0.0
 43
1.0
 77
     0
 47
0.820209973753281
 47
0.0
 47
0.0
 47
0.0
 47
0.0
 47
0.820209973753281
 47
0.0
 47
0.0
 47
0.0
 47
0.0
 47
1.0
 47
0.0
 47
0.0
 47
0.0
 47
0.0
 47
1.0
171
     0
 49
0.820209973753281
 49
0.0
 49
0.0
 49
0.0
 49
0.0
 49
0.820209973753281
 49
0.0
 49
0.0
 49
0.0
 49
0.0
 49
1.0
 49
0.0
 49
0.0
 49
0.0
 49
0.0
 49
1.0
175
     0
142
0.820209973753281
142
0.0
142
0.0
142
0.0
142
0.0
142
0.820209973753281
142
0.0
142
0.0
142
0.0
142
0.0
142
1.0
142
0.0
142
0.0
142
0.0
142
0.0
142
1.0
179
     0
144
0.820209973753281
144
0.0
144
0.0
144
0.0
144
0.0
144
0.820209973753281
144
0.0
144
0.0
144
0.0
144
0.0
144
1.0
144
0.0
144
0.0
144
0.0
144
0.0
144
1.0
147
0.820209973753281
147
0.0
147
0.0
147
0.0
147
0.0
147
0.820209973753281
147
0.0
147
0.0
147
0.0
147
0.0
147
1.0
147
0.0
147
0.0
147
0.0
147
0.0
147
1.0
  0
MATERIAL
  5
57D
102
{ACAD_XDICTIONARY
360
57E
102
}
102
{ACAD_REACTORS
330
56C
102
}
330
56C
100
AcDbMaterial
  1
Global
 72
     0
 43
0.820209973753281
 43
0.0
 43
0.0
 43
0.0
 43
0.0
 43
0.820209973753281
 43
0.0
 43
0.0
 43
0.0
 43
0.0
 43
1.0
 43
0.0
 43
0.0
 43
0.0
 43
0.0
 43
1.0
 77
     0
 47
0.820209973753281
 47
0.0
 47
0.0
 47
0.0
 47
0.0
 47
0.820209973753281
 47
0.0
 47
0.0
 47
0.0
 47
0.0
 47
1.0
 47
0.0
 47
0.0
 47
0.0
 47
0.0
 47
1.0
171
     0
 49
0.820209973753281
 49
0.0
 49
0.0
 49
0.0
 49
0.0
 49
0.820209973753281
 49
0.0
 49
0.0
 49
0.0
 49
0.0
 49
1.0
 49
0.0
 49
0.0
 49
0.0
 49
0.0
 49
1.0
175
     0
142
0.820209973753281
142
0.0
142
0.0
142
0.0
142
0.0
142
0.820209973753281
142
0.0
142
0.0
142
0.0
142
0.0
142
1.0
142
0.0
142
0.0
142
0.0
142
0.0
142
1.0
179
     0
144
0.820209973753281
144
0.0
144
0.0
144
0.0
144
0.0
144
0.820209973753281
144
0.0
144
0.0
144
0.0
144
0.0
144
1.0
144
0.0
144
0.0
144
0.0
144
0.0
144
1.0
147
0.820209973753281
147
0.0
147
0.0
147
0.0
147
0.0
147
0.820209973753281
147
0.0
147
0.0
147
0.0
147
0.0
147
1.0
147
0.0
147
0.0
147
0.0
147
0.0
147
1.0
  0
MLEADERSTYLE
  5
5B4
102
{ACAD_REACTORS
330
5B3
102
}
330
5B3
100
AcDbMLeaderStyle
179
     2
170
     2
171
     1
172
     0
 90
        2
 40
0.0
 41
0.0
173
     1
 91
-1056964608
340
52C
 92
       -2
290
     1
 42
0.09
291
     1
 43
0.36
  3
Standard
 44
0.18
300

342
529
174
     1
178
     6
175
     1
176
     0
 93
-1056964608
 45
0.18
292
     0
297
     0
 46
0.18
 94
-1056964608
 47
1.0
 49
1.0
140
1.0
293
     1
141
0.0
294
     1
177
     0
142
1.0
295
     0
296
     0
143
0.125
271
     0
272
     9
273
     9
298
     0
  0
MLINESTYLE
  5
530
102
{ACAD_REACTORS
330
52F
102
}
330
52F
100
AcDbMlineStyle
  2
STANDARD
 70
     0
  3

 62
   256
 51
90.0
 52
90.0
 71
     2
 49
0.5
 62
   256
  6
BYLAYER
 49
-0.5
 62
   256
  6
BYLAYER
  0
ACDBPLACEHOLDER
  5
527
102
{ACAD_REACTORS
330
526
102
}
330
526
  0
SCALE
  5
5A2
102
{ACAD_REACTORS
330
5A1
102
}
330
5A1
100
AcDbScale
 70
     0
300
1:1
140
1.0
141
1.0
290
     1
  0
SCALE
  5
5A3
102
{ACAD_REACTORS
330
5A1
102
}
330
5A1
100
AcDbScale
 70
     0
300
1/128" = 1'-0"
140
0.0078125
141
12.0
290
     0
  0
SCALE
  5
5A4
102
{ACAD_REACTORS
330
5A1
102
}
330
5A1
100
AcDbScale
 70
     0
300
1/64" = 1'-0"
140
0.015625
141
12.0
290
     0
  0
SCALE
  5
5A5
102
{ACAD_REACTORS
330
5A1
102
}
330
5A1
100
AcDbScale
 70
     0
300
1/32" = 1'-0"
140
0.03125
141
12.0
290
     0
  0
SCALE
  5
5A6
102
{ACAD_REACTORS
330
5A1
102
}
330
5A1
100
AcDbScale
 70
     0
300
1/16" = 1'-0"
140
0.0625
141
12.0
290
     0
  0
SCALE
  5
5A7
102
{ACAD_REACTORS
330
5A1
102
}
330
5A1
100
AcDbScale
 70
     0
300
3/32" = 1'-0"
140
0.09375
141
12.0
290
     0
  0
SCALE
  5
5A8
102
{ACAD_REACTORS
330
5A1
102
}
330
5A1
100
AcDbScale
 70
     0
300
1/8" = 1'-0"
140
0.125
141
12.0
290
     0
  0
SCALE
  5
5A9
102
{ACAD_REACTORS
330
5A1
102
}
330
5A1
100
AcDbScale
 70
     0
300
3/16" = 1'-0"
140
0.1875
141
12.0
290
     0
  0
SCALE
  5
5AA
102
{ACAD_REACTORS
330
5A1
102
}
330
5A1
100
AcDbScale
 70
     0
300
1/4" = 1'-0"
140
0.25
141
12.0
290
     0
  0
SCALE
  5
5AB
102
{ACAD_REACTORS
330
5A1
102
}
330
5A1
100
AcDbScale
 70
     0
300
3/8" = 1'-0"
140
0.375
141
12.0
290
     0
  0
SCALE
  5
5AC
102
{ACAD_REACTORS
330
5A1
102
}
330
5A1
100
AcDbScale
 70
     0
300
1/2" = 1'-0"
140
0.5
141
12.0
290
     0
  0
SCALE
  5
5AD
102
{ACAD_REACTORS
330
5A1
102
}
330
5A1
100
AcDbScale
 70
     0
300
3/4" = 1'-0"
140
0.75
141
12.0
290
     0
  0
SCALE
  5
5AE
102
{ACAD_REACTORS
330
5A1
102
}
330
5A1
100
AcDbScale
 70
     0
300
1" = 1'-0"
140
1.0
141
12.0
290
     0
  0
SCALE
  5
5AF
102
{ACAD_REACTORS
330
5A1
102
}
330
5A1
100
AcDbScale
 70
     0
300
1-1/2" = 1'-0"
140
1.5
141
12.0
290
     0
  0
SCALE
  5
5B0
102
{ACAD_REACTORS
330
5A1
102
}
330
5A1
100
AcDbScale
 70
     0
300
3" = 1'-0"
140
3.0
141
12.0
290
     0
  0
SCALE
  5
5B1
102
{ACAD_REACTORS
330
5A1
102
}
330
5A1
100
AcDbScale
 70
     0
300
6" = 1'-0"
140
6.0
141
12.0
290
     0
  0
SCALE
  5
5B2
102
{ACAD_REACTORS
330
5A1
102
}
330
5A1
100
AcDbScale
 70
     0
300
1'-0" = 1'-0"
140
12.0
141
12.0
290
     0
  0
ACDBSECTIONVIEWSTYLE
  5
5B6
102
{ACAD_REACTORS
330
5B5
102
}
330
5B5
100
AcDbModelDocViewStyle
 70
     0
  3
Imperial24
290
     0
300
Imperial24
 90
        0
100
AcDbSectionViewStyle
 70
     0
 71
     0
 90
       78
 71
     1
340
529
 62
   256
 40
0.24
340
0
340
0
 62
   256
 40
0.24
300
I, O, Q, S, X, Z
 40
0.48
 90
        3
 40
0.18
 90
        1
 71
     2
340
52E
 90
       25
 62
   256
340
52E
 90
       50
 62
   256
 40
0.24
 40
0.0
 40
0.24
 71
     3
340
529
 62
   256
 40
0.24
 90
        1
 40
0.75
 90
        1
300
%<\AcVar ViewType \f "%tc1">% %<\AcVar ViewSectionStartId>%-%<\AcVar ViewSectionEndId>%\PSCALE %<\AcVar ViewScale \f "%sn">%
 71
     4
 62
   256
 62
   257
300
ANSI31
 40
1.0
 90
        0
290
     0
290
     0
 90
        6
 40
0.0
 40
1.570796326794896
 40
0.2617993877991494
 40
1.308996938995747
 40
-0.2617993877991494
 40
1.832595714594044
  0
TABLESTYLE
  5
5A0
102
{ACAD_XDICTIONARY
360
5EA
102
}
102
{ACAD_REACTORS
330
59F
102
}
330
59F
100
AcDbTableStyle
280
     0
  3
Standard
 70
     0
 71
     0
 40
0.06
 41
0.06
280
     0
281
     0
  7
Standard
140
0.18
170
     2
 62
     0
 63
     7
283
     0
 90
      512
 91
        0
  1

274
    -2
284
     1
 64
     0
275
    -2
285
     1
 65
     0
276
    -2
286
     1
 66
     0
277
    -2
287
     1
 67
     0
278
    -2
288
     1
 68
     0
279
    -2
289
     1
 69
     0
  7
Standard
140
0.25
170
     5
 62
     0
 63
     7
283
     0
 90
      512
 91
        0
  1

274
    -2
284
     1
 64
     0
275
    -2
285
     1
 65
     0
276
    -2
286
     1
 66
     0
277
    -2
287
     1
 67
     0
278
    -2
288
     1
 68
     0
279
    -2
289
     1
 69
     0
  7
Standard
140
0.18
170
     5
 62
     0
 63
     7
283
     0
 90
      512
 91
        0
  1

274
    -2
284
     1
 64
     0
275
    -2
285
     1
 65
     0
276
    -2
286
     1
 66
     0
277
    -2
287
     1
 67
     0
278
    -2
288
     1
 68
     0
279
    -2
289
     1
 69
     0
  0
VISUALSTYLE
  5
58B
102
{ACAD_REACTORS
330
585
102
}
330
585
100
AcDbVisualStyle
  2
2dWireframe
 70
     4
177
     3
291
     0
 70
    58
 90
        0
176
     1
 90
        2
176
     1
 90
        0
176
     1
 90
        0
176
     1
 40
0.6
176
     1
 40
30.0
176
     1
 62
     7
420
 16777215
176
     1
 90
        1
176
     1
 90
        4
176
     1
 62
     7
176
     1
 62
   257
176
     1
 90
        1
176
     1
 90
        1
176
     1
 40
1.0
176
     1
 90
        0
176
     1
 62
   257
176
     1
 40
1.0
176
     1
 90
        1
176
     1
 90
        6
176
     1
 90
        2
176
     1
 62
     7
176
     1
 90
        5
176
     1
 90
        0
176
     1
 90
        0
176
     1
290
     0
176
     1
 90
        1
176
     1
 40
0.0
176
     1
 90
        0
176
     1
290
     1
176
     1
290
     1
176
     1
290
     0
176
     1
290
     0
176
     1
290
     0
176
     1
290
     0
176
     1
290
     0
176
     1
290
     0
176
     1
290
     0
176
     1
 90
       50
176
     1
 40
0.0
176
     1
 40
1.0
176
     1
 90
        0
176
     1
 62
    18
176
     1
 90
       50
176
     1
 90
        3
176
     1
 62
     5
420
      255
176
     1
290
     0
176
     1
 90
       50
176
     1
 90
       50
176
     1
 90
       50
176
     1
290
     0
176
     1
 90
       50
176
     1
 62
   256
176
     0
 40
1.0
176
     0
 90
        2
176
     1
  1
strokes_ogs.tif
176
     1
290
     0
176
     1
 40
1.0
176
     1
 40
1.0
176
     1
  0
VISUALSTYLE
  5
58A
102
{ACAD_REACTORS
330
585
102
}
330
585
100
AcDbVisualStyle
  2
Basic
 70
     7
177
     3
291
     1
 70
    58
 90
        1
176
     1
 90
        0
176
     1
 90
        1
176
     1
 90
        0
176
     1
 40
0.6
176
     1
 40
30.0
176
     1
 62
     7
420
 16777215
176
     1
 90
        0
176
     1
 90
        4
176
     1
 62
     7
176
     1
 62
   257
176
     1
 90
        1
176
     1
 90
        1
176
     1
 40
1.0
176
     1
 90
        8
176
     1
 62
     7
176
     1
 40
1.0
176
     1
 90
        1
176
     1
 90
        6
176
     1
 90
        2
176
     1
 62
     7
176
     1
 90
        5
176
     1
 90
        0
176
     1
 90
        0
176
     1
290
     0
176
     1
 90
        1
176
     1
 40
0.0
176
     1
 90
        0
176
     1
290
     0
176
     1
290
     1
176
     1
290
     1
176
     1
290
     0
176
     1
290
     0
176
     1
290
     0
176
     1
290
     0
176
     1
290
     0
176
     1
290
     0
176
     1
 90
       50
176
     1
 40
0.0
176
     1
 40
1.0
176
     1
 90
        0
176
     1
 62
    18
176
     1
 90
       50
176
     1
 90
        3
176
     1
 62
     5
420
      255
176
     1
290
     0
176
     1
 90
       50
176
     1
 90
       50
176
     1
 90
       50
176
     1
290
     0
176
     1
 90
       50
176
     1
 62
   256
176
     0
 40
1.0
176
     0
 90
        2
176
     1
  1
strokes_ogs.tif
176
     1
290
     0
176
     1
 40
1.0
176
     1
 40
1.0
176
     1
  0
VISUALSTYLE
  5
591
102
{ACAD_REACTORS
330
585
102
}
330
585
100
AcDbVisualStyle
  2
Brighten
 70
    12
177
     3
291
     1
 70
    58
 90
        2
176
     1
 90
        2
176
     1
 90
        0
176
     1
 90
        0
176
     1
 40
0.6
176
     1
 40
30.0
176
     1
 62
     7
420
 16777215
176
     1
 90
        1
176
     1
 90
        4
176
     1
 62
     7
176
     1
 62
   257
176
     1
 90
        1
176
     1
 90
        1
176
     1
 40
1.0
176
     1
 90
        8
176
     1
 62
     7
176
     1
 40
1.0
176
     1
 90
        1
176
     1
 90
        6
176
     1
 90
        2
176
     1
 62
     7
176
     1
 90
        5
176
     1
 90
        0
176
     1
 90
        0
176
     1
290
     0
176
     1
 90
        1
176
     1
 40
50.0
176
     1
 90
        0
176
     1
290
     0
176
     1
290
     1
176
     1
290
     1
176
     1
290
     0
176
     1
290
     0
176
     1
290
     0
176
     1
290
     0
176
     1
290
     0
176
     1
290
     0
176
     1
 90
       50
176
     1
 40
0.0
176
     1
 40
1.0
176
     1
 90
        0
176
     1
 62
    18
176
     1
 90
       50
176
     1
 90
        3
176
     1
 62
     5
420
      255
176
     1
290
     0
176
     1
 90
       50
176
     1
 90
       50
176
     1
 90
       50
176
     1
290
     0
176
     1
 90
       50
176
     1
 62
   256
176
     0
 40
1.0
176
     0
 90
        2
176
     1
  1
strokes_ogs.tif
176
     1
290
     0
176
     1
 40
1.0
176
     1
 40
1.0
176
     1
  0
VISUALSTYLE
  5
595
102
{ACAD_REACTORS
330
585
102
}
330
585
100
AcDbVisualStyle
  2
ColorChange
 70
    16
177
     3
291
     1
 70
    58
 90
        2
176
     1
 90
        2
176
     1
 90
        3
176
     1
 90
        0
176
     1
 40
0.6
176
     1
 40
30.0
176
     1
 62
     8
420
  8421504
176
     1
 90
        1
176
     1
 90
        4
176
     1
 62
     7
176
     1
 62
   257
176
     1
 90
        1
176
     1
 90
        1
176
     1
 40
1.0
176
     1
 90
        8
176
     1
 62
     8
420
  8421504
176
     1
 40
1.0
176
     1
 90
        1
176
     1
 90
        6
176
     1
 90
        2
176
     1
 62
     7
176
     1
 90
        5
176
     1
 90
        0
176
     1
 90
        0
176
     1
290
     0
176
     1
 90
        1
176
     1
 40
0.0
176
     1
 90
        0
176
     1
290
     0
176
     1
290
     1
176
     1
290
     1
176
     1
290
     0
176
     1
290
     0
176
     1
290
     0
176
     1
290
     0
176
     1
290
     0
176
     1
290
     0
176
     1
 90
       50
176
     1
 40
0.0
176
     1
 40
1.0
176
     1
 90
        0
176
     1
 62
    18
176
     1
 90
       50
176
     1
 90
        3
176
     1
 62
     5
420
      255
176
     1
290
     0
176
     1
 90
       50
176
     1
 90
       50
176
     1
 90
       50
176
     1
290
     0
176
     1
 90
       50
176
     1
 62
   256
176
     0
 40
1.0
176
     0
 90
        2
176
     1
  1
strokes_ogs.tif
176
     1
290
     0
176
     1
 40
1.0
176
     1
 40
1.0
176
     1
  0
VISUALSTYLE
  5
58E
102
{ACAD_REACTORS
330
585
102
}
330
585
100
AcDbVisualStyle
  2
Conceptual
 70
     9
177
     3
291
     0
 70
    58
 90
        3
176
     1
 90
        2
176
     1
 90
        0
176
     1
 90
        0
176
     1
 40
0.6
176
     1
 40
30.0
176
     1
 62
     7
420
 16777215
176
     1
 90
        2
176
     1
 90
        2
176
     1
 62
     7
176
     1
 62
   257
176
     1
 90
        1
176
     1
 90
        1
176
     1
 40
179.0
176
     1
 90
        8
176
     1
 62
     7
176
     1
 40
1.0
176
     1
 90
        1
176
     1
 90
        6
176
     1
 90
        2
176
     1
 62
     7
176
     1
 90
        3
176
     1
 90
        0
176
     1
 90
        0
176
     1
290
     0
176
     1
 90
        1
176
     1
 40
0.0
176
     1
 90
        0
176
     1
290
     0
176
     1
290
     1
176
     1
290
     1
176
     1
290
     0
176
     1
290
     0
176
     1
290
     0
176
     1
290
     0
176
     1
290
     0
176
     1
290
     0
176
     1
 90
       50
176
     1
 40
0.0
176
     1
 40
1.0
176
     1
 90
        0
176
     1
 62
    18
176
     1
 90
       50
176
     1
 90
        3
176
     1
 62
     5
420
      255
176
     1
290
     0
176
     1
 90
       50
176
     1
 90
       50
176
     1
 90
       50
176
     1
290
     0
176
     1
 90
       50
176
     1
 62
   256
176
     0
 40
1.0
176
     0
 90
        2
176
     1
  1
strokes_ogs.tif
176
     1
290
     0
176
     1
 40
1.0
176
     1
 40
1.0
176
     1
  0
VISUALSTYLE
  5
590
102
{ACAD_REACTORS
330
585
102
}
330
585
100
AcDbVisualStyle
  2
Dim
 70
    11
177
     3
291
     1
 70
    58
 90
        2
176
     1
 90
        2
176
     1
 90
        0
176
     1
 90
        0
176
     1
 40
0.6
176
     1
 40
30.0
176
     1
 62
     7
420
 16777215
176
     1
 90
        1
176
     1
 90
        4
176
     1
 62
     7
176
     1
 62
   257
176
     1
 90
        1
176
     1
 90
        1
176
     1
 40
1.0
176
     1
 90
        8
176
     1
 62
     7
176
     1
 40
1.0
176
     1
 90
        1
176
     1
 90
        6
176
     1
 90
        2
176
     1
 62
     7
176
     1
 90
        5
176
     1
 90
        0
176
     1
 90
        0
176
     1
290
     0
176
     1
 90
        1
176
     1
 40
-50.0
176
     1
 90
        0
176
     1
290
     0
176
     1
290
     1
176
     1
290
     1
176
     1
290
     0
176
     1
290
     0
176
     1
290
     0
176
     1
290
     0
176
     1
290
     0
176
     1
290
     0
176
     1
 90
       50
176
     1
 40
0.0
176
     1
 40
1.0
176
     1
 90
        0
176
     1
 62
    18
176
     1
 90
       50
176
     1
 90
        3
176
     1
 62
     5
420
      255
176
     1
290
     0
176
     1
 90
       50
176
     1
 90
       50
176
     1
 90
       50
176
     1
290
     0
176
     1
 90
       50
176
     1
 62
   256
176
     0
 40
1.0
176
     0
 90
        2
176
     1
  1
strokes_ogs.tif
176
     1
290
     0
176
     1
 40
1.0
176
     1
 40
1.0
176
     1
  0
VISUALSTYLE
  5
59D
102
{ACAD_REACTORS
330
585
102
}
330
585
100
AcDbVisualStyle
  2
EdgeColorOff
 70
    22
177
     3
291
     1
 70
    58
 90
        2
176
     0
 90
        2
176
     0
 90
        0
176
     0
 90
        0
176
     0
 40
0.6
176
     0
 40
30.0
176
     0
 62
     7
420
 16777215
176
     0
 90
        1
176
     0
 90
        4
176
     0
 62
     7
176
     0
 62
   257
176
     0
 90
        1
176
     0
 90
        1
176
     0
 40
1.0
176
     0
 90
        8
176
     2
 62
     7
176
     0
 40
1.0
176
     0
 90
        1
176
     0
 90
        6
176
     0
 90
        2
176
     0
 62
     7
176
     0
 90
        5
176
     0
 90
        0
176
     0
 90
        0
176
     0
290
     0
176
     0
 90
        1
176
     0
 40
0.0
176
     0
 90
        0
176
     0
290
     0
176
     1
290
     1
176
     1
290
     1
176
     1
290
     0
176
     1
290
     0
176
     1
290
     0
176
     1
290
     0
176
     1
290
     0
176
     1
290
     0
176
     1
 90
       50
176
     0
 40
0.0
176
     0
 40
1.0
176
     0
 90
        0
176
     0
 62
    18
176
     0
 90
       50
176
     0
 90
        3
176
     0
 62
     5
420
      255
176
     0
290
     0
176
     1
 90
       50
176
     0
 90
       50
176
     0
 90
       50
176
     0
290
     0
176
     1
 90
       50
176
     0
 62
   256
176
     0
 40
1.0
176
     0
 90
        2
176
     0
  1
strokes_ogs.tif
176
     0
290
     0
176
     1
 40
1.0
176
     0
 40
1.0
176
     0
  0
VISUALSTYLE
  5
594
102
{ACAD_REACTORS
330
585
102
}
330
585
100
AcDbVisualStyle
  2
Facepattern
 70
    15
177
     3
291
     1
 70
    58
 90
        2
176
     1
 90
        2
176
     1
 90
        0
176
     1
 90
        0
176
     1
 40
0.6
176
     1
 40
30.0
176
     1
 62
     7
420
 16777215
176
     1
 90
        1
176
     1
 90
        4
176
     1
 62
     7
176
     1
 62
   257
176
     1
 90
        1
176
     1
 90
        1
176
     1
 40
1.0
176
     1
 90
        8
176
     1
 62
     7
176
     1
 40
1.0
176
     1
 90
        1
176
     1
 90
        6
176
     1
 90
        2
176
     1
 62
     7
176
     1
 90
        5
176
     1
 90
        0
176
     1
 90
        0
176
     1
290
     0
176
     1
 90
        1
176
     1
 40
0.0
176
     1
 90
        0
176
     1
290
     0
176
     1
290
     1
176
     1
290
     1
176
     1
290
     0
176
     1
290
     0
176
     1
290
     0
176
     1
290
     0
176
     1
290
     0
176
     1
290
     0
176
     1
 90
       50
176
     1
 40
0.0
176
     1
 40
1.0
176
     1
 90
        0
176
     1
 62
    18
176
     1
 90
       50
176
     1
 90
        3
176
     1
 62
     5
420
      255
176
     1
290
     0
176
     1
 90
       50
176
     1
 90
       50
176
     1
 90
       50
176
     1
290
     0
176
     1
 90
       50
176
     1
 62
   256
176
     0
 40
1.0
176
     0
 90
        2
176
     1
  1
strokes_ogs.tif
176
     1
290
     0
176
     1
 40
1.0
176
     1
 40
1.0
176
     1
  0
VISUALSTYLE
  5
586
102
{ACAD_REACTORS
330
585
102
}
330
585
100
AcDbVisualStyle
  2
Flat
 70
     0
177
     3
291
     1
 70
    58
 90
        2
176
     1
 90
        1
176
     1
 90
        1
176
     1
 90
        2
176
     1
 40
0.6
176
     1
 40
30.0
176
     1
 62
     7
420
 16777215
176
     1
 90
        0
176
     1
 90
        0
176
     1
 62
     7
176
     1
 62
   257
176
     1
 90
        1
176
     1
 90
        1
176
     1
 40
1.0
176
     1
 90
        8
176
     1
 62
     7
176
     1
 40
1.0
176
     1
 90
        1
176
     1
 90
        6
176
     1
 90
        2
176
     1
 62
     7
176
     1
 90
        5
176
     1
 90
        0
176
     1
 90
        0
176
     1
290
     0
176
     1
 90
       13
176
     1
 40
0.0
176
     1
 90
        0
176
     1
290
     0
176
     1
290
     1
176
     1
290
     1
176
     1
290
     0
176
     1
290
     0
176
     1
290
     0
176
     1
290
     0
176
     1
290
     0
176
     1
290
     0
176
     1
 90
       50
176
     1
 40
0.0
176
     1
 40
1.0
176
     1
 90
        0
176
     1
 62
    18
176
     1
 90
       50
176
     1
 90
        3
176
     1
 62
     5
420
      255
176
     1
290
     0
176
     1
 90
       50
176
     1
 90
       50
176
     1
 90
       50
176
     1
290
     0
176
     1
 90
       50
176
     1
 62
   256
176
     0
 40
1.0
176
     0
 90
        2
176
     1
  1
strokes_ogs.tif
176
     1
290
     0
176
     1
 40
1.0
176
     1
 40
1.0
176
     1
  0
VISUALSTYLE
  5
587
102
{ACAD_REACTORS
330
585
102
}
330
585
100
AcDbVisualStyle
  2
FlatWithEdges
 70
     1
177
     3
291
     1
 70
    58
 90
        2
176
     1
 90
        1
176
     1
 90
        1
176
     1
 90
        2
176
     1
 40
0.6
176
     1
 40
30.0
176
     1
 62
     7
420
 16777215
176
     1
 90
        1
176
     1
 90
        0
176
     1
 62
     7
176
     1
 62
   257
176
     1
 90
        1
176
     1
 90
        1
176
     1
 40
1.0
176
     1
 90
        0
176
     1
 62
   257
176
     1
 40
1.0
176
     1
 90
        1
176
     1
 90
        6
176
     1
 90
        2
176
     1
 62
     7
176
     1
 90
        5
176
     1
 90
        0
176
     1
 90
        0
176
     1
290
     0
176
     1
 90
       13
176
     1
 40
0.0
176
     1
 90
        0
176
     1
290
     0
176
     1
290
     1
176
     1
290
     1
176
     1
290
     0
176
     1
290
     0
176
     1
290
     0
176
     1
290
     0
176
     1
290
     0
176
     1
290
     0
176
     1
 90
       50
176
     1
 40
0.0
176
     1
 40
1.0
176
     1
 90
        0
176
     1
 62
    18
176
     1
 90
       50
176
     1
 90
        3
176
     1
 62
     5
420
      255
176
     1
290
     0
176
     1
 90
       50
176
     1
 90
       50
176
     1
 90
       50
176
     1
290
     0
176
     1
 90
       50
176
     1
 62
   256
176
     0
 40
1.0
176
     0
 90
        2
176
     1
  1
strokes_ogs.tif
176
     1
290
     0
176
     1
 40
1.0
176
     1
 40
1.0
176
     1
  0
VISUALSTYLE
  5
588
102
{ACAD_REACTORS
330
585
102
}
330
585
100
AcDbVisualStyle
  2
Gouraud
 70
     2
177
     3
291
     1
 70
    58
 90
        2
176
     1
 90
        2
176
     1
 90
        1
176
     1
 90
        2
176
     1
 40
0.6
176
     1
 40
30.0
176
     1
 62
     7
420
 16777215
176
     1
 90
        0
176
     1
 90
        0
176
     1
 62
     7
176
     1
 62
   257
176
     1
 90
        1
176
     1
 90
        1
176
     1
 40
1.0
176
     1
 90
        0
176
     1
 62
     7
176
     1
 40
1.0
176
     1
 90
        1
176
     1
 90
        6
176
     1
 90
        2
176
     1
 62
     7
176
     1
 90
        5
176
     1
 90
        0
176
     1
 90
        0
176
     1
290
     0
176
     1
 90
       13
176
     1
 40
0.0
176
     1
 90
        0
176
     1
290
     0
176
     1
290
     1
176
     1
290
     1
176
     1
290
     0
176
     1
290
     0
176
     1
290
     0
176
     1
290
     0
176
     1
290
     0
176
     1
290
     0
176
     1
 90
       50
176
     1
 40
0.0
176
     1
 40
1.0
176
     1
 90
        0
176
     1
 62
    18
176
     1
 90
       50
176
     1
 90
        3
176
     1
 62
     5
420
      255
176
     1
290
     0
176
     1
 90
       50
176
     1
 90
       50
176
     1
 90
       50
176
     1
290
     0
176
     1
 90
       50
176
     1
 62
   256
176
     0
 40
1.0
176
     0
 90
        2
176
     1
  1
strokes_ogs.tif
176
     1
290
     0
176
     1
 40
1.0
176
     1
 40
1.0
176
     1
  0
VISUALSTYLE
  5
589
102
{ACAD_REACTORS
330
585
102
}
330
585
100
AcDbVisualStyle
  2
GouraudWithEdges
 70
     3
177
     3
291
     1
 70
    58
 90
        2
176
     1
 90
        2
176
     1
 90
        1
176
     1
 90
        2
176
     1
 40
0.6
176
     1
 40
30.0
176
     1
 62
     7
420
 16777215
176
     1
 90
        1
176
     1
 90
        0
176
     1
 62
     7
176
     1
 62
   257
176
     1
 90
        1
176
     1
 90
        1
176
     1
 40
1.0
176
     1
 90
        0
176
     1
 62
   257
176
     1
 40
1.0
176
     1
 90
        1
176
     1
 90
        6
176
     1
 90
        2
176
     1
 62
     7
176
     1
 90
        5
176
     1
 90
        0
176
     1
 90
        0
176
     1
290
     0
176
     1
 90
       13
176
     1
 40
0.0
176
     1
 90
        0
176
     1
290
     0
176
     1
290
     1
176
     1
290
     1
176
     1
290
     0
176
     1
290
     0
176
     1
290
     0
176
     1
290
     0
176
     1
290
     0
176
     1
290
     0
176
     1
 90
       50
176
     1
 40
0.0
176
     1
 40
1.0
176
     1
 90
        0
176
     1
 62
    18
176
     1
 90
       50
176
     1
 90
        3
176
     1
 62
     5
420
      255
176
     1
290
     0
176
     1
 90
       50
176
     1
 90
       50
176
     1
 90
       50
176
     1
290
     0
176
     1
 90
       50
176
     1
 62
   256
176
     0
 40
1.0
176
     0
 90
        2
176
     1
  1
strokes_ogs.tif
176
     1
290
     0
176
     1
 40
1.0
176
     1
 40
1.0
176
     1
  0
VISUALSTYLE
  5
58D
102
{ACAD_REACTORS
330
585
102
}
330
585
100
AcDbVisualStyle
  2
Hidden
 70
     6
177
     3
291
     0
 70
    58
 90
        1
176
     1
 90
        2
176
     1
 90
        2
176
     1
 90
        0
176
     1
 40
0.6
176
     1
 40
30.0
176
     1
 62
     7
420
 16777215
176
     1
 90
        2
176
     1
 90
        2
176
     1
 62
     7
176
     1
 62
   257
176
     1
 90
        2
176
     1
 90
        1
176
     1
 40
40.0
176
     1
 90
        0
176
     1
 62
   257
176
     1
 40
1.0
176
     1
 90
        1
176
     1
 90
        6
176
     1
 90
        2
176
     1
 62
     7
176
     1
 90
        3
176
     1
 90
        0
176
     1
 90
        0
176
     1
290
     0
176
     1
 90
        1
176
     1
 40
0.0
176
     1
 90
        0
176
     1
290
     0
176
     1
290
     1
176
     1
290
     1
176
     1
290
     0
176
     1
290
     0
176
     1
290
     0
176
     1
290
     0
176
     1
290
     0
176
     1
290
     0
176
     1
 90
       50
176
     1
 40
0.0
176
     1
 40
1.0
176
     1
 90
        0
176
     1
 62
    18
176
     1
 90
       50
176
     1
 90
        3
176
     1
 62
     5
420
      255
176
     1
290
     0
176
     1
 90
       50
176
     1
 90
       50
176
     1
 90
       50
176
     1
290
     0
176
     1
 90
       50
176
     1
 62
   256
176
     0
 40
1.0
176
     0
 90
        2
176
     1
  1
strokes_ogs.tif
176
     1
290
     0
176
     1
 40
1.0
176
     1
 40
1.0
176
     1
  0
VISUALSTYLE
  5
59B
102
{ACAD_REACTORS
330
585
102
}
330
585
100
AcDbVisualStyle
  2
JitterOff
 70
    20
177
     3
291
     1
 70
    58
 90
        2
176
     0
 90
        2
176
     0
 90
        0
176
     0
 90
        0
176
     0
 40
0.6
176
     0
 40
30.0
176
     0
 62
     7
420
 16777215
176
     0
 90
        1
176
     0
 90
        4
176
     0
 62
     7
176
     0
 62
   257
176
     0
 90
        1
176
     0
 90
        1
176
     0
 40
1.0
176
     0
 90
       10
176
     2
 62
     7
176
     0
 40
1.0
176
     0
 90
        1
176
     0
 90
        6
176
     0
 90
        2
176
     0
 62
     7
176
     0
 90
        5
176
     0
 90
        0
176
     0
 90
        0
176
     0
290
     0
176
     0
 90
        1
176
     0
 40
0.0
176
     0
 90
        0
176
     0
290
     0
176
     1
290
     1
176
     1
290
     1
176
     1
290
     0
176
     1
290
     0
176
     1
290
     0
176
     1
290
     0
176
     1
290
     0
176
     1
290
     0
176
     1
 90
       50
176
     0
 40
0.0
176
     0
 40
1.0
176
     0
 90
        0
176
     0
 62
    18
176
     0
 90
       50
176
     0
 90
        3
176
     0
 62
     5
420
      255
176
     0
290
     0
176
     1
 90
       50
176
     0
 90
       50
176
     0
 90
       50
176
     0
290
     0
176
     1
 90
       50
176
     0
 62
   256
176
     0
 40
1.0
176
     0
 90
        2
176
     0
  1
strokes_ogs.tif
176
     0
290
     0
176
     1
 40
1.0
176
     0
 40
1.0
176
     0
  0
VISUALSTYLE
  5
593
102
{ACAD_REACTORS
330
585
102
}
330
585
100
AcDbVisualStyle
  2
Linepattern
 70
    14
177
     3
291
     1
 70
    58
 90
        2
176
     1
 90
        2
176
     1
 90
        0
176
     1
 90
        0
176
     1
 40
0.6
176
     1
 40
30.0
176
     1
 62
     7
420
 16777215
176
     1
 90
        1
176
     1
 90
        4
176
     1
 62
     7
176
     1
 62
   257
176
     1
 90
        7
176
     1
 90
        7
176
     1
 40
1.0
176
     1
 90
        8
176
     1
 62
     7
176
     1
 40
1.0
176
     1
 90
        1
176
     1
 90
        6
176
     1
 90
        2
176
     1
 62
     7
176
     1
 90
        5
176
     1
 90
        0
176
     1
 90
        0
176
     1
290
     0
176
     1
 90
        1
176
     1
 40
0.0
176
     1
 90
        0
176
     1
290
     0
176
     1
290
     1
176
     1
290
     1
176
     1
290
     0
176
     1
290
     0
176
     1
290
     0
176
     1
290
     0
176
     1
290
     0
176
     1
290
     0
176
     1
 90
       50
176
     1
 40
0.0
176
     1
 40
1.0
176
     1
 90
        0
176
     1
 62
    18
176
     1
 90
       50
176
     1
 90
        3
176
     1
 62
     5
420
      255
176
     1
290
     0
176
     1
 90
       50
176
     1
 90
       50
176
     1
 90
       50
176
     1
290
     0
176
     1
 90
       50
176
     1
 62
   256
176
     0
 40
1.0
176
     0
 90
        2
176
     1
  1
strokes_ogs.tif
176
     1
290
     0
176
     1
 40
1.0
176
     1
 40
1.0
176
     1
  0
VISUALSTYLE
  5
59C
102
{ACAD_REACTORS
330
585
102
}
330
585
100
AcDbVisualStyle
  2
OverhangOff
 70
    21
177
     3
291
     1
 70
    58
 90
        2
176
     0
 90
        2
176
     0
 90
        0
176
     0
 90
        0
176
     0
 40
0.6
176
     0
 40
30.0
176
     0
 62
     7
420
 16777215
176
     0
 90
        1
176
     0
 90
        4
176
     0
 62
     7
176
     0
 62
   257
176
     0
 90
        1
176
     0
 90
        1
176
     0
 40
1.0
176
     0
 90
        9
176
     2
 62
     7
176
     0
 40
1.0
176
     0
 90
        1
176
     0
 90
        6
176
     0
 90
        2
176
     0
 62
     7
176
     0
 90
        5
176
     0
 90
        0
176
     0
 90
        0
176
     0
290
     0
176
     0
 90
        1
176
     0
 40
0.0
176
     0
 90
        0
176
     0
290
     0
176
     1
290
     1
176
     1
290
     1
176
     1
290
     0
176
     1
290
     0
176
     1
290
     0
176
     1
290
     0
176
     1
290
     0
176
     1
290
     0
176
     1
 90
       50
176
     0
 40
0.0
176
     0
 40
1.0
176
     0
 90
        0
176
     0
 62
    18
176
     0
 90
       50
176
     0
 90
        3
176
     0
 62
     5
420
      255
176
     0
290
     0
176
     1
 90
       50
176
     0
 90
       50
176
     0
 90
       50
176
     0
290
     0
176
     1
 90
       50
176
     0
 62
   256
176
     0
 40
1.0
176
     0
 90
        2
176
     0
  1
strokes_ogs.tif
176
     0
290
     0
176
     1
 40
1.0
176
     0
 40
1.0
176
     0
  0
VISUALSTYLE
  5
58F
102
{ACAD_REACTORS
330
585
102
}
330
585
100
AcDbVisualStyle
  2
Realistic
 70
     8
177
     3
291
     0
 70
    58
 90
        2
176
     1
 90
        3
176
     1
 90
        0
176
     1
 90
        2
176
     1
 40
0.6
176
     1
 40
30.0
176
     1
 62
     7
420
 16777215
176
     1
 90
        0
176
     1
 90
        0
176
     1
 62
     7
176
     1
 62
   257
176
     1
 90
        1
176
     1
 90
        1
176
     1
 40
1.0
176
     1
 90
        8
176
     1
 62
   257
176
     1
 40
1.0
176
     1
 90
        1
176
     1
 90
        6
176
     1
 90
        2
176
     1
 62
     7
176
     1
 90
        3
176
     1
 90
        0
176
     1
 90
        0
176
     1
290
     0
176
     1
 90
       13
176
     1
 40
0.0
176
     1
 90
        0
176
     1
290
     0
176
     1
290
     1
176
     1
290
     1
176
     1
290
     0
176
     1
290
     0
176
     1
290
     0
176
     1
290
     0
176
     1
290
     0
176
     1
290
     0
176
     1
 90
       50
176
     1
 40
0.0
176
     1
 40
1.0
176
     1
 90
        0
176
     1
 62
    18
176
     1
 90
       50
176
     1
 90
        3
176
     1
 62
     5
420
      255
176
     1
290
     0
176
     1
 90
       50
176
     1
 90
       50
176
     1
 90
       50
176
     1
290
     0
176
     1
 90
       50
176
     1
 62
   256
176
     0
 40
1.0
176
     0
 90
        2
176
     1
  1
strokes_ogs.tif
176
     1
290
     0
176
     1
 40
1.0
176
     1
 40
1.0
176
     1
  0
VISUALSTYLE
  5
59A
102
{ACAD_REACTORS
330
585
102
}
330
585
100
AcDbVisualStyle
  2
Shaded
 70
    27
177
     3
291
     0
 70
    58
 90
        2
176
     1
 90
        2
176
     1
 90
        1
176
     1
 90
        2
176
     1
 40
0.6
176
     1
 40
30.0
176
     1
 62
     7
420
 16777215
176
     1
 90
        0
176
     1
 90
        4
176
     1
 62
     7
176
     1
 62
   257
176
     1
 90
        1
176
     1
 90
        1
176
     1
 40
1.0
176
     1
 90
        8
176
     1
 62
   257
176
     1
 40
1.0
176
     1
 90
        1
176
     1
 90
        6
176
     1
 90
        2
176
     1
 62
     8
420
  7895160
176
     1
 90
        3
176
     1
 90
        0
176
     1
 90
        0
176
     1
290
     0
176
     1
 90
        5
176
     1
 40
0.0
176
     1
 90
        0
176
     1
290
     0
176
     1
290
     1
176
     1
290
     1
176
     1
290
     0
176
     1
290
     0
176
     1
290
     0
176
     1
290
     0
176
     1
290
     0
176
     1
290
     0
176
     1
 90
       50
176
     1
 40
0.0
176
     1
 40
1.0
176
     1
 90
        0
176
     1
 62
    18
176
     1
 90
       50
176
     1
 90
        3
176
     1
 62
     5
420
      255
176
     1
290
     0
176
     1
 90
       50
176
     1
 90
       50
176
     1
 90
       50
176
     1
290
     0
176
     1
 90
       50
176
     1
 62
   256
176
     0
 40
1.0
176
     0
 90
        2
176
     1
  1
strokes_ogs.tif
176
     1
290
     0
176
     1
 40
1.0
176
     1
 40
1.0
176
     1
  0
VISUALSTYLE
  5
599
102
{ACAD_REACTORS
330
585
102
}
330
585
100
AcDbVisualStyle
  2
Shaded with edges
 70
    26
177
     3
291
     0
 70
    58
 90
        2
176
     1
 90
        2
176
     1
 90
        1
176
     1
 90
        2
176
     1
 40
0.6
176
     1
 40
30.0
176
     1
 62
     7
420
 16777215
176
     1
 90
        1
176
     1
 90
        2
176
     1
 62
     7
176
     1
 62
   257
176
     1
 90
        2
176
     1
 90
        1
176
     1
 40
1.0
176
     1
 90
        8
176
     1
 62
   257
176
     1
 40
1.0
176
     1
 90
        1
176
     1
 90
        6
176
     1
 90
        2
176
     1
 62
     7
176
     1
 90
        3
176
     1
 90
        0
176
     1
 90
        0
176
     1
290
     0
176
     1
 90
        5
176
     1
 40
0.0
176
     1
 90
        0
176
     1
290
     0
176
     1
290
     1
176
     1
290
     1
176
     1
290
     0
176
     1
290
     0
176
     1
290
     0
176
     1
290
     0
176
     1
290
     0
176
     1
290
     0
176
     1
 90
       50
176
     1
 40
0.0
176
     1
 40
1.0
176
     1
 90
        0
176
     1
 62
    18
176
     1
 90
       50
176
     1
 90
        3
176
     1
 62
     5
420
      255
176
     1
290
     0
176
     1
 90
       50
176
     1
 90
       50
176
     1
 90
       50
176
     1
290
     0
176
     1
 90
       50
176
     1
 62
   256
176
     0
 40
1.0
176
     0
 90
        2
176
     1
  1
strokes_ogs.tif
176
     1
290
     0
176
     1
 40
1.0
176
     1
 40
1.0
176
     1
  0
VISUALSTYLE
  5
596
102
{ACAD_REACTORS
330
585
102
}
330
585
100
AcDbVisualStyle
  2
Shades of Gray
 70
    23
177
     3
291
     0
 70
    58
 90
        2
176
     1
 90
        2
176
     1
 90
        3
176
     1
 90
        0
176
     1
 40
0.6
176
     1
 40
30.0
176
     1
 62
     7
420
 16777215
176
     1
 90
        2
176
     1
 90
        2
176
     1
 62
     7
176
     1
 62
     7
176
     1
 90
        1
176
     1
 90
        1
176
     1
 40
40.0
176
     1
 90
        8
176
     1
 62
     7
176
     1
 40
1.0
176
     1
 90
        1
176
     1
 90
        6
176
     1
 90
        2
176
     1
 62
     7
176
     1
 90
        3
176
     1
 90
        0
176
     1
 90
        0
176
     1
290
     0
176
     1
 90
        1
176
     1
 40
0.0
176
     1
 90
        0
176
     1
290
     0
176
     1
290
     1
176
     1
290
     1
176
     1
290
     0
176
     1
290
     0
176
     1
290
     0
176
     1
290
     0
176
     1
290
     0
176
     1
290
     0
176
     1
 90
       50
176
     1
 40
0.0
176
     1
 40
1.0
176
     1
 90
        0
176
     1
 62
    18
176
     1
 90
       50
176
     1
 90
        3
176
     1
 62
     5
420
      255
176
     1
290
     0
176
     1
 90
       50
176
     1
 90
       50
176
     1
 90
       50
176
     1
290
     0
176
     1
 90
       50
176
     1
 62
   256
176
     0
 40
1.0
176
     0
 90
        2
176
     1
  1
strokes_ogs.tif
176
     1
290
     0
176
     1
 40
1.0
176
     1
 40
1.0
176
     1
  0
VISUALSTYLE
  5
597
102
{ACAD_REACTORS
330
585
102
}
330
585
100
AcDbVisualStyle
  2
Sketchy
 70
    24
177
     3
291
     0
 70
    58
 90
        1
176
     1
 90
        2
176
     1
 90
        2
176
     1
 90
        0
176
     1
 40
0.6
176
     1
 40
30.0
176
     1
 62
     7
420
 16777215
176
     1
 90
        2
176
     1
 90
        2
176
     1
 62
     7
176
     1
 62
     7
176
     1
 90
        1
176
     1
 90
        1
176
     1
 40
40.0
176
     1
 90
       11
176
     1
 62
     7
176
     1
 40
1.0
176
     1
 90
        1
176
     1
 90
        6
176
     1
 90
        2
176
     1
 62
     7
176
     1
 90
        6
176
     1
 90
        0
176
     1
 90
        0
176
     1
290
     0
176
     1
 90
        1
176
     1
 40
0.0
176
     1
 90
        0
176
     1
290
     0
176
     1
290
     1
176
     1
290
     1
176
     1
290
     0
176
     1
290
     0
176
     1
290
     0
176
     1
290
     0
176
     1
290
     0
176
     1
290
     0
176
     1
 90
       50
176
     1
 40
0.0
176
     1
 40
1.0
176
     1
 90
        0
176
     1
 62
    18
176
     1
 90
       50
176
     1
 90
        3
176
     1
 62
     5
420
      255
176
     1
290
     0
176
     1
 90
       50
176
     1
 90
       50
176
     1
 90
       50
176
     1
290
     0
176
     1
 90
       50
176
     1
 62
   256
176
     0
 40
1.0
176
     0
 90
        2
176
     1
  1
strokes_ogs.tif
176
     1
290
     0
176
     1
 40
1.0
176
     1
 40
1.0
176
     1
  0
VISUALSTYLE
  5
592
102
{ACAD_REACTORS
330
585
102
}
330
585
100
AcDbVisualStyle
  2
Thicken
 70
    13
177
     3
291
     1
 70
    58
 90
        2
176
     1
 90
        2
176
     1
 90
        0
176
     1
 90
        0
176
     1
 40
0.6
176
     1
 40
30.0
176
     1
 62
     7
420
 16777215
176
     1
 90
        1
176
     1
 90
        4
176
     1
 62
     7
176
     1
 62
   257
176
     1
 90
        1
176
     1
 90
        1
176
     1
 40
1.0
176
     1
 90
       12
176
     1
 62
     7
176
     1
 40
1.0
176
     1
 90
        1
176
     1
 90
        6
176
     1
 90
        2
176
     1
 62
     7
176
     1
 90
        5
176
     1
 90
        0
176
     1
 90
        0
176
     1
290
     0
176
     1
 90
        1
176
     1
 40
0.0
176
     1
 90
        0
176
     1
290
     0
176
     1
290
     1
176
     1
290
     1
176
     1
290
     0
176
     1
290
     0
176
     1
290
     0
176
     1
290
     0
176
     1
290
     0
176
     1
290
     0
176
     1
 90
       50
176
     1
 40
0.0
176
     1
 40
1.0
176
     1
 90
        0
176
     1
 62
    18
176
     1
 90
       50
176
     1
 90
        3
176
     1
 62
     5
420
      255
176
     1
290
     0
176
     1
 90
       50
176
     1
 90
       50
176
     1
 90
       50
176
     1
290
     0
176
     1
 90
       50
176
     1
 62
   256
176
     0
 40
1.0
176
     0
 90
        2
176
     1
  1
strokes_ogs.tif
176
     1
290
     0
176
     1
 40
1.0
176
     1
 40
1.0
176
     1
  0
VISUALSTYLE
  5
58C
102
{ACAD_REACTORS
330
585
102
}
330
585
100
AcDbVisualStyle
  2
Wireframe
 70
     5
177
     3
291
     0
 70
    58
 90
        0
176
     1
 90
        2
176
     1
 90
        0
176
     1
 90
        0
176
     1
 40
0.6
176
     1
 40
30.0
176
     1
 62
     7
420
 16777215
176
     1
 90
        1
176
     1
 90
        4
176
     1
 62
     7
176
     1
 62
   257
176
     1
 90
        1
176
     1
 90
        1
176
     1
 40
1.0
176
     1
 90
        0
176
     1
 62
   257
176
     1
 40
1.0
176
     1
 90
        1
176
     1
 90
        6
176
     1
 90
        2
176
     1
 62
     7
176
     1
 90
        3
176
     1
 90
        0
176
     1
 90
        0
176
     1
290
     0
176
     1
 90
        1
176
     1
 40
0.0
176
     1
 90
        0
176
     1
290
     0
176
     1
290
     1
176
     1
290
     1
176
     1
290
     0
176
     1
290
     0
176
     1
290
     0
176
     1
290
     0
176
     1
290
     0
176
     1
290
     0
176
     1
 90
       50
176
     1
 40
0.0
176
     1
 40
1.0
176
     1
 90
        0
176
     1
 62
    18
176
     1
 90
       50
176
     1
 90
        3
176
     1
 62
     5
420
      255
176
     1
290
     0
176
     1
 90
       50
176
     1
 90
       50
176
     1
 90
       50
176
     1
290
     0
176
     1
 90
       50
176
     1
 62
   256
176
     0
 40
1.0
176
     0
 90
        2
176
     1
  1
strokes_ogs.tif
176
     1
290
     0
176
     1
 40
1.0
176
     1
 40
1.0
176
     1
  0
VISUALSTYLE
  5
598
102
{ACAD_REACTORS
330
585
102
}
330
585
100
AcDbVisualStyle
  2
X-Ray
 70
    25
177
     3
291
     0
 70
    58
 90
        2
176
     1
 90
        2
176
     1
 90
        1
176
     1
 90
        1
176
     1
 40
0.5
176
     1
 40
30.0
176
     1
 62
     7
420
 16777215
176
     1
 90
        1
176
     1
 90
        0
176
     1
 62
     7
176
     1
 62
   257
176
     1
 90
        1
176
     1
 90
        1
176
     1
 40
1.0
176
     1
 90
        8
176
     1
 62
     7
176
     1
 40
1.0
176
     1
 90
        1
176
     1
 90
        6
176
     1
 90
        2
176
     1
 62
     7
176
     1
 90
        3
176
     1
 90
        0
176
     1
 90
        0
176
     1
290
     0
176
     1
 90
       13
176
     1
 40
0.0
176
     1
 90
        0
176
     1
290
     0
176
     1
290
     1
176
     1
290
     1
176
     1
290
     0
176
     1
290
     0
176
     1
290
     0
176
     1
290
     0
176
     1
290
     0
176
     1
290
     0
176
     1
 90
       50
176
     1
 40
0.0
176
     1
 40
1.0
176
     1
 90
        0
176
     1
 62
    18
176
     1
 90
       50
176
     1
 90
        3
176
     1
 62
     5
420
      255
176
     1
290
     0
176
     1
 90
       50
176
     1
 90
       50
176
     1
 90
       50
176
     1
290
     0
176
     1
 90
       50
176
     1
 62
   256
176
     0
 40
1.0
176
     0
 90
        2
176
     1
  1
strokes_ogs.tif
176
     1
290
     0
176
     1
 40
1.0
176
     1
 40
1.0
176
     1
  0
DICTIONARYVAR
  5
5E6
102
{ACAD_REACTORS
330
5E0
102
}
330
5E0
100
DictionaryVariables
280
     0
  1
1:1
  0
DICTIONARYVAR
  5
5E2
102
{ACAD_REACTORS
330
5E0
102
}
330
5E0
100
DictionaryVariables
280
     0
  1
STANDARD
  0
DICTIONARYVAR
  5
5E1
102
{ACAD_REACTORS
330
5E0
102
}
330
5E0
100
DictionaryVariables
280
     0
  1
STANDARD
  0
DICTIONARYVAR
  5
5E3
102
{ACAD_REACTORS
330
5E0
102
}
330
5E0
100
DictionaryVariables
280
     0
  1
Imperial24
  0
DICTIONARYVAR
  5
5E4
102
{ACAD_REACTORS
330
5E0
102
}
330
5E0
100
DictionaryVariables
280
     0
  1
Imperial24
  0
DICTIONARYVAR
  5
5E8
102
{ACAD_REACTORS
330
5E0
102
}
330
5E0
100
DictionaryVariables
280
     0
  1
1
  0
DICTIONARYVAR
  5
5E9
102
{ACAD_REACTORS
330
5E0
102
}
330
5E0
100
DictionaryVariables
280
     0
  1
15
  0
DICTIONARYVAR
  5
5E7
102
{ACAD_REACTORS
330
5E0
102
}
330
5E0
100
DictionaryVariables
280
     0
  1
0
  0
DICTIONARYVAR
  5
5E5
102
{ACAD_REACTORS
330
5E0
102
}
330
5E0
100
DictionaryVariables
280
     0
  1
0
  0
DICTIONARY
  5
576
330
575
100
AcDbDictionary
280
     1
281
     1
  3
BUMPTILE
360
578
  3
DIFFUSETILE
360
577
  3
OPACITYTILE
360
57B
  3
REFLECTIONTILE
360
57A
  3
REFRACTIONTILE
360
57C
  3
SPECULARTILE
360
579
  0
DICTIONARY
  5
56E
330
56D
100
AcDbDictionary
280
     1
281
     1
  3
BUMPTILE
360
570
  3
DIFFUSETILE
360
56F
  3
OPACITYTILE
360
573
  3
REFLECTIONTILE
360
572
  3
REFRACTIONTILE
360
574
  3
SPECULARTILE
360
571
  0
DICTIONARY
  5
57E
330
57D
100
AcDbDictionary
280
     1
281
     1
  3
BUMPTILE
360
580
  3
DIFFUSETILE
360
57F
  3
OPACITYTILE
360
583
  3
REFLECTIONTILE
360
582
  3
REFRACTIONTILE
360
584
  3
SPECULARTILE
360
581
  0
DICTIONARY
  5
5EA
330
5A0
100
AcDbDictionary
280
     1
281
     1
  3
ACAD_ROUNDTRIP_2008_TABLESTYLE_CELLSTYLEMAP
360
1017
  0
XRECORD
  5
578
102
{ACAD_REACTORS
330
576
102
}
330
576
100
AcDbXrecord
280
     1
270
     1
271
     1
  0
XRECORD
  5
577
102
{ACAD_REACTORS
330
576
102
}
330
576
100
AcDbXrecord
280
     1
270
     1
271
     1
  0
XRECORD
  5
57B
102
{ACAD_REACTORS
330
576
102
}
330
576
100
AcDbXrecord
280
     1
270
     1
271
     1
  0
XRECORD
  5
57A
102
{ACAD_REACTORS
330
576
102
}
330
576
100
AcDbXrecord
280
     1
270
     1
271
     1
  0
XRECORD
  5
57C
102
{ACAD_REACTORS
330
576
102
}
330
576
100
AcDbXrecord
280
     1
270
     1
271
     1
  0
XRECORD
  5
579
102
{ACAD_REACTORS
330
576
102
}
330
576
100
AcDbXrecord
280
     1
270
     1
271
     1
  0
XRECORD
  5
570
102
{ACAD_REACTORS
330
56E
102
}
330
56E
100
AcDbXrecord
280
     1
270
     1
271
     1
  0
XRECORD
  5
56F
102
{ACAD_REACTORS
330
56E
102
}
330
56E
100
AcDbXrecord
280
     1
270
     1
271
     1
  0
XRECORD
  5
573
102
{ACAD_REACTORS
330
56E
102
}
330
56E
100
AcDbXrecord
280
     1
270
     1
271
     1
  0
XRECORD
  5
572
102
{ACAD_REACTORS
330
56E
102
}
330
56E
100
AcDbXrecord
280
     1
270
     1
271
     1
  0
XRECORD
  5
574
102
{ACAD_REACTORS
330
56E
102
}
330
56E
100
AcDbXrecord
280
     1
270
     1
271
     1
  0
XRECORD
  5
571
102
{ACAD_REACTORS
330
56E
102
}
330
56E
100
AcDbXrecord
280
     1
270
     1
271
     1
  0
XRECORD
  5
580
102
{ACAD_REACTORS
330
57E
102
}
330
57E
100
AcDbXrecord
280
     1
270
     1
271
     1
  0
XRECORD
  5
57F
102
{ACAD_REACTORS
330
57E
102
}
330
57E
100
AcDbXrecord
280
     1
270
     1
271
     1
  0
XRECORD
  5
583
102
{ACAD_REACTORS
330
57E
102
}
330
57E
100
AcDbXrecord
280
     1
270
     1
271
     1
  0
XRECORD
  5
582
102
{ACAD_REACTORS
330
57E
102
}
330
57E
100
AcDbXrecord
280
     1
270
     1
271
     1
  0
XRECORD
  5
584
102
{ACAD_REACTORS
330
57E
102
}
330
57E
100
AcDbXrecord
280
     1
270
     1
271
     1
  0
XRECORD
  5
581
102
{ACAD_REACTORS
330
57E
102
}
330
57E
100
AcDbXrecord
280
     1
270
     1
271
     1
  0
CELLSTYLEMAP
  5
1017
102
{ACAD_REACTORS
330
5EA
102
}
330
5EA
100
AcDbCellStyleMap
 90
        3
300
CELLSTYLE
  1
TABLEFORMAT_BEGIN
 90
        5
170
     1
 91
        0
 92
    32768
 62
   257
 93
        1
300
CONTENTFORMAT
  1
CONTENTFORMAT_BEGIN
 90
        0
 91
        0
 92
      512
 93
        0
300

 40
0.0
140
1.0
 94
        5
 62
     0
340
529
144
0.25
309
CONTENTFORMAT_END
171
     1
301
MARGIN
  1
CELLMARGIN_BEGIN
 40
0.06
 40
0.06
 40
0.06
 40
0.06
 40
0.18
 40
0.18
309
CELLMARGIN_END
 94
        6
 95
        1
302
GRIDFORMAT
  1
GRIDFORMAT_BEGIN
 90
        0
 91
        1
 62
     0
 92
       -2
340
0
 93
        0
 40
0.045
309
GRIDFORMAT_END
 95
        2
302
GRIDFORMAT
  1
GRIDFORMAT_BEGIN
 90
        0
 91
        1
 62
     0
 92
       -2
340
0
 93
        0
 40
0.045
309
GRIDFORMAT_END
 95
        4
302
GRIDFORMAT
  1
GRIDFORMAT_BEGIN
 90
        0
 91
        1
 62
     0
 92
       -2
340
0
 93
        0
 40
0.045
309
GRIDFORMAT_END
 95
        8
302
GRIDFORMAT
  1
GRIDFORMAT_BEGIN
 90
        0
 91
        1
 62
     0
 92
       -2
340
0
 93
        0
 40
0.045
309
GRIDFORMAT_END
 95
       16
302
GRIDFORMAT
  1
GRIDFORMAT_BEGIN
 90
        0
 91
        1
 62
     0
 92
       -2
340
0
 93
        0
 40
0.045
309
GRIDFORMAT_END
 95
       32
302
GRIDFORMAT
  1
GRIDFORMAT_BEGIN
 90
        0
 91
        1
 62
     0
 92
       -2
340
0
 93
        0
 40
0.045
309
GRIDFORMAT_END
309
TABLEFORMAT_END
  1
CELLSTYLE_BEGIN
 90
        1
 91
        1
300
_TITLE
309
CELLSTYLE_END
300
CELLSTYLE
  1
TABLEFORMAT_BEGIN
 90
        5
170
     1
 91
        0
 92
        0
 62
   257
 93
        1
300
CONTENTFORMAT
  1
CONTENTFORMAT_BEGIN
 90
        0
 91
        0
 92
      512
 93
        0
300

 40
0.0
140
1.0
 94
        5
 62
     0
340
529
144
0.18
309
CONTENTFORMAT_END
171
     1
301
MARGIN
  1
CELLMARGIN_BEGIN
 40
0.06
 40
0.06
 40
0.06
 40
0.06
 40
0.18
 40
0.18
309
CELLMARGIN_END
 94
        6
 95
        1
302
GRIDFORMAT
  1
GRIDFORMAT_BEGIN
 90
        0
 91
        1
 62
     0
 92
       -2
340
0
 93
        0
 40
0.045
309
GRIDFORMAT_END
 95
        2
302
GRIDFORMAT
  1
GRIDFORMAT_BEGIN
 90
        0
 91
        1
 62
     0
 92
       -2
340
0
 93
        0
 40
0.045
309
GRIDFORMAT_END
 95
        4
302
GRIDFORMAT
  1
GRIDFORMAT_BEGIN
 90
        0
 91
        1
 62
     0
 92
       -2
340
0
 93
        0
 40
0.045
309
GRIDFORMAT_END
 95
        8
302
GRIDFORMAT
  1
GRIDFORMAT_BEGIN
 90
        0
 91
        1
 62
     0
 92
       -2
340
0
 93
        0
 40
0.045
309
GRIDFORMAT_END
 95
       16
302
GRIDFORMAT
  1
GRIDFORMAT_BEGIN
 90
        0
 91
        1
 62
     0
 92
       -2
340
0
 93
        0
 40
0.045
309
GRIDFORMAT_END
 95
       32
302
GRIDFORMAT
  1
GRIDFORMAT_BEGIN
 90
        0
 91
        1
 62
     0
 92
       -2
340
0
 93
        0
 40
0.045
309
GRIDFORMAT_END
309
TABLEFORMAT_END
  1
CELLSTYLE_BEGIN
 90
        2
 91
        1
300
_HEADER
309
CELLSTYLE_END
300
CELLSTYLE
  1
TABLEFORMAT_BEGIN
 90
        5
170
     1
 91
        0
 92
        0
 62
   257
 93
        1
300
CONTENTFORMAT
  1
CONTENTFORMAT_BEGIN
 90
        0
 91
        0
 92
      512
 93
        0
300

 40
0.0
140
1.0
 94
        2
 62
     0
340
529
144
0.18
309
CONTENTFORMAT_END
171
     1
301
MARGIN
  1
CELLMARGIN_BEGIN
 40
0.06
 40
0.06
 40
0.06
 40
0.06
 40
0.18
 40
0.18
309
CELLMARGIN_END
 94
        6
 95
        1
302
GRIDFORMAT
  1
GRIDFORMAT_BEGIN
 90
        0
 91
        1
 62
     0
 92
       -2
340
0
 93
        0
 40
0.045
309
GRIDFORMAT_END
 95
        2
302
GRIDFORMAT
  1
GRIDFORMAT_BEGIN
 90
        0
 91
        1
 62
     0
 92
       -2
340
0
 93
        0
 40
0.045
309
GRIDFORMAT_END
 95
        4
302
GRIDFORMAT
  1
GRIDFORMAT_BEGIN
 90
        0
 91
        1
 62
     0
 92
       -2
340
0
 93
        0
 40
0.045
309
GRIDFORMAT_END
 95
        8
302
GRIDFORMAT
  1
GRIDFORMAT_BEGIN
 90
        0
 91
        1
 62
     0
 92
       -2
340
0
 93
        0
 40
0.045
309
GRIDFORMAT_END
 95
       16
302
GRIDFORMAT
  1
GRIDFORMAT_BEGIN
 90
        0
 91
        1
 62
     0
 92
       -2
340
0
 93
        0
 40
0.045
309
GRIDFORMAT_END
 95
       32
302
GRIDFORMAT
  1
GRIDFORMAT_BEGIN
 90
        0
 91
        1
 62
     0
 92
       -2
340
0
 93
        0
 40
0.045
309
GRIDFORMAT_END
309
TABLEFORMAT_END
  1
CELLSTYLE_BEGIN
 90
        3
 91
        2
300
_DATA
309
CELLSTYLE_END
  0
ENDSEC
  0
SECTION
  2
ACDSDATA
 70
     2
 71
     8
  0
ACDSSCHEMA
 90
        0
  1
AcDb_Thumbnail_Schema
  2
AcDbDs::ID
280
    10
 91
        8
  2
Thumbnail_Data
280
    15
 91
        0
101
ACDSRECORD
 95
        0
 90
        1
  2
AcDbDs::TreatedAsObjectData
280
     1
291
     1
101
ACDSRECORD
 95
        0
 90
        2
  2
AcDbDs::Legacy
280
     1
291
     1
101
ACDSRECORD
  1
AcDbDs::ID
 90
        3
  2
AcDs:Indexable
280
     1
291
     1
101
ACDSRECORD
  1
AcDbDs::ID
 90
        4
  2
AcDbDs::HandleAttribute
280
     7
282
     1
  0
ACDSSCHEMA
 90
        1
  1
AcDbDs::TreatedAsObjectDataSchema
  2
AcDbDs::TreatedAsObjectData
280
     1
 91
        0
  0
ACDSSCHEMA
 90
        2
  1
AcDbDs::LegacySchema
  2
AcDbDs::Legacy
280
     1
 91
        0
  0
ACDSSCHEMA
 90
        3
  1
AcDbDs::IndexedPropertySchema
  2
AcDs:Indexable
280
     1
 91
        0
  0
ACDSSCHEMA
 90
        4
  1
AcDbDs::HandleAttributeSchema
  2
AcDbDs::HandleAttribute
280
     7
 91
        1
284
     1
  0
ACDSRECORD
 90
        0
  2
AcDbDs::ID
280
    10
320
4A
  2
Thumbnail_Data
280
    15
 94
     2241
310
89504E470D0A1A0A0000000D4948445200000144000001000803000000FCFDFF8E00000300504C5445212830FFFFFF2128300000000000000000000000000000000000000000000000000000330000660000990000CC0000FF0033000033330033660033990033CC0033FF0066000066330066660066990066CC0066FF0099
310
000099330099660099990099CC0099FF00CC0000CC3300CC6600CC9900CCCC00CCFF00FF0000FF3300FF6600FF9900FFCC00FFFF3300003300333300663300993300CC3300FF3333003333333333663333993333CC3333FF3366003366333366663366993366CC3366FF3399003399333399663399993399CC3399FF33CC00
310
33CC3333CC6633CC9933CCCC33CCFF33FF0033FF3333FF6633FF9933FFCC33FFFF6600006600336600666600996600CC6600FF6633006633336633666633996633CC6633FF6666006666336666666666996666CC6666FF6699006699336699666699996699CC6699FF66CC0066CC3366CC6666CC9966CCCC66CCFF66FF0066
310
FF3366FF6666FF9966FFCC66FFFF9900009900339900669900999900CC9900FF9933009933339933669933999933CC9933FF9966009966339966669966999966CC9966FF9999009999339999669999999999CC9999FF99CC0099CC3399CC6699CC9999CCCC99CCFF99FF0099FF3399FF6699FF9999FFCC99FFFFCC0000CC00
310
33CC0066CC0099CC00CCCC00FFCC3300CC3333CC3366CC3399CC33CCCC33FFCC6600CC6633CC6666CC6699CC66CCCC66FFCC9900CC9933CC9966CC9999CC99CCCC99FFCCCC00CCCC33CCCC66CCCC99CCCCCCCCCCFFCCFF00CCFF33CCFF66CCFF99CCFFCCCCFFFFFF0000FF0033FF0066FF0099FF00CCFF00FFFF3300FF3333
310
FF3366FF3399FF33CCFF33FFFF6600FF6633FF6666FF6699FF66CCFF66FFFF9900FF9933FF9966FF9999FF99CCFF99FFFFCC00FFCC33FFCC66FFCC99FFCCCCFFCCFFFFFF00FFFF33FFFF66FFFF99FFFFCCFFFFFF0000000D0D0D1A1A1A2828283535354343435050505D5D5D6B6B6B787878868686939393A1A1A1AEAEAEBB
310
BBBBC9C9C9D6D6D6E4E4E4F1F1F1FFFFFF0000000000000000000000000000000000000000000000000000000000002E4550F10000057C4944415478DAED9D5982AB201000B9FFB5BC465F83FF9949D451A0591405A5EAE3BDC490446B68965689310000000000000000000000000000000000000000000000000000000000
310
00009040348CFA645F0C7E25AADB457992F576242211891D49DC36777ADB87C40A16908844C2998E0589480CCC58421317476260AAC28CC5A94E12AD6492FB1E24229170A66341221291884424221189A7255A241648B4D444C219894CFB48409080B8B326723544853651681F9188C4DE25669E32956C89F2DE2BCBE4B68F
310
921B7601898433126FE95890884424DE31EDD32F7C9F4BA48BA5872A2F96983E70890FF24E49B4EF97B8D444E7404579424D8C1C9D3BAB40E28503712452132F9658A94DF433BA232473EB762CFBBFCE4079B32A439C40796BA522DE77742A31E463B365DB707A6524B7DE1FDE49F7ADD2347A4327AB44DB3BC9DC72B944E9
310
A8AF1277B7BC8A24262EA81B89ED2C8A925C50BB0E39B4651489B2B7279BBEDAEFBDDD1621B56528896E058CEE973D2FE77D129D39CA99FD1A56A2D73F9C187D5594681F20719F8BADF6B9B656316B0F5408243A059E20F1F1E16C7B967849C762FFE2D3CE716AFF66D3CBA3F97F3F7C9FD026EE66A35E7AA6F638F11B9D76
310
7563657DB46EB64F9628A2D6D06A3396FF7AF64E89FB84C44573676B46906812D99193599CA444F3F8700E1F7DCD7CA22AD1964ACCF9F337E99D8B868AF1548D92D9B6DBA776CE752F0FE617EDE64FB1BEA65D83BF49719B4749740E23E8AC547A78C724AF5CEB53038724A68F56027532F430368DCAAB626F9698572925FB
310
0BFA96A89D423B2731B3393D21B1709F1B8C73E256CE4B14392FB1A3214E1389A96F412212EF0BE768EF8C447F3C597AB448347E362D304E4422126F974838231189234BDCE7299188C4361225A7F8E32566246525966490B2BD79B6C4C8F20DB344AD54E2C35397B47B3B9359AC4B896A69093C563E3028D17FA46F099F95
310
7ABE44093F41E23189E17BCB6B4B94174A9492C3299498BBCB4F97280689791223C35CC989BF68375A55A2ED566216D674850CFCEDEF9558239C37535F3B4E9B68AB762CFA2515F4CED9439C6312871927E60DB62B4A1C77DA87C4441667ED3722599C98C481B238A937494E81D1F3896ACFE825658DD1AE0826B39D535CA2
310
6F10CEB13492F85F46EA36410349146A62058939A59188C45289EEF277A5CB7F2211898433129188442422711C89DDDDDB77FA06C9FB256E5F6D7EB6D2B939DE662CD3DA89446D71D9065552CA5F2ACC27960FB6F36E1A9723C7F4CFF4CB7D12951FC1F89718AE07DBBB7FB49AAFE9772496FE56588EC469FDE71E89F10815
310
25FCB26FE1976438FBF7F59BE8296BC97458CDE23B244E9FF074E2745A1E7DFE9D222E1B4AFCAE93D689C46913A2B209D6E96B732E718DC31312BF8B02F524F15321BF1F302D86A675F3E4772DA6B5C4653DA53E244EDBCA9529B19F8E2520317BB0A6143CD6261E9158BB4D749787FCBCF45D8ACA591E727750D64AF509C3
310
15125D61D345129DE5217F5F0A2FCA97EA58DA4A0C762C0161978C13BDE521FF247EE7828A44AB0D719A8673708813AA7557CC58BC45F9969AA849B4B78D13E582C1F635B19394B8BEE25C412C525BE2959DE55D129701A0D74CEEAFBCB6859DFA681297259BE7AE439138739D44FB3889C176DF84DA1E277EEB87F373DBC4
310
0289990988FD6FCC05D36AEDB238DD4B0CFE509FD173872F97F8CD88164B34910DF157B3259E4ECAD695A8F199EF99EB251E9BB1887ED17D47BFE12777D5C4A3D3BE3675EE6098F719CE4844221291D84AA272DE59792AC512933FA0AB77BF8F91787AE8999078EFCE351A3FF628F1FD3F581E19FFF63C327E80CE61AAD08D
310
13732422B149382FE9C54E2E0D7E6A8D5C2562A3427F8D0D0000000000000000000000000000000000000000000000000000000000000000000000B89B1F2654DE75A3374C4F0000000049454E44AE426082
  0
ACDSRECORD
 90
        0
  2
AcDbDs::ID
280
    10
320
5BD
  2
Thumbnail_Data
280
    15
 94
     1136
310
89504E470D0A1A0A0000000D4948445200000100000000B408030000004C80028300000300504C5445FFFFFF0000000000000000000000000000000000000000000000000000000000000000330000660000990000CC0000FF0033000033330033660033990033CC0033FF0066000066330066660066990066CC0066FF0099
310
000099330099660099990099CC0099FF00CC0000CC3300CC6600CC9900CCCC00CCFF00FF0000FF3300FF6600FF9900FFCC00FFFF3300003300333300663300993300CC3300FF3333003333333333663333993333CC3333FF3366003366333366663366993366CC3366FF3399003399333399663399993399CC3399FF33CC00
310
33CC3333CC6633CC9933CCCC33CCFF33FF0033FF3333FF6633FF9933FFCC33FFFF6600006600336600666600996600CC6600FF6633006633336633666633996633CC6633FF6666006666336666666666996666CC6666FF6699006699336699666699996699CC6699FF66CC0066CC3366CC6666CC9966CCCC66CCFF66FF0066
310
FF3366FF6666FF9966FFCC66FFFF9900009900339900669900999900CC9900FF9933009933339933669933999933CC9933FF9966009966339966669966999966CC9966FF9999009999339999669999999999CC9999FF99CC0099CC3399CC6699CC9999CCCC99CCFF99FF0099FF3399FF6699FF9999FFCC99FFFFCC0000CC00
310
33CC0066CC0099CC00CCCC00FFCC3300CC3333CC3366CC3399CC33CCCC33FFCC6600CC6633CC6666CC6699CC66CCCC66FFCC9900CC9933CC9966CC9999CC99CCCC99FFCCCC00CCCC33CCCC66CCCC99CCCCCCCCCCFFCCFF00CCFF33CCFF66CCFF99CCFFCCCCFFFFFF0000FF0033FF0066FF0099FF00CCFF00FFFF3300FF3333
310
FF3366FF3399FF33CCFF33FFFF6600FF6633FF6666FF6699FF66CCFF66FFFF9900FF9933FF9966FF9999FF99CCFF99FFFFCC00FFCC33FFCC66FFCC99FFCCCCFFCCFFFFFF00FFFF33FFFF66FFFF99FFFFCCFFFFFF0000000D0D0D1A1A1A2828283535354343435050505D5D5D6B6B6B787878868686939393A1A1A1AEAEAEBB
310
BBBBC9C9C9D6D6D6E4E4E4F1F1F1FFFFFF00000000000000000000000000000000000000000000000000000000000056B0F76B0000012B4944415478DAEDD5B10DC0201004C1EFBF4C628A30929DD080939D17A2800D6E66C76FF6844F0001DE00EBBC73B1FF0ED0BB7C8011203E824B002328801114C0080A600405308202
310
50C006082000052840011B20800014A000056C80000250800214B001020840010A50C006082000052840011B20800014A000056C80000250800214B001020840010A50C006082000052840011B20800014A000056C80000250800214B001020840010A50C006082000052840011B20800014A000056C80000250800214B001
310
020840010A50C006082000052840011B20800014A000056C80000250800214B001020840010A50C006082000052840011B20800014A000056C80000250800214B001020840010A50C006082000052840011B20C06F01CEF5FEFA060820C017207EF9000FEEB63A2E11E155860000000049454E44AE426082
  0
ENDSEC
  0
EOF
